<svg xmlns="http://www.w3.org/2000/svg" width="63" height="30" viewBox="0 0 63 30">
    <path fill="#F4F8FC" d="M26.75 3.78v9.27c0 1.14-.93 2.07-2.07 2.07H3.32c-1.14 0-2.07-.93-2.07-2.07V3.78c0-1.5 1.2-2.52 2.67-2.52s2.67 1.02 2.67 2.52v.66h14.82v-.66c0-1.5 1.2-2.52 2.67-2.52s2.67 1.02 2.67 2.52zM.2 19.89c0-1.23 1.05-2.25 2.28-2.25h23.01c1.29 0 2.31 1.02 2.31 2.25 0 1.2-1.02 2.25-2.31 2.25h-8.82v4.74c0 1.53-1.17 2.7-2.7 2.7-1.53 0-2.7-1.17-2.7-2.7v-4.74H2.48C1.25 22.14.2 21.09.2 19.89zm6.39-9.15h14.82V8.7H6.59v2.04zm33.471 18.24c-3.15 0-5.73-2.28-5.73-5.43 0-3.18 2.58-5.46 5.73-5.46h13.05c3.18 0 5.76 2.28 5.76 5.46 0 3.15-2.58 5.43-5.76 5.43h-13.05zm-6.99-14.79c0-1.2.63-1.95 1.44-2.28 2.61-1.05 4.8-3 4.98-6.09h-4.17c-1.17 0-2.1-.87-2.1-2.1 0-1.29.93-2.16 2.1-2.16h13.8c1.29 0 2.16.87 2.16 2.16 0 1.23-.87 2.1-2.16 2.1h-4.2c.21 2.94 2.4 4.74 5.01 5.79.81.33 1.44 1.08 1.44 2.28 0 1.35-.99 2.4-2.4 2.4-.39 0-.81-.09-1.17-.24-2.1-.87-4.2-2.16-5.55-4.38-1.35 2.4-3.48 3.81-5.61 4.68-.36.15-.78.24-1.17.24-1.41 0-2.4-1.05-2.4-2.4zm20.1.72V3.51c0-1.53 1.2-2.7 2.7-2.7 1.5 0 2.7 1.17 2.7 2.7v3.18h1.62c1.17 0 2.1.93 2.1 2.1s-.93 2.1-2.1 2.1h-1.62v4.02c0 1.56-1.2 2.7-2.7 2.7-1.5 0-2.7-1.14-2.7-2.7zm-13.5 8.64c0 .9.69 1.35 1.59 1.35h10.65c.9 0 1.62-.45 1.62-1.35 0-.9-.72-1.38-1.62-1.38h-10.65c-.9 0-1.59.48-1.59 1.38z"/>
</svg>
