<svg xmlns="http://www.w3.org/2000/svg" width="63" height="20" viewBox="0 0 63 20">
    <path fill="#FF703E" d="M17.12 8.12H2.88c-.76 0-1.38-.62-1.38-1.38V2.32c0-.76.62-1.38 1.38-1.38h14.24c.76 0 1.38.62 1.38 1.38v4.42c0 .76-.62 1.38-1.38 1.38zM.8 10.82c0-.78.64-1.42 1.4-1.42h15.58c.8 0 1.42.64 1.42 1.42 0 .74-.62 1.38-1.42 1.38H12v1.56c0 1.04-.8 1.7-1.8 1.7s-1.8-.66-1.8-1.7V12.2H2.2c-.76 0-1.4-.64-1.4-1.38zm.7 6.8v-2.86c0-1 .8-1.6 1.8-1.6s1.8.6 1.8 1.6v1.76h12.4c.78 0 1.4.62 1.4 1.4 0 .78-.62 1.4-1.4 1.4H3.2c-.88 0-1.7-.66-1.7-1.7zM5.06 3.7v1.66h9.88V3.7H5.06zm32.114 14.08v-6.94h-1.12v6.86c0 .98-.76 1.72-1.74 1.72-.94 0-1.72-.74-1.72-1.72V2.36c0-.96.78-1.72 1.72-1.72.98 0 1.74.76 1.74 1.72v5.52h1.12v-5.6c0-.98.78-1.74 1.74-1.74.98 0 1.76.76 1.76 1.74v15.5c0 1-.78 1.74-1.76 1.74-.96 0-1.74-.74-1.74-1.74zm-11.88.74h-1c-.76 0-1.38-.62-1.38-1.38V2.72c0-.76.62-1.38 1.38-1.38h5.78c.82 0 1.38.66 1.38 1.48s-.56 1.48-1.38 1.48h-3.68v11.26c1.18 0 2.36-.14 3.64-.52.2-.06.34-.1.56-.1.84 0 1.5.66 1.5 1.5 0 .7-.44 1.24-1.14 1.44-1.62.46-3.66.64-5.66.64zM44.73 9.08c0-1.88 1.46-3.44 3.16-3.44h4.48c1.72 0 3.16 1.56 3.16 3.44s-1.44 3.44-3.16 3.44h-4.48c-1.7 0-3.16-1.56-3.16-3.44zm13.86 4.56v-2.28h-1.34c-.78 0-1.2-.62-1.2-1.4 0-.78.42-1.4 1.2-1.4h1.34v-1.4h-1.44c-.78 0-1.2-.62-1.2-1.4 0-.78.42-1.4 1.2-1.4h1.44V2.34c0-1.02.8-1.8 1.8-1.8s1.8.78 1.8 1.8v11.3c0 1.04-.8 1.8-1.8 1.8s-1.8-.76-1.8-1.8zm-13.12 3.98v-2.66c0-1 .8-1.6 1.8-1.6s1.8.6 1.8 1.6v1.56h12.12c.78 0 1.4.62 1.4 1.4 0 .78-.62 1.4-1.4 1.4h-14.02c-.88 0-1.7-.66-1.7-1.7zm-1.14-14.2c0-.72.58-1.34 1.3-1.34h2.7v-.44c0-1.02.8-1.5 1.8-1.5s1.8.48 1.8 1.5v.44h2.7c.72 0 1.3.62 1.3 1.34 0 .72-.58 1.34-1.3 1.34h-9c-.72 0-1.3-.62-1.3-1.34zm3.8 5.66c0 .48.32.88.78.88h2.44c.46 0 .78-.4.78-.88s-.32-.88-.78-.88h-2.44c-.46 0-.78.4-.78.88z"/>
</svg>
