<svg xmlns="http://www.w3.org/2000/svg" width="61" height="20" viewBox="0 0 61 20">
    <path fill="#FF703E" d="M7.6 11.34H1.58C.82 11.34.2 10.72.2 9.96V2.68C.2 1.68.94.94 1.92.94s1.72.74 1.72 1.74V3.8h1.9V2.68c0-1 .74-1.74 1.72-1.74s1.72.74 1.72 1.74v7.28c0 .76-.62 1.38-1.38 1.38zm6.86-.64V7.72h-.92v2.9c0 .98-.76 1.72-1.74 1.72-.94 0-1.72-.74-1.72-1.72V2.36c0-.96.78-1.72 1.72-1.72.98 0 1.74.76 1.74 1.72v2.6h.92V2.28c0-.98.78-1.74 1.74-1.74.98 0 1.76.76 1.76 1.74v8.42c0 1-.78 1.74-1.76 1.74-.96 0-1.74-.74-1.74-1.74zm3.5 4.04v2.98c0 1-.8 1.8-1.8 1.8s-1.8-.8-1.8-1.8v-1.88H2.26c-.78 0-1.4-.62-1.4-1.4 0-.78.62-1.4 1.4-1.4h14c.88 0 1.7.66 1.7 1.7zM3.64 8.62h1.9V6.48h-1.9v2.14zm17.874 8.2c0-.66.4-1.28.96-1.56 5-2.48 6.74-6.22 6.74-10.92h-5.92c-.82 0-1.48-.66-1.48-1.48 0-.86.66-1.52 1.48-1.52h8.12c.78 0 1.4.62 1.4 1.4v1.1c0 5.1-1.5 11.14-8.76 14.5-.26.12-.62.18-.92.18-.92 0-1.62-.8-1.62-1.7zm13.6.9V2.34c0-1.02.8-1.8 1.8-1.8s1.8.78 1.8 1.8v5.52h.98c.82 0 1.5.66 1.5 1.5s-.68 1.5-1.5 1.5h-.98v6.86c0 1.04-.8 1.8-1.8 1.8s-1.8-.76-1.8-1.8zm9.055-7.78c0-1.9 1.5-3.58 3.38-3.58h4.62c1.9 0 3.42 1.68 3.42 3.58 0 1.88-1.52 3.54-3.42 3.54h-4.62c-1.88 0-3.38-1.66-3.38-3.54zm13.22 7.78V2.34c0-1.02.8-1.8 1.8-1.8s1.8.78 1.8 1.8v15.38c0 1.04-.8 1.8-1.8 1.8s-1.8-.76-1.8-1.8zM45.049 2.34h3.04v-.7c0-1.02.78-1.5 1.8-1.5s1.8.48 1.8 1.5v.7h3.02c.76 0 1.38.68 1.38 1.44 0 .76-.62 1.44-1.38 1.44h-9.66c-.76 0-1.38-.68-1.38-1.44 0-.76.62-1.44 1.38-1.44zm-.32 16.28c-.84 0-1.5-.62-1.5-1.46s.66-1.46 1.5-1.46c3.24 0 7.28-.12 10.36-.64.12-.02.2-.04.3-.04.84 0 1.5.62 1.5 1.46 0 .78-.5 1.3-1.32 1.44-3.04.52-7.36.7-10.84.7zm2.96-8.7c0 .5.36.84.76.84h2.86c.4 0 .76-.34.76-.84 0-.5-.36-.84-.76-.84h-2.86c-.4 0-.76.34-.76.84z"/>
</svg>
