<svg xmlns="http://www.w3.org/2000/svg" width="75" height="23" viewBox="0 0 75 23">
    <path fill="#FF703E" d="M3.24 9.496c-.936 0-1.68-.744-1.68-1.68 0-.936.744-1.68 1.68-1.68 3.648 0 6.6-1.968 6.6-3.84v-.384c0-.96.96-1.824 2.208-1.824 1.2 0 2.112.864 2.112 1.824v.384c0 1.872 2.952 3.84 6.6 3.84.936 0 1.68.744 1.68 1.68 0 .936-.744 1.68-1.68 1.68-4.464 0-7.344-1.608-8.76-3.576-1.44 1.968-4.32 3.576-8.76 3.576zM.96 13.384c0-.936.768-1.704 1.68-1.704h7.2v-1.2c0-1.224.936-1.92 2.16-1.92 1.224 0 2.16.696 2.16 1.92v1.2h7.176c.96 0 1.704.768 1.704 1.704 0 .888-.744 1.656-1.704 1.656H2.64c-.912 0-1.68-.768-1.68-1.656zm.84 7.56v-3.048c0-1.2.96-1.92 2.16-1.92 1.2 0 2.16.72 2.16 1.92v1.728H21c.936 0 1.68.744 1.68 1.68 0 .936-.744 1.68-1.68 1.68H3.84c-1.056 0-2.04-.792-2.04-2.04zm31.05 2.04c-2.52 0-4.585-1.968-4.585-4.488 0-2.544 2.064-4.512 4.584-4.512h11.352c2.544 0 4.608 1.968 4.608 4.512 0 2.52-2.064 4.488-4.608 4.488H32.85zm-5.713-12.096c0-.864.408-1.488 1.104-1.824 2.904-1.392 4.176-3.6 4.176-5.664v-.672c0-1.2.96-2.04 2.16-2.04 1.2 0 2.16.84 2.16 2.04V3.4c0 2.064 1.272 4.152 4.176 5.544.696.336 1.104.96 1.104 1.824 0 1.08-.84 1.944-1.968 1.944-.336 0-.72-.096-.984-.216-1.752-.792-3.408-1.992-4.488-3.864-1.08 1.92-2.736 3.192-4.488 3.984-.264.12-.648.216-.984.216-1.128 0-1.968-.864-1.968-1.944zm17.112.576v-4.2h-2.856c-.936 0-1.68-.744-1.68-1.68 0-.936.744-1.68 1.68-1.68h2.856V2.608c0-1.224.96-2.16 2.16-2.16 1.2 0 2.16.936 2.16 2.16v8.856c0 1.248-.96 2.16-2.16 2.16-1.2 0-2.16-.912-2.16-2.16zm-11.712 7.032c0 .72.552 1.224 1.272 1.224h9.432c.72 0 1.296-.504 1.296-1.224s-.576-1.248-1.296-1.248H33.81c-.72 0-1.272.528-1.272 1.248zm37.53-3.264V2.608c0-1.224.96-2.16 2.16-2.16 1.2 0 2.16.936 2.16 2.16v12.624c0 1.248-.96 2.16-2.16 2.16-1.2 0-2.16-.912-2.16-2.16zm-5.089-1.704H55.21c-.912 0-1.656-.744-1.656-1.656V2.704c0-.912.744-1.656 1.656-1.656h9.768c.912 0 1.656.744 1.656 1.656v9.168c0 .912-.744 1.656-1.656 1.656zm-7.2-9.216v5.952h4.632V4.312h-4.632zm-3.216 16.632v-4.152c0-1.2.96-1.92 2.16-1.92 1.2 0 2.16.72 2.16 1.92v2.832h14.304c.936 0 1.68.744 1.68 1.68 0 .936-.744 1.68-1.68 1.68H56.602c-1.056 0-2.04-.792-2.04-2.04z"/>
</svg>
