<svg xmlns="http://www.w3.org/2000/svg" width="76" height="24" viewBox="0 0 76 24">
    <path fill="#FF703E" d="M16.632 12.616c0 1.08-.792 1.92-1.92 1.92-.312 0-.576-.048-.888-.192-1.968-.888-3.72-2.28-4.824-4.344-1.032 2.16-2.808 3.6-4.92 4.584-.312.144-.576.192-.888.192-1.128 0-1.92-.84-1.92-1.92 0-.864.408-1.464 1.104-1.8 2.568-1.248 3.888-3 4.272-4.776H3.264c-.96 0-1.752-.792-1.752-1.752 0-1.008.792-1.8 1.752-1.8h3.504v-.816c0-.96.96-1.704 2.208-1.704 1.2 0 2.112.744 2.112 1.704v.816h3.504c1.056 0 1.8.792 1.8 1.8 0 .96-.744 1.752-1.8 1.752h-3.36c.384 1.728 1.68 3.36 4.296 4.536.696.312 1.104.936 1.104 1.8zm1.32 8.448V2.608c0-1.224.96-2.16 2.16-2.16 1.2 0 2.16.936 2.16 2.16v18.456c0 1.248-.96 2.16-2.16 2.16-1.2 0-2.16-.912-2.16-2.16zM2.76 22.144c-1.008 0-1.8-.744-1.8-1.752s.792-1.752 1.8-1.752c1.344 0 2.712 0 4.056-.048v-2.88c0-1.2.936-2.016 2.136-2.016 1.2 0 2.136.816 2.136 2.016v2.664c1.44-.12 2.832-.288 4.128-.504.144-.024.24-.048.36-.048 1.008 0 1.8.744 1.8 1.752 0 .936-.6 1.56-1.584 1.728-3.648.624-8.376.84-13.032.84zm30.09.84c-2.52 0-4.585-1.824-4.585-4.344 0-2.544 2.064-4.368 4.584-4.368h11.352c2.544 0 4.608 1.824 4.608 4.368 0 2.52-2.064 4.344-4.608 4.344H32.85zm-5.593-11.592c0-.96.504-1.56 1.152-1.824 2.136-.864 3.816-2.52 3.864-5.112h-3.216c-.936 0-1.68-.696-1.68-1.68 0-1.032.744-1.728 1.68-1.728H39.81c1.032 0 1.728.696 1.728 1.728 0 .984-.696 1.68-1.728 1.68h-3.216c.048 2.496 1.704 4.008 3.864 4.872.648.264 1.152.864 1.152 1.824 0 1.08-.792 1.92-1.92 1.92-.312 0-.648-.072-.936-.192-1.656-.672-3.24-1.68-4.296-3.384-1.032 1.824-2.664 2.928-4.344 3.624-.288.12-.624.192-.936.192-1.128 0-1.92-.84-1.92-1.92zm16.992.336V8.512h-2.76c-.936 0-1.68-.744-1.68-1.68 0-.936.744-1.68 1.68-1.68h2.76V2.608c0-1.224.96-2.16 2.16-2.16 1.2 0 2.16.936 2.16 2.16v9.12c0 1.248-.96 2.16-2.16 2.16-1.2 0-2.16-.912-2.16-2.16zM32.537 18.64c0 .72.552 1.08 1.272 1.08h9.432c.72 0 1.296-.36 1.296-1.08 0-.72-.576-1.104-1.296-1.104H33.81c-.72 0-1.272.384-1.272 1.104zm23.97 1.8c.671-1.656 1.055-3.456 1.223-5.376h-2.832c-.984 0-1.824-.84-1.824-1.8 0-.984.84-1.8 1.824-1.8h18.408c1.032 0 1.848.816 1.848 1.8 0 .96-.816 1.8-1.848 1.8h-2.16v6c0 1.224-.936 2.16-2.16 2.16-1.224 0-2.16-.936-2.16-2.16v-6h-4.752c-.168 2.4-.648 5.064-1.44 6.72-.48 1.008-1.128 1.44-2.04 1.44-1.488 0-2.64-1.44-2.088-2.784zM69.873 4.648h-14.28c-1.008 0-1.8-.768-1.8-1.8 0-1.008.792-1.8 1.8-1.8h16.944c.912 0 1.656.744 1.656 1.656v.768c0 1.248-.144 3.624-.72 5.736-.288 1.056-1.152 1.536-2.064 1.536-1.296 0-2.16-.936-2.16-2.04 0-.216.048-.504.12-.768.36-1.296.504-2.712.504-3.288z"/>
</svg>
