<svg xmlns="http://www.w3.org/2000/svg" width="63" height="20" viewBox="0 0 63 20">
    <path fill="#FF703E" d="M14.96 9.56V2.34c0-1.02.8-1.8 1.8-1.8s1.8.78 1.8 1.8v7.22c0 1.04-.8 1.8-1.8 1.8s-1.8-.76-1.8-1.8zm2.22 9.76H3.42c-.76 0-1.38-.62-1.38-1.38v-4.7c0-.76.62-1.38 1.38-1.38h13.76c.76 0 1.38.62 1.38 1.38v4.7c0 .76-.62 1.38-1.38 1.38zM5.6 14.58v2.02H15v-2.02H5.6zM8.94 3.8H2.48c-.76 0-1.38-.62-1.38-1.38 0-.76.62-1.38 1.38-1.38h8.64c.76 0 1.38.62 1.38 1.38v.98c0 3.22-2.46 7.2-10.06 7.56-.86.04-1.66-.54-1.66-1.42 0-.8.52-1.46 1.3-1.52C6.6 7.68 8.94 5.98 8.94 3.8zm13.574 8.96c0-.82.7-1.5 1.52-1.5h15.34c.86 0 1.54.68 1.54 1.5 0 .8-.68 1.5-1.54 1.5h-5.88v3.66c0 1.02-.78 1.8-1.8 1.8s-1.8-.78-1.8-1.8v-3.66h-5.86c-.82 0-1.52-.7-1.52-1.5zm2.32-3c-.16.02-.24.02-.32.02-.84 0-1.5-.66-1.5-1.5 0-.76.52-1.4 1.26-1.48 2.32-.26 5.64-1.76 5.64-4.18v-.76c0-.8.8-1.52 1.84-1.52 1 0 1.76.72 1.76 1.52v.76c0 2.42 3.32 3.92 5.64 4.18.74.08 1.26.72 1.26 1.48 0 .84-.66 1.5-1.5 1.5-.08 0-.16 0-.32-.02-2.92-.36-5.56-1.48-6.88-3.64-1.34 2.16-3.96 3.28-6.88 3.64zm19.895-.68c0-1.88 1.46-3.44 3.16-3.44h4.48c1.72 0 3.16 1.56 3.16 3.44s-1.44 3.44-3.16 3.44h-4.48c-1.7 0-3.16-1.56-3.16-3.44zm13.86 4.56v-2.28h-1.34c-.78 0-1.2-.62-1.2-1.4 0-.78.42-1.4 1.2-1.4h1.34v-1.4h-1.44c-.78 0-1.2-.62-1.2-1.4 0-.78.42-1.4 1.2-1.4h1.44V2.34c0-1.02.8-1.8 1.8-1.8s1.8.78 1.8 1.8v11.3c0 1.04-.8 1.8-1.8 1.8s-1.8-.76-1.8-1.8zm-13.12 3.98v-2.66c0-1 .8-1.6 1.8-1.6s1.8.6 1.8 1.6v1.56h12.12c.78 0 1.4.62 1.4 1.4 0 .78-.62 1.4-1.4 1.4h-14.02c-.88 0-1.7-.66-1.7-1.7zm-1.14-14.2c0-.72.58-1.34 1.3-1.34h2.7v-.44c0-1.02.8-1.5 1.8-1.5s1.8.48 1.8 1.5v.44h2.7c.72 0 1.3.62 1.3 1.34 0 .72-.58 1.34-1.3 1.34h-9c-.72 0-1.3-.62-1.3-1.34zm3.8 5.66c0 .48.32.88.78.88h2.44c.46 0 .78-.4.78-.88s-.32-.88-.78-.88h-2.44c-.46 0-.78.4-.78.88z"/>
</svg>
