<svg xmlns="http://www.w3.org/2000/svg" width="62" height="20" viewBox="0 0 62 20">
    <path fill="#FF703E" d="M4.66 19.32c-2.1 0-3.82-1.52-3.82-3.62 0-2.12 1.72-3.64 3.82-3.64h9.46c2.12 0 3.84 1.52 3.84 3.64 0 2.1-1.72 3.62-3.84 3.62H4.66zM0 9.66c0-.8.42-1.3.96-1.52 1.78-.72 3.18-2.1 3.22-4.26H1.5C.72 3.88.1 3.3.1 2.48c0-.86.62-1.44 1.4-1.44h8.96c.86 0 1.44.58 1.44 1.44 0 .82-.58 1.4-1.44 1.4H7.78C7.82 5.96 9.2 7.22 11 7.94c.54.22.96.72.96 1.52 0 .9-.66 1.6-1.6 1.6-.26 0-.54-.06-.78-.16C8.2 10.34 6.88 9.5 6 8.08c-.86 1.52-2.22 2.44-3.62 3.02-.24.1-.52.16-.78.16-.94 0-1.6-.7-1.6-1.6zm14.16.28V7.26h-2.3c-.78 0-1.4-.62-1.4-1.4 0-.78.62-1.4 1.4-1.4h2.3V2.34c0-1.02.8-1.8 1.8-1.8s1.8.78 1.8 1.8v7.6c0 1.04-.8 1.8-1.8 1.8s-1.8-.76-1.8-1.8zM4.4 15.7c0 .6.46.9 1.06.9h7.86c.6 0 1.08-.3 1.08-.9 0-.6-.48-.92-1.08-.92H5.46c-.6 0-1.06.32-1.06.92zm31.274 2.02V2.34c0-1.02.8-1.8 1.8-1.8s1.8.78 1.8 1.8v15.38c0 1.04-.8 1.8-1.8 1.8s-1.8-.76-1.8-1.8zm-14.16-.86c0-.66.36-1.24.92-1.52 5-2.48 7.18-6.32 7.18-11h-6.32c-.82 0-1.48-.66-1.48-1.48 0-.86.66-1.52 1.48-1.52h8.52c.78 0 1.4.62 1.4 1.4v1.1c0 5.3-1.94 11.14-9.2 14.5-.26.12-.58.18-.88.18-.92 0-1.62-.76-1.62-1.66zm36.375.92v-6.94h-1.02v6.86c0 .98-.76 1.72-1.74 1.72-.94 0-1.72-.74-1.72-1.72V2.36c0-.96.78-1.72 1.72-1.72.98 0 1.74.76 1.74 1.72v5.52h1.02v-5.6c0-.98.78-1.74 1.74-1.74.98 0 1.76.76 1.76 1.74v15.5c0 1-.78 1.74-1.76 1.74-.96 0-1.74-.74-1.74-1.74zm-5.08-.9c0 .96-.66 1.74-1.66 1.74-.52 0-.9-.14-1.28-.6-.9-1.08-1.48-2.6-1.86-4.3-.38 1.74-.96 3.3-1.86 4.4-.38.46-.84.6-1.36.6-1 0-1.66-.78-1.66-1.74 0-.46.16-.84.42-1.18 2.06-2.7 2.68-6.9 2.68-10.26V4.3h-1.44c-.8 0-1.46-.66-1.46-1.46 0-.84.66-1.5 1.46-1.5h6.32c.88 0 1.5.66 1.5 1.5 0 .8-.62 1.46-1.5 1.46h-1.4v1.24c0 3.36.62 7.46 2.68 10.16.26.34.42.72.42 1.18z"/>
</svg>
