<svg xmlns="http://www.w3.org/2000/svg" width="63" height="20" viewBox="0 0 63 20">
    <path fill="#FF703E" d="M.8 17.06c0-.58.24-1.04.6-1.36 2.56-2.28 3.9-5.34 3.9-10.58V4.3H2.46C1.66 4.3 1 3.64 1 2.84c0-.84.66-1.5 1.46-1.5h9.24c.88 0 1.5.66 1.5 1.5 0 .8-.62 1.46-1.5 1.46H8.9v.82c0 5.24 1.32 8.22 3.88 10.5.36.32.62.76.62 1.34 0 .96-.7 1.66-1.7 1.66-.46 0-.92-.14-1.2-.4-1.54-1.44-2.66-2.94-3.4-5.12-.72 2.22-1.84 3.78-3.38 5.22-.28.26-.76.4-1.22.4-1 0-1.7-.7-1.7-1.66zm14.16.66V2.34c0-1.02.8-1.8 1.8-1.8s1.8.78 1.8 1.8v15.38c0 1.04-.8 1.8-1.8 1.8s-1.8-.76-1.8-1.8zm25.354-15.4c0 .78-.62 1.38-1.4 1.38h-12.1v1.06h12.2c.78 0 1.4.6 1.4 1.38 0 .78-.62 1.38-1.4 1.38h-5.52v1.32h6c.8 0 1.42.64 1.42 1.42 0 .74-.62 1.38-1.42 1.38h-15.58c-.76 0-1.4-.64-1.4-1.38 0-.78.64-1.42 1.4-1.42h6.02V7.52h-5.34c-.76 0-1.38-.62-1.38-1.38V2.32c0-.76.62-1.38 1.38-1.38h14.32c.78 0 1.4.6 1.4 1.38zm-17.4 13.66c0-1.86 1.5-3.36 3.36-3.36h10.86c1.86 0 3.38 1.5 3.38 3.36 0 1.86-1.52 3.34-3.38 3.34h-10.86c-1.86 0-3.36-1.48-3.36-3.34zm3.56 0c0 .34.24.58.58.58h9.3c.34 0 .6-.24.6-.58 0-.34-.26-.6-.6-.6h-9.3c-.34 0-.58.26-.58.6zM44.23 10.1c0-.78.64-1.42 1.4-1.42h11.3c.72-1.4 1.2-3.82 1.2-4.94h-11.9c-.78 0-1.4-.6-1.4-1.4 0-.78.62-1.4 1.4-1.4h14.12c.76 0 1.38.62 1.38 1.38 0 2.62-.46 4.66-1.14 6.36h.62c.8 0 1.42.64 1.42 1.42 0 .74-.62 1.38-1.42 1.38h-15.58c-.76 0-1.4-.64-1.4-1.38zm.7 7.52v-3.44c0-1 .8-1.7 1.8-1.7s1.8.7 1.8 1.7v2.34h12.4c.78 0 1.4.62 1.4 1.4 0 .78-.62 1.4-1.4 1.4h-14.3c-.88 0-1.7-.66-1.7-1.7z"/>
</svg>
