<svg xmlns="http://www.w3.org/2000/svg" width="64" height="20" viewBox="0 0 64 20">
    <path fill="#FF703E" d="M14.26 19.32h-8.5c-2.16 0-3.92-1.58-3.92-3.74 0-2.18 1.76-3.76 3.92-3.76h8.5c2.18 0 3.94 1.58 3.94 3.76 0 2.16-1.76 3.74-3.94 3.74zM8.54 3.8H2.48c-.76 0-1.38-.62-1.38-1.38 0-.76.62-1.38 1.38-1.38h8.24c.76 0 1.38.62 1.38 1.38v.98c0 3.22-2.06 7.3-9.66 7.66-.86.04-1.66-.54-1.66-1.42 0-.8.52-1.46 1.3-1.52C6.6 7.78 8.54 5.98 8.54 3.8zm5.86 5.88V2.34c0-1.02.8-1.8 1.8-1.8s1.8.78 1.8 1.8v2.1h1.08c.78 0 1.4.62 1.4 1.4 0 .78-.62 1.4-1.4 1.4H18v2.44c0 1.04-.8 1.8-1.8 1.8s-1.8-.76-1.8-1.8zm-9 5.92c0 .64.5.96 1.14.96h6.9c.66 0 1.2-.32 1.2-.96 0-.68-.54-1.02-1.2-1.02h-6.9c-.64 0-1.14.34-1.14 1.02zm17.514-8.24V5.1c0-2.86 2.48-4.36 5.44-4.36 2.96 0 5.46 1.5 5.46 4.36v2.26c0 2.86-2.5 4.34-5.46 4.34s-5.44-1.48-5.44-4.34zm3.56-2.26v2.26c0 1.1.92 1.58 1.9 1.58.98 0 1.88-.48 1.88-1.58V5.1c0-1.1-.9-1.6-1.88-1.6-.98 0-1.9.5-1.9 1.6zm10.2 7.76V2.34c0-1.02.8-1.8 1.8-1.8s1.8.78 1.8 1.8v10.52c0 1.04-.8 1.8-1.8 1.8s-1.8-.76-1.8-1.8zm-12.92 4.76v-3.56c0-1 .8-1.6 1.8-1.6s1.8.6 1.8 1.6v2.46h11.92c.78 0 1.4.62 1.4 1.4 0 .78-.62 1.4-1.4 1.4h-13.82c-.88 0-1.7-.66-1.7-1.7zm20.975-3.48v-2.9c0-2.96 2.48-4.7 5.44-4.7 2.96 0 5.46 1.74 5.46 4.7v2.9c0 2.96-2.5 4.68-5.46 4.68s-5.44-1.72-5.44-4.68zm13.1 3.58V2.34c0-1.02.8-1.8 1.8-1.8s1.8.78 1.8 1.8v5.52h.98c.82 0 1.5.66 1.5 1.5s-.68 1.5-1.5 1.5h-.98v6.86c0 1.04-.8 1.8-1.8 1.8s-1.8-.76-1.8-1.8zm-13.6-13.58c0-.82.6-1.5 1.48-1.5h2.66v-.6c0-1.02.8-1.7 1.8-1.7s1.8.68 1.8 1.7v.6h2.66c.84 0 1.5.66 1.5 1.5s-.66 1.5-1.5 1.5h-8.92c-.88 0-1.48-.66-1.48-1.5zm4.06 7.14v2.82c0 1.06.82 1.76 1.9 1.76s1.88-.7 1.88-1.76v-2.82c0-1.06-.8-1.78-1.88-1.78-1.08 0-1.9.72-1.9 1.78z"/>
</svg>
