<svg xmlns="http://www.w3.org/2000/svg" width="62" height="20" viewBox="0 0 62 20">
    <path fill="#FF703E" d="M.6 17.02c0-.58.22-1.08.6-1.4 2.64-2.18 3.9-5.26 3.9-10.5V2.54c0-1 .8-1.8 1.8-1.8s1.8.8 1.8 1.8v2.58c0 5.24 1.24 8.24 3.88 10.42.38.32.62.8.62 1.38 0 .96-.7 1.7-1.7 1.7-.46 0-.9-.14-1.2-.4-1.58-1.36-2.68-2.84-3.4-4.98-.7 2.18-1.82 3.72-3.4 5.08-.3.26-.74.4-1.2.4-1 0-1.7-.74-1.7-1.7zm14.56.7v-7.48h-2.8c-.88 0-1.58-.7-1.58-1.58 0-.88.7-1.58 1.58-1.58h2.8V2.34c0-1.02.8-1.8 1.8-1.8s1.8.78 1.8 1.8v15.38c0 1.04-.8 1.8-1.8 1.8s-1.8-.76-1.8-1.8zm21.514-4.86V2.34c0-1.02.8-1.8 1.8-1.8s1.8.78 1.8 1.8v10.52c0 1.04-.8 1.8-1.8 1.8s-1.8-.76-1.8-1.8zm-4.24-1.42h-8.14c-.76 0-1.38-.62-1.38-1.38V2.42c0-.76.62-1.38 1.38-1.38h8.14c.76 0 1.38.62 1.38 1.38v7.64c0 .76-.62 1.38-1.38 1.38zm-6-7.68v4.96h3.86V3.76h-3.86zm-2.68 13.86v-3.46c0-1 .8-1.6 1.8-1.6s1.8.6 1.8 1.6v2.36h11.92c.78 0 1.4.62 1.4 1.4 0 .78-.62 1.4-1.4 1.4h-13.82c-.88 0-1.7-.66-1.7-1.7zm20.475-.56c0-.58.24-1.04.6-1.36 2.56-2.28 3.9-5.34 3.9-10.58V4.3h-2.84c-.8 0-1.46-.66-1.46-1.46 0-.84.66-1.5 1.46-1.5h9.24c.88 0 1.5.66 1.5 1.5 0 .8-.62 1.46-1.5 1.46h-2.8v.82c0 5.24 1.32 8.22 3.88 10.5.36.32.62.76.62 1.34 0 .96-.7 1.66-1.7 1.66-.46 0-.92-.14-1.2-.4-1.54-1.44-2.66-2.94-3.4-5.12-.72 2.22-1.84 3.78-3.38 5.22-.28.26-.76.4-1.22.4-1 0-1.7-.7-1.7-1.66zm14.16.66V2.34c0-1.02.8-1.8 1.8-1.8s1.8.78 1.8 1.8v15.38c0 1.04-.8 1.8-1.8 1.8s-1.8-.76-1.8-1.8z"/>
</svg>
