<svg xmlns="http://www.w3.org/2000/svg" width="66" height="37" viewBox="0 0 66 37">
    <path fill="#EBA847" d="M17.648 23.684V12.386L9.206 23.684h8.442zm7.308-.084h2.898c1.806 0 2.856 1.554 2.856 3.276 0 1.68-1.05 3.276-2.856 3.276h-2.898v3.486c0 2.184-1.596 3.36-3.696 3.36s-3.696-1.176-3.696-3.36v-3.486H4.334c-2.016 0-3.318-.966-3.822-2.268-.504-1.302-.252-3.108.714-4.368l15.456-20.79C17.816 1.172 20.084.5 21.974 1.088c1.68.546 2.982 1.89 2.982 3.78V23.6zm22.92 9.828c0-9.534 5.334-20.37 8.946-25.536h-12.39v4.998c0 2.184-1.386 3.402-3.486 3.402-2.1 0-3.486-1.218-3.486-3.402V5.54c0-2.52 1.68-4.2 4.2-4.2h18.942c1.848 0 3.402.882 4.074 2.394.63 1.344.462 3.696-.42 4.998-4.41 6.594-8.82 16.002-8.82 24.696 0 2.184-1.68 3.57-3.78 3.57-2.1 0-3.78-1.386-3.78-3.57z"/>
</svg>
