<svg xmlns="http://www.w3.org/2000/svg" width="28" height="37" viewBox="0 0 28 37">
    <path fill="#EBA847" d="M27.904 25.7c0 6.72-5.502 11.172-13.902 11.172C5.602 36.872.1 32.42.1 25.7c0-3.78 2.352-6.762 5.25-8.19-2.184-1.05-4.032-3.78-4.032-6.636C1.318 4.994 6.442.92 14.002.92s12.726 4.074 12.726 9.954c0 2.814-1.932 5.586-4.116 6.636 3.024 1.428 5.292 4.41 5.292 8.19zm-8.4-14.7c0-2.1-2.058-3.612-5.502-3.612S8.542 8.9 8.542 11s2.016 3.612 5.46 3.612S19.504 13.1 19.504 11zm1.092 14.574c0-2.814-2.394-4.788-6.594-4.788s-6.594 1.974-6.594 4.788 2.394 4.83 6.594 4.83 6.594-2.016 6.594-4.83z"/>
</svg>
