<svg xmlns="http://www.w3.org/2000/svg" width="28" height="37" viewBox="0 0 28 37">
    <path fill="#8BBDD1" d="M27.232 24.44c0 7.392-4.956 12.432-13.23 12.432C4.972 36.872.1 29.438.1 19.148.1 8.06 5.938.92 14.884.92c3.99 0 7.392.966 9.828 3.318 1.218 1.218 1.26 2.772.168 4.2-1.092 1.428-2.688 1.68-4.074.84-1.68-1.008-3.612-1.806-5.922-1.806-3.906 0-6.678 3.654-7.182 8.106 1.26-1.512 4.242-2.856 7.308-2.856 7.602 0 12.222 4.914 12.222 11.718zm-7.434.084c0-2.772-1.974-5.166-5.376-5.166-3.024 0-5.502 1.47-6.594 3.654.126 3.864 2.856 7.308 6.3 7.308 3.822 0 5.67-2.436 5.67-5.796z"/>
</svg>
