<svg xmlns="http://www.w3.org/2000/svg" width="234" height="30" viewBox="0 0 234 30">
    <path fill="#F3F8FC" d="M18.14 27.18H3.89C1.64 27.18.5 26.04.5 23.82c0-6.48 5.1-8.4 9.63-10.5 3.18-1.47 4.17-2.1 4.17-3.93 0-1.35-1.23-2.76-4.08-2.76-2.01 0-3.51.93-4.29 2.82-.54 1.32-1.71 1.89-3.06 1.68C1.46 10.92.53 9.6.95 8.16 2.09 4.2 5.84 1.8 10.16 1.8c5.22 0 9.48 3.15 9.48 7.53 0 4.62-2.61 5.85-7.2 7.95-2.82 1.29-6.09 3.09-6.24 5.1h11.94c1.29 0 2.16 1.17 2.16 2.4 0 1.2-.87 2.4-2.16 2.4zM36.281 1.8c6.21 0 10.71 4.56 10.71 12.81 0 8.28-4.5 12.87-10.71 12.87-6.24 0-10.71-4.59-10.71-12.87 0-8.25 4.47-12.81 10.71-12.81zm-5.37 12.81c0 5.16 1.92 8.13 5.37 8.13 3.48 0 5.37-2.97 5.37-8.13 0-5.13-1.92-8.07-5.37-8.07s-5.37 2.94-5.37 8.07zm32.092 7.77h2.4c1.29 0 2.04 1.17 2.04 2.4 0 1.2-.75 2.4-2.04 2.4h-11.4c-1.29 0-2.04-1.17-2.04-2.4 0-1.2.75-2.4 2.04-2.4h3.6V9.21l-1.77 1.2c-1.02.69-2.52.36-3.3-.69-.78-1.05-.81-2.58.39-3.39l5.91-3.96c.81-.54 1.86-.81 2.88-.36.84.36 1.29 1.17 1.29 2.16v18.21zm9.411-11.7c0-5.28 3.54-8.88 9.45-8.88 6.45 0 9.93 5.31 9.93 12.66 0 7.92-4.17 13.02-10.56 13.02-2.85 0-5.28-.69-7.02-2.37-.87-.87-.9-1.98-.12-3s1.92-1.2 2.91-.6c1.2.72 2.58 1.29 4.23 1.29 2.79 0 4.77-2.61 5.13-5.79-.9 1.08-3.03 2.04-5.22 2.04-5.43 0-8.73-3.51-8.73-8.37zm5.31-.06c0 1.98 1.41 3.69 3.84 3.69 2.16 0 3.93-1.05 4.71-2.61-.09-2.76-2.04-5.22-4.5-5.22-2.73 0-4.05 1.74-4.05 4.14zm57.463 5.64c0 1.23-.87 2.16-2.01 2.16h-21.45c-1.14 0-2.04-.93-2.04-2.16s.9-2.16 2.04-2.16h2.4l-.45-4.74c-.15-1.5 1.17-2.37 2.67-2.37s2.52.87 2.67 2.37l.42 4.74h6.03l.45-4.74c.15-1.5 1.17-2.37 2.67-2.37s2.82.87 2.67 2.37l-.51 4.74h2.43c1.14 0 2.01.93 2.01 2.16zm-26.55 9.72c0-1.23 1.05-2.25 2.28-2.25h23.01c1.29 0 2.31 1.02 2.31 2.25 0 1.2-1.02 2.25-2.31 2.25h-23.01c-1.23 0-2.28-1.05-2.28-2.25zm24.84-19.74h-22.05c-1.14 0-2.04-.96-2.04-2.19s.9-2.19 2.04-2.19h22.05c1.14 0 2.01.96 2.01 2.19s-.87 2.19-2.01 2.19zm14.182 8.28h18.3c1.17 0 2.1.93 2.1 2.1s-.93 2.1-2.1 2.1h-21.63c-1.14 0-2.07-.93-2.07-2.07v-6.51c0-1.14.93-1.89 2.07-1.89h18.03V6.06h-18.12c-1.17 0-2.13-.93-2.13-2.1s.96-2.1 2.13-2.1h21.45c1.14 0 2.07.93 2.07 2.07v6.33c0 1.17-.93 2.07-2.1 2.07h-18v2.19zm-6.45 11.49c0-1.23 1.05-2.22 2.28-2.22h8.82v-2.07c0-1.53 1.17-2.25 2.7-2.25 1.53 0 2.7.72 2.7 2.25v2.07h8.79c1.29 0 2.31.99 2.31 2.22 0 1.2-1.02 2.22-2.31 2.22h-23.01c-1.23 0-2.28-1.02-2.28-2.22zm32.841-10.47c0-.93.39-1.56 1.02-2.04 2.58-1.98 3.45-4.62 3.45-7.53V5.7h-2.4c-1.14 0-1.89-.9-1.89-2.04 0-1.2.75-2.1 1.89-2.1h10.02c1.14 0 1.89.9 1.89 2.1 0 1.14-.75 2.04-1.89 2.04h-2.4v.27c0 2.91.87 5.28 3.45 7.26.63.48 1.02 1.11 1.02 2.04 0 1.32-.93 2.34-2.31 2.34-.72 0-1.23-.27-1.68-.63-1.2-.96-2.28-2.19-3.06-3.93-.81 1.89-1.92 3.24-3.12 4.2-.45.36-.96.63-1.68.63-1.38 0-2.31-1.02-2.31-2.34zm26.97 6.69v4.35c0 1.5-1.2 2.7-2.7 2.7-1.5 0-2.7-1.2-2.7-2.7v-2.7h-18.15c-1.17 0-2.1-.93-2.1-2.1s.93-2.1 2.1-2.1h21c1.32 0 2.55.99 2.55 2.55zm-11.7-6.18v-4.86h-1.65c-1.17 0-1.95-.93-1.95-2.1s.78-2.1 1.95-2.1h1.65V3.54c0-1.44 1.17-2.58 2.58-2.58 1.47 0 2.61 1.14 2.61 2.58v12.51c0 1.47-1.14 2.58-2.61 2.58-1.41 0-2.58-1.11-2.58-2.58zm6.45.12V3.42c0-1.47 1.17-2.61 2.61-2.61 1.47 0 2.64 1.14 2.64 2.61v12.75c0 1.5-1.17 2.61-2.64 2.61-1.44 0-2.61-1.11-2.61-2.61zm10.581 9.84c0-1.23 1.05-2.22 2.28-2.22h23.01c1.29 0 2.31.99 2.31 2.22 0 1.2-1.02 2.22-2.31 2.22h-23.01c-1.23 0-2.28-1.02-2.28-2.22zm26.25-15.9c0 1.11-.9 2.07-2.01 2.07h-17.79v2.64h18.39c1.14 0 2.01.96 2.01 2.1 0 1.14-.87 2.1-2.01 2.1h-21.72c-1.14 0-2.07-.93-2.07-2.07v-6.78c0-1.14.9-2.07 2.07-2.07h21.12c1.11 0 2.01.9 2.01 2.01zm-23.28-8.25h21.66c1.14 0 2.07.96 2.07 2.1 0 1.14-.93 2.1-2.07 2.1h-21.66c-1.14 0-2.07-.96-2.07-2.1 0-1.14.93-2.1 2.07-2.1z"/>
</svg>
