<svg xmlns="http://www.w3.org/2000/svg" width="62" height="37" viewBox="0 0 62 37">
    <path fill="#8BBDD1" d="M1.192 6.842C3.292 3.482 7.618.92 13.204.92c7.98 0 12.894 4.872 12.894 9.996 0 3.738-1.974 6.216-4.452 7.35 2.856.714 5.502 3.36 5.502 7.56 0 6.93-6.468 11.046-14.238 11.046-5.586 0-10.206-2.352-12.348-6.342-.924-1.722-.336-3.57 1.05-4.494 1.428-.924 3.738-1.05 4.914.63 1.386 2.016 3.612 3.696 6.72 3.696 3.906 0 6.426-1.806 6.426-4.536 0-3.234-3.57-4.368-7.35-4.368-1.932 0-3.276-1.092-3.276-3.192s1.344-3.192 3.276-3.192c3.108 0 6.3-.84 6.3-3.78 0-2.352-2.478-3.78-5.292-3.78-2.856 0-4.914 1.26-6.132 3.066-.924 1.386-2.94 1.974-4.746.924-1.68-.966-2.268-3.066-1.26-4.662zm34.848 0C38.14 3.482 42.466.92 48.052.92c7.98 0 12.894 4.872 12.894 9.996 0 3.738-1.974 6.216-4.452 7.35 2.856.714 5.502 3.36 5.502 7.56 0 6.93-6.468 11.046-14.238 11.046-5.586 0-10.206-2.352-12.348-6.342-.924-1.722-.336-3.57 1.05-4.494 1.428-.924 3.738-1.05 4.914.63 1.386 2.016 3.612 3.696 6.72 3.696 3.906 0 6.426-1.806 6.426-4.536 0-3.234-3.57-4.368-7.35-4.368-1.932 0-3.276-1.092-3.276-3.192s1.344-3.192 3.276-3.192c3.108 0 6.3-.84 6.3-3.78 0-2.352-2.478-3.78-5.292-3.78-2.856 0-4.914 1.26-6.132 3.066-.924 1.386-2.94 1.974-4.746.924-1.68-.966-2.268-3.066-1.26-4.662z"/>
</svg>
