<svg xmlns="http://www.w3.org/2000/svg" width="57" height="37" viewBox="0 0 57 37">
    <path fill="#FF749E" d="M16.136 29.732h3.36c1.806 0 2.856 1.638 2.856 3.36 0 1.68-1.05 3.36-2.856 3.36H3.536c-1.806 0-2.856-1.638-2.856-3.36 0-1.68 1.05-3.36 2.856-3.36h5.04V11.294l-2.478 1.68c-1.428.966-3.528.504-4.62-.966s-1.134-3.612.546-4.746l8.274-5.544c1.134-.756 2.604-1.134 4.032-.504 1.176.504 1.806 1.638 1.806 3.024v25.494zM37.964 7.976l-.672 6.132c1.302-.966 3.486-1.638 6.006-1.638 7.266 0 12.768 4.662 12.768 11.802 0 7.098-5.628 12.306-13.734 12.265-5.376-.043-9.618-1.849-12.348-5.545-1.092-1.47-.798-3.276.546-4.494s3.318-1.218 4.662.084c1.806 1.764 3.738 3.486 7.14 3.486 3.906 0 6.258-2.688 6.258-5.628 0-3.276-2.268-5.502-5.712-5.502-3.066 0-4.368.714-6.384 1.974-1.092.672-2.226 1.05-3.276 1.05-2.016 0-3.612-1.638-3.402-3.822l1.26-12.6c.252-2.52 2.1-4.2 4.62-4.2H51.74c1.806 0 3.024 1.596 3.024 3.318 0 1.68-1.218 3.318-3.024 3.318H37.964z"/>
</svg>
