<svg xmlns="http://www.w3.org/2000/svg" width="81" height="20" viewBox="0 0 81 20">
    <path fill="#F4F8FC" d="M18.167 2.52v8.38c0 .76-.62 1.38-1.38 1.38H2.547c-.76 0-1.38-.62-1.38-1.38V2.52c0-1 .8-1.68 1.78-1.68s1.78.68 1.78 1.68v1.64h9.88V2.52c0-1 .8-1.68 1.78-1.68s1.78.68 1.78 1.68zm-17.7 14.8c0-.82.7-1.5 1.52-1.5h5.88v-1.54c0-1.02.78-1.5 1.8-1.5s1.8.48 1.8 1.5v1.54h5.86c.86 0 1.54.68 1.54 1.5 0 .8-.68 1.5-1.54 1.5H1.987c-.82 0-1.52-.7-1.52-1.5zm4.26-7.96h9.88V7h-9.88v2.36zm19.186 9.16h-1c-.76 0-1.38-.62-1.38-1.38v-7.6c0-.76.62-1.38 1.38-1.38h5.16V4.24h-5.2c-.8 0-1.44-.64-1.44-1.44 0-.82.64-1.46 1.44-1.46h7.38c.76 0 1.38.62 1.38 1.38V9.6c0 .78-.62 1.4-1.4 1.4h-5.14v4.62c2.5 0 5.42-.2 7.58-.74.16-.04.28-.06.42-.06.82 0 1.5.68 1.5 1.5 0 .66-.5 1.26-1.16 1.42-3.02.68-6.3.78-9.52.78zm11.58-.8V9.94h-1.88c-.88 0-1.38-.7-1.38-1.58 0-.88.5-1.58 1.38-1.58h1.88V2.34c0-1.02.8-1.8 1.8-1.8s1.8.78 1.8 1.8v15.38c0 1.04-.8 1.8-1.8 1.8s-1.8-.76-1.8-1.8zm6.307-.9c0-.66.4-1.28.96-1.56 5-2.48 6.74-6.22 6.74-10.92h-5.92c-.82 0-1.48-.66-1.48-1.48 0-.86.66-1.52 1.48-1.52h8.12c.78 0 1.4.62 1.4 1.4v1.1c0 5.1-1.5 11.14-8.76 14.5-.26.12-.62.18-.92.18-.92 0-1.62-.8-1.62-1.7zm13.6.9V2.34c0-1.02.8-1.8 1.8-1.8s1.8.78 1.8 1.8v5.52h.98c.82 0 1.5.66 1.5 1.5s-.68 1.5-1.5 1.5H59v6.86c0 1.04-.8 1.8-1.8 1.8s-1.8-.76-1.8-1.8zm21.227 0V2.34c0-1.02.8-1.8 1.8-1.8s1.8.78 1.8 1.8v15.38c0 1.04-.8 1.8-1.8 1.8s-1.8-.76-1.8-1.8zm-14.16-.86c0-.66.36-1.24.92-1.52 5-2.48 7.18-6.32 7.18-11h-6.32c-.82 0-1.48-.66-1.48-1.48 0-.86.66-1.52 1.48-1.52h8.52c.78 0 1.4.62 1.4 1.4v1.1c0 5.3-1.94 11.14-9.2 14.5-.26.12-.58.18-.88.18-.92 0-1.62-.76-1.62-1.66z"/>
</svg>
