<svg xmlns="http://www.w3.org/2000/svg" xmlns:xlink="http://www.w3.org/1999/xlink" width="80" height="60" viewBox="0 0 80 60">
    <defs>
        <path id="prefix__a" d="M0 0.001L79.932 0.001 79.932 44.83 0 44.83z"/>
        <path id="prefix__c" d="M0.047 0.154L19.93 0.154 19.93 17.698 0.047 17.698z"/>
    </defs>
    <g fill="none" fill-rule="evenodd">
        <path fill="#C3262F" d="M51.376 41.549c-2.034 0-3.683-1.659-3.683-3.704 0-2.046 1.65-3.704 3.683-3.704 2.035 0 3.683 1.658 3.683 3.704v.001c0 2.046-1.65 3.704-3.684 3.703h.001zm-26.184 0c-2.034 0-3.684-1.657-3.685-3.703-.001-2.045 1.647-3.704 3.681-3.705 2.034-.001 3.684 1.656 3.685 3.702v.003c0 2.045-1.648 3.703-3.681 3.703zm52.022 1.767c-4.166-12.273-12.86-18.796-15.34-20.54-3.424-2.453-7.198-4.37-11.194-5.686-1.514 3.423-3.61 7.948-8.161 11.018-3.273 2.208-5.019 1.787-5.551 1.62-1.525-.483-2.498-1.858-2.627-2.046-.561-.853-.897-1.835-.975-2.855-.478-4.398.714-8.395.97-9.188-5.542.798-10.838 2.827-15.504 5.939-9.481 6.375-13.305 15.455-14.83 19.077-.729 1.735-1.351 3.513-1.865 5.324-1.196 4.316-1.74 8.79-1.61 13.27l78.814.085c.338-5.428-.385-10.87-2.127-16.018z"/>
        <g transform="translate(0 15.016)">
            <mask id="prefix__b" fill="#fff">
                <use xlink:href="#prefix__a"/>
            </mask>
            <path fill="#222" d="M25.19 19.636h-.001c-.848 0-1.646.333-2.245.936-.6.603-.929 1.405-.928 2.258 0 .853.33 1.654.93 2.257.6.602 1.396.934 2.244.934h.001c1.75 0 3.174-1.431 3.174-3.19-.001-1.764-1.425-3.195-3.175-3.195zm0 7.408c-1.12 0-2.17-.438-2.962-1.233-.792-.796-1.23-1.855-1.23-2.98 0-1.126.435-2.185 1.227-2.982.791-.796 1.843-1.235 2.963-1.236h.002c2.31 0 4.19 1.89 4.191 4.214 0 2.327-1.879 4.217-4.189 4.217h-.002zm26.187-1.023c.847 0 1.644-.331 2.243-.934.6-.603.93-1.404.93-2.257 0-1.762-1.423-3.194-3.173-3.194-1.751 0-3.175 1.432-3.175 3.192 0 1.761 1.424 3.193 3.175 3.193zm0 1.023h-.002c-2.31-.001-4.19-1.892-4.19-4.216 0-2.324 1.88-4.215 4.192-4.215 2.31 0 4.19 1.891 4.19 4.215 0 1.128-.436 2.187-1.228 2.983-.792.795-1.844 1.233-2.962 1.233zM1.024 43.722l77.837.084c.265-5.224-.45-10.383-2.129-15.341-3.737-11.01-11.095-17.435-15.149-20.286-3.265-2.339-6.837-4.178-10.626-5.473-1.41 3.173-3.555 7.708-8.155 10.81-2.357 1.59-4.427 2.173-5.985 1.684-1.646-.52-2.7-1.96-2.895-2.243-.613-.932-.978-2.003-1.063-3.107-.395-3.638.336-7.027.762-8.598-5.155.858-10.155 2.833-14.508 5.736C9.76 13.278 5.917 22.403 4.47 25.838c-.718 1.71-1.338 3.48-1.843 5.265-1.14 4.11-1.679 8.353-1.603 12.619zm78.794 1.108L.033 44.743l-.014-.496c-.131-4.535.417-9.051 1.629-13.422.517-1.826 1.151-3.637 1.885-5.385 1.48-3.513 5.41-12.843 15.017-19.303C23.25 3.002 28.683.92 34.264.117l.807-.116-.252.78c-.24.744-1.415 4.673-.947 8.974.072.947.38 1.85.893 2.629.156.226 1.028 1.42 2.355 1.84 1.236.387 3.053-.165 5.116-1.557 4.565-3.08 6.62-7.726 7.98-10.8l.186-.423.436.144c4.05 1.333 7.862 3.27 11.332 5.756 4.151 2.92 11.694 9.506 15.525 20.79v.001c1.773 5.237 2.497 10.693 2.153 16.215l-.03.48z" mask="url(#prefix__b)"/>
        </g>
        <path fill="#C3262F" d="M50.68 17.085l.102-.232c.92-2.013 1.575-4.137 1.949-6.32.26-1.582.5-4.025-.283-6.536-.358-1.148-.82-1.956-1.588-2.524-.556-.389-1.195-.64-1.865-.731-2.764-.425-5.508 1.554-5.812 1.78-5.01 3.7-8.768 12.967-8.8 12.967l-.047.145c1.12-.17 2.02-.238 2.623-.278 4.642-.305 9.298.282 13.72 1.729"/>
        <g transform="translate(33.56 .016)">
            <mask id="prefix__d" fill="#fff">
                <use xlink:href="#prefix__c"/>
            </mask>
            <path fill="#222" d="M5.815 14.75c3.74 0 7.438.567 11.027 1.693.86-1.923 1.474-3.942 1.828-6.013.395-2.392.308-4.453-.267-6.296C18.055 3.017 17.635 2.34 17 1.87c-.476-.333-1.044-.556-1.632-.637-2.553-.391-5.153 1.471-5.441 1.685-3.807 2.811-6.959 9.052-8.327 12.073.706-.084 1.298-.13 1.768-.16.818-.054 1.634-.08 2.448-.08zM17.4 17.697l-.437-.143c-4.38-1.433-8.932-2.007-13.53-1.704-.638.041-1.507.11-2.58.273l-.806.123.244-.782c.033-.103.054-.162.054-.162l.12-.34h.03c3.636-8.208 7.09-11.586 8.828-12.87.526-.39 3.3-2.316 6.19-1.873.738.101 1.46.384 2.078.817.824.61 1.37 1.468 1.783 2.792.623 1.999.721 4.214.3 6.771-.382 2.23-1.051 4.398-1.99 6.45l-.284.648z" mask="url(#prefix__d)"/>
        </g>
    </g>
</svg>
