<svg xmlns="http://www.w3.org/2000/svg" width="140" height="66" viewBox="0 0 140 66">
    <g fill="#FF703E">
        <path d="M68.915 47.8c-5.293.002-10.064-3.211-12.09-8.14-2.026-4.928-.907-10.601 2.835-14.374 3.742-3.772 9.37-4.9 14.26-2.86 4.89 2.042 8.078 6.851 8.078 12.186-.008 7.28-5.86 13.18-13.083 13.189zm0-18.745c-2.231-.001-4.243 1.353-5.097 3.43-.854 2.078-.382 4.47 1.195 6.06 1.578 1.59 3.95 2.065 6.011 1.204 2.061-.86 3.405-2.889 3.404-5.137-.005-3.067-2.47-5.552-5.513-5.557zM15.105 58.033c-5.693 0-10.826-3.456-13.006-8.758-2.179-5.301-.975-11.404 3.05-15.462 4.026-4.059 10.08-5.273 15.34-3.077 5.26 2.196 8.69 7.37 8.69 13.108-.009 7.832-6.304 14.179-14.074 14.189zm0-20.167c-2.4 0-4.564 1.456-5.483 3.69-.918 2.236-.41 4.808 1.286 6.519 1.697 1.71 4.25 2.222 6.467 1.296 2.217-.926 3.662-3.108 3.661-5.527-.004-3.3-2.657-5.974-5.93-5.978zM114.746 58.09h-14.322c-1.08 0-2.116-.432-2.88-1.202-.764-.77-1.192-1.814-1.192-2.903V33.704c.066-2.218 1.869-3.982 4.07-3.982 2.201 0 4.004 1.764 4.07 3.982V49.88h10.25c2.181.093 3.902 1.902 3.902 4.102s-1.72 4.01-3.902 4.102l.004.006zM125.966 37.866H134.793V46.074H125.966zM34.933 26.87h2.912c.35 0 .686.14.934.39s.387.588.387.941v28.377c0 2.215-1.782 4.01-3.98 4.01h-2.894c-.729 0-1.32-.595-1.32-1.33V30.874c0-2.215 1.781-4.01 3.98-4.01l-.019.006zM90.828 53.126V55.8c0 .67-.538 1.213-1.203 1.213H50.58c-2.005 0-3.63-1.639-3.63-3.66v-2.661c0-.67.538-1.213 1.203-1.213h39.057c1.998 0 3.617 1.633 3.617 3.647l.002.001z"/>
        <path d="M69.108 51.232h3.234c.81 0 1.465.661 1.465 1.477v8.831c0 2.464-1.982 4.46-4.426 4.46h-3.22c-.808 0-1.464-.661-1.464-1.477v-8.839c-.002-1.18.462-2.312 1.29-3.148.827-.835 1.95-1.304 3.121-1.304zM124.477 28.411h2.632c.587 0 1.063.48 1.063 1.072v27.231c0 2.076-1.668 3.759-3.728 3.76h-2.62c-.588 0-1.064-.48-1.064-1.072V32.156c0-2.069 1.665-3.745 3.717-3.745zM136.102 27.713h2.632c.587 0 1.063.48 1.063 1.072v27.93c0 2.076-1.67 3.759-3.73 3.759h-2.617c-.587 0-1.063-.48-1.063-1.072V31.465c-.002-.994.39-1.949 1.086-2.652.697-.704 1.643-1.1 2.63-1.1zM42.161 46.074h-8.25V37.87h8.25c2.247 0 4.07 1.835 4.072 4.1 0 2.267-1.823 4.104-4.072 4.104zM79.044.481C55.874-1.925 28.812 5.194 0 10.928l5.285 15.186s22.288-5.105 54.094-10.465c4.824-.814 16.293-3.083 27.06-4.152 7.318-.73 14.385-1.127 20.92-.973C101.08 6.053 91.933 1.824 79.044.48zm22.56 6.892l.205 1.26c-.7-.365-1.428-.73-2.187-1.094l-.378-1.298c.794.362 1.577.74 2.35 1.132h.01zm-3.112-1.459l.374 1.277c-.79-.355-1.612-.701-2.463-1.038l-.584-1.322c.902.343 1.79.704 2.664 1.082l.009.001zm-3.47-1.356l.574 1.302c-.886-.332-1.804-.65-2.755-.954l-.826-1.334c1.02.301 2.023.63 3.008.986zm-3.86-1.236l.813 1.309c-.98-.295-1.995-.574-3.042-.835l-1.11-1.322c1.133.255 2.246.538 3.34.848zm-4.29-1.058l1.086 1.299c-1.068-.247-2.17-.474-3.305-.677l-1.43-1.293c1.236.194 2.454.417 3.651.671h-.002zm-7.466-1.17c.917.097 1.825.208 2.724.334l1.403 1.261c-1.133-.185-2.302-.346-3.507-.483L78.243.986c.39.039.78.071 1.163.108zm-2.433-.21l1.742 1.193c-1.196-.122-2.402-.213-3.618-.274L72.912.671c1.365.039 2.719.11 4.06.213zm-5.58-.25l2.11 1.094c-1.062-.04-2.132-.063-3.21-.07L68.385.623c1.01-.011 2.011-.006 3.008.01zM67.052.65l1.863 1.012c-.979 0-1.961.024-2.952.055l-1.72-.974C65.185.7 66.118.671 67.048.649h.004zm-4.014.155l1.691.957c-.922.038-1.85.087-2.784.146L60.368.974c.892-.062 1.78-.123 2.666-.17h.004zm-3.786.257l1.556.912c-.889.064-1.781.136-2.677.215l-1.46-.912c.865-.073 1.724-.146 2.581-.215zm-3.617.332l1.447.9c-.865.082-1.734.17-2.607.265l-1.358-.888c.843-.098 1.683-.19 2.52-.277h-.002zm-3.493.392l1.355.886c-.844.098-1.698.202-2.56.312l-1.266-.879c.824-.11 1.647-.217 2.47-.32zm-3.399.443l1.266.877c-.844.11-1.688.227-2.532.35l-1.2-.875c.828-.122 1.65-.239 2.466-.352zm-3.328.485l1.192.87c-.834.121-1.67.25-2.509.384L42.971 3.1c.818-.133 1.632-.262 2.444-.386zm-3.27.52l1.125.87c-.83.132-1.664.27-2.502.413l-1.07-.87c.816-.14 1.632-.279 2.447-.413zm-3.238.547l1.058.87c-.83.141-1.665.288-2.501.44l-1-.875c.81-.147 1.622-.29 2.434-.432l.009-.003zm-3.214.576l.998.873c-.834.152-1.671.306-2.51.463l-.937-.879c.811-.152 1.625-.303 2.44-.454l.009-.003zm-3.205.603l.938.875c-.838.158-1.678.32-2.521.483l-.88-.882 2.463-.476zm-3.186.618l.88.886c-.845.164-1.689.331-2.533.502l-.821-.894 2.474-.494zm-3.185.636l.821.894-2.556.518-.765-.912 2.5-.5zm-3.189.65l.763.911-2.577.533-.707-.912 2.521-.532zm-3.2.661l.708.912-2.601.547-.652-.928 2.545-.53zM14.532 8.61l1.99-.416.643.923-2.423.509-.203.038-.591-.935.584-.119zm-1.245.26l.592.936-2.652.547-.532-.95 2.592-.534zm-3.246.677l.53.95-2.674.547-.472-.96 2.616-.537zm-8.863 2.875l-.353-.99 2.657-.534.409.976-2.713.548zm3.371-.681l-.414-.983c.881-.179 1.76-.361 2.637-.547l.463.975-2.686.555zm1.103 13.45l-.349-.996c.66-.148 1.827-.405 3.448-.757l.41.981c-1.658.358-2.845.622-3.514.771h.005zm4.16-.912l-.412-.98c.997-.214 2.14-.459 3.42-.729l.473.967c-1.31.273-2.473.53-3.486.74l.006.002zm4.134-.88l-.48-.973c1.047-.22 2.178-.455 3.392-.707l.543.954c-1.243.258-2.388.5-3.46.723l.005.002zm4.107-.856l-.542-.953c1.062-.22 2.185-.449 3.362-.688l.594.943c-1.197.24-2.336.473-3.419.696l.005.002zm4.087-.833l-.596-.943 3.336-.667.655.93-3.395.68zm4.066-.813l-.653-.93c1.07-.213 2.172-.43 3.308-.651l.713.912-3.368.669zm4.051-.795l-.712-.912c1.064-.208 2.158-.42 3.28-.634l.771.911-3.339.635zm4.032-.775l-.772-.912 3.256-.616.83.9c-1.129.211-2.233.42-3.314.628zm4.027-.76l-.83-.901c1.057-.2 2.134-.4 3.23-.6l.886.892-3.286.609zm4.01-.748l-.887-.891 3.204-.586.944.885-3.261.592zm4.013-.73l-.938-.883 3.178-.57 1.002.878c-1.099.193-2.177.385-3.234.576h-.008zm4.009-.714l-.995-.877c1.038-.182 2.088-.364 3.15-.547l1.06.868-3.215.556zm4.017-.694l-1.06-.876 3.125-.547 1.117.876-3.182.547zm4.732-.808l-.724.122-1.118-.862 1.67-.285c.423-.07.904-.153 1.422-.246l1.163.848c-.916.159-1.733.303-2.413.417v.006zm3.574-.631l-.313.057-1.161-.848 1.293-.232 1.73-.31 1.216.839-2.765.494zm3.64-.649l-1.215-.839c.95-.173 1.952-.355 2.998-.538l1.275.835c-1.06.188-2.082.365-3.057.537v.005zm3.98-.682l-1.279-.837c.966-.164 1.965-.33 2.989-.496l1.343.835c-1.047.162-2.068.326-3.06.493l.007.005zm4.014-.647l-1.348-.839c.98-.157 1.979-.31 2.994-.461l1.42.84c-1.04.146-2.065.298-3.073.454l.007.006zm4.082-.604l-1.425-.844c.995-.146 2.004-.284 3.019-.42l1.505.854c-1.043.127-2.079.261-3.106.405l.007.005zm4.184-.547l-1.518-.858c1.02-.13 2.046-.25 3.075-.365l1.608.868c-1.058.11-2.116.227-3.172.354l.007.001zm4.341-.466l-1.628-.88c.25-.028.501-.054.75-.077.811-.08 1.611-.156 2.401-.227l1.722.892c-1.07.086-2.157.183-3.26.29l.015.002zm4.987-.436l-.678.05-1.525-.912 1.138-.09.837-.064H91.901l.723-.052.825.984-.275.018-1.275.066zm2.286-.159l-.826-.986 1.316-.084.623 1.003-1.113.067zm1.79-.104l-.625-1.006c.53-.03 1.053-.057 1.572-.08l.449 1.017c-.462.027-.927.05-1.397.075v-.006zm2.045-.098l-.449-1.02c.588-.025 1.169-.048 1.744-.067l.298 1.029-1.593.063V9.85zm2.243-.078l-.3-1.02c.624-.018 1.241-.032 1.85-.043l.17 1.035c-.568.004-1.14.017-1.72.033v-.005zm2.39-.048l-.325-1.97c.567.3 1.127.605 1.677.924h.018l1.742 1.046c-1.013-.008-2.05-.007-3.113.006v-.006zM137.323 22.425l1.212-.065.01.02 1.448-.079c-6.204-8.35-18.11-11.433-32.642-11.772 8.728 6.212 11.911 12.883 11.911 12.883l18.065-.968s.001-.019-.004-.019zM121.731 12.29l-1.279.708c-.928-.21-1.903-.4-2.924-.57l1.128-.76c1.02.168 2.048.376 3.075.622zm-3.956-.776l-1.14.774c-.876-.13-1.785-.242-2.727-.337l1.004-.819c.933.103 1.892.228 2.865.382h-.002zm-9.51-.664l1.825-.064.438.018-.881.852-1.382-.806zm1.959 1.15l1.197-1.154c.838.048 1.71.111 2.608.195l-1.01.828c-.4-.035-.804-.066-1.214-.093.219.144.457.314.714.501l-.86.7c-.62-.452-1.117-.778-1.433-.977h-.002zm1.95 1.37l.857-.7c.429.331.894.71 1.376 1.132l-.927.63c-.462-.393-.901-.758-1.305-1.062h-.001zm3.391 3.039l-.445-.452c-.394-.394-.78-.759-1.16-1.094l.929-.642c.405.365.82.755 1.24 1.167l.449.45c.362.365.724.757 1.085 1.154l-1.11.487c-.331-.374-.66-.735-.988-1.07zm2.572 3.1l-.38-.519c-.261-.347-.527-.683-.796-1.008l1.122-.49c.306.364.606.73.904 1.094l.393.514c.239.324.472.65.693.983l-1.326.308c-.205-.316-.405-.611-.61-.897v.014zm1.948 3.225c-.083-.165-.166-.327-.251-.49l-.326-.592c-.135-.243-.274-.478-.418-.705l1.332-.31c.17.272.33.547.484.818l.313.595c.102.202.198.403.288.605l-1.422.079zm1.254-9.514l1.266-.7c1.056.273 2.113.585 3.156.944l-1.394.61c-.94-.313-1.95-.602-3.028-.869v.015zm3.892 1.141l1.37-.6c1.034.383 2.054.812 3.047 1.293l-1.447.476c-.891-.414-1.884-.808-2.97-1.183v.014zm3.799 1.545l1.4-.463c.768.397 1.52.827 2.248 1.296.161.102.315.206.467.308l-1.404.326c-.878-.543-1.785-1.038-2.717-1.482l.006.015zm3.436 1.934l1.357-.337c.766.56 1.494 1.168 2.181 1.823l-1.31.182c-.708-.605-1.453-1.167-2.23-1.683l.002.015zm2.846 2.215l1.266-.182c.588.572 1.14 1.18 1.651 1.823l-1.326.082c-.48-.619-1.013-1.195-1.591-1.723z"/>
    </g>
</svg>
