<svg xmlns="http://www.w3.org/2000/svg" width="80" height="67" viewBox="0 0 80 67">
    <g fill="none">
        <path fill="#455A64" d="M59.244 28.788L31.909 56.261c-.347.35-.818.546-1.31.546-.491 0-.963-.197-1.31-.546l-3.722-3.74 28.649-28.79-4.645-4.668-28.65 28.789L7.906 34.774c-.723-.728-.723-1.906 0-2.634L35.243 4.669 30.598 0 1.952 28.788l-.047.049C.685 30.062 0 31.724 0 33.457c0 1.734.685 3.396 1.905 4.621l.047.048L16.275 52.52l4.645 4.669 5.033 5.057.048.049c2.539 2.551 6.655 2.551 9.194 0L63.89 33.457l-4.645-4.669z"/>
        <path fill="#00B8D4" d="M54.048 4.753L54 4.705c-2.54-2.551-6.656-2.551-9.195 0l-.048.048-28.646 28.79 4.646 4.668 27.335-27.473c.724-.726 1.897-.726 2.62 0l21.381 21.488c.723.727.723 1.906 0 2.633L44.757 62.331 49.402 67l28.646-28.789.048-.048c2.539-2.552 2.539-6.689 0-9.24L54.048 4.752z"/>
    </g>
</svg>
