<svg xmlns="http://www.w3.org/2000/svg" width="316" height="63" viewBox="0 0 316 63">
    <path fill="#3581D7" d="M17.21 2.86c2.097 0 3.282 3.007 3.556 9.023l-.274 1.64v2.188l-.547 9.844h-.547c0-14.037-.638-21.055-1.914-21.055l-.82-.82v-.274l.547-.547zm-3.28 3.828h.82c1.094.747 1.64 1.84 1.64 3.28v5.47l-.273 3.007.274 1.367-.274.274h-.273c-.547-.857-.912-3.044-1.094-6.563l-6.29 1.641c-.728-.273-1.093-.547-1.093-.82v-.274c0-.492 2.188-1.039 6.563-1.64h.82v-1.367c0-1.769-.456-3.045-1.367-3.829l.547-.546zm-8.477.546c.73.183 1.094.547 1.094 1.094 0 1.203-.365 2.753-1.094 4.649l4.649 6.015-.274.274h-.82c-.82-.274-2.279-1.732-4.375-4.375-.584 2.132-1.95 4.229-4.102 6.289H.258v-.82c3.099-5.725 4.648-9.735 4.648-12.032l-.273-.82.82-.274zM37.02.672c2.552 0 3.828 1.823 3.828 5.469l.274 1.914h2.187c1.404 0 2.224.364 2.461 1.093l-.273.274v.273l-.82-.273c-2.553.127-3.829.492-3.829 1.094v4.648l-.273 4.102.82.82v1.64c0 1.823-1.458 3.282-4.375 4.376-1.804 0-3.445-1.459-4.922-4.375v-3.008c1.276-1.094 2.644-1.64 4.102-1.64 1.221 0 2.315.364 3.281 1.093h.274c0-10.39-.456-15.586-1.368-15.586-.747-.255-1.294-.711-1.64-1.367l.273-.274V.672zM32.645 5.32l1.094 1.094-2.187 3.281 4.921 2.461v.82H35.38l-4.922-1.914c-.401 0-1.677 1.094-3.828 3.282l-1.368.82h-.273v-.547C29.73 9.86 32.1 6.76 32.1 5.32h.546zm.82 15.313c.548 2.005 1.459 3.372 2.735 4.101h1.367c2.005-1.294 3.008-2.57 3.008-3.828-1.04-1.64-2.589-2.46-4.648-2.46-1.641.492-2.461 1.22-2.461 2.187zM65.198 3.406c1.64 0 2.46 2.37 2.46 7.11v1.914l.274 1.093-.273.274.273 1.367-.547 8.75h-.547C66.291 12.411 65.561 5.667 64.65 3.68l.273-.274h.274zM56.72 8.602c1.677 0 3.045.911 4.102 2.734 0 1.932-1.185 4.029-3.555 6.289l-1.094.273c-2.005-.255-3.007-1.44-3.007-3.554V12.43c.2-2.552 1.385-3.828 3.554-3.828zm-1.914 3.828v2.187c.11 1.094.383 1.64.82 1.64h.82c2.006-1.53 3.009-2.898 3.009-4.1v-.548c-.474-.911-1.203-1.367-2.188-1.367-1.64 0-2.46.73-2.46 2.188zM83.42 1.766h.547c1.823 0 2.735 1.55 2.735 4.648v4.102l-.274 4.101h1.094c2.917.128 4.375.492 4.375 1.094l-.547.82-3.281-.273h-1.094l-.547.547v9.57h-.547v-.273c-.547-3.373-.82-6.654-.82-9.844l-.547-.547v-.274l.547-.82v-4.101l.273-.274-.273-.273.273-1.914c0-3.026-.638-4.94-1.914-5.742v-.547zm-8.476 3.28c3.646 1.368 5.469 2.553 5.469 3.556-.183.729-.547 1.093-1.094 1.093l.82 1.094c-3.044 1.185-4.867 2.461-5.469 3.828v.547l.547.547c4.193-1.823 7.018-2.734 8.477-2.734h.82v.546c0 .51-1.823 1.24-5.469 2.188 0 .547-1.276 1.003-3.828 1.367-1.64-.273-2.46-.82-2.46-1.64l2.187-3.829c-1.276 0-1.914-.273-1.914-.82 0-.42 1.185-.693 3.554-.82l2.461-1.094v-.273l-4.648-3.008V5.32l.273-.273h.274zm30.72-1.093c.546.182.82.73.82 1.64v3.009l.273 1.367 4.375-2.188c1.094.11 1.64.383 1.64.82 0 .547-.364.82-1.093.82l-.274-.273h-.273c-2.516 1.641-4.065 2.461-4.648 2.461-.912 0-1.368-1.276-1.368-3.828V4.5l.547-.547zm9.57 8.477l.546.82v.273l-.546.547-1.368-.273c-5.104.42-7.656 1.695-7.656 3.828l-.273 1.914c0 1.422 1.185 2.425 3.554 3.008l.274-.274h3.281l1.64-.82.274.274c-.492 1.203-1.039 1.932-1.64 2.187h-3.555c-3.464-.602-5.195-1.969-5.195-4.102v-1.367l.273-2.734-7.383 1.914h-.547l-.547-.547v-.273c0-.966 6.29-2.425 18.868-4.375zm27.642-9.297c.364 0 .729.547 1.094 1.64l-.82 2.188c2.187.656 3.28 1.203 3.28 1.64l-.546.547-2.461-.273h-.274l.274 1.367v.547l-.82 2.734 5.468-.546 2.188.273h1.64c.365 0 .638.547.82 1.64l-.273.274h-.82l-.82-.547h-1.094c-4.649 0-9.935.547-15.86 1.64-.729-.273-1.093-.546-1.093-.82 0-.656 2.825-1.294 8.476-1.914l.82-3.28-.273-1.368.273-.273h-.273l-3.281 3.28h-.274l-.547-.546 4.922-6.836h-.547v-.273c-1.877.364-3.609 1.093-5.195 2.187h-.547l-.547-.547c2.079-1.823 4.448-2.734 7.11-2.734zm2.46 15.312c1.641.857 2.462 2.133 2.462 3.828-1.222 3.1-2.862 4.649-4.922 4.649-1.64 0-2.917-1.185-3.828-3.555.255-2.37.71-3.555 1.367-3.555l.82.274c.839-1.094 2.206-1.64 4.102-1.64zm-4.374 4.102v.547c0 1.403.638 2.224 1.914 2.46 1.86 0 3.135-1.184 3.828-3.554-.274-1.458-1.003-2.188-2.188-2.188-2.37 1.167-3.554 2.079-3.554 2.735zM171.9 3.407c1.64 0 2.46 2.369 2.46 7.109v1.914l.274 1.093-.273.274.273 1.367-.547 8.75h-.546c-.547-11.503-1.276-18.247-2.188-20.234l.274-.274h.273zm-8.477 5.195c1.678 0 3.045.911 4.102 2.734 0 1.932-1.185 4.029-3.555 6.289l-1.093.273c-2.006-.255-3.008-1.44-3.008-3.554V12.43c.2-2.552 1.385-3.828 3.554-3.828zm-1.914 3.828v2.187c.11 1.094.383 1.64.82 1.64h.821c2.005-1.53 3.008-2.898 3.008-4.1v-.548c-.474-.911-1.203-1.367-2.188-1.367-1.64 0-2.46.73-2.46 2.188zm31.95-10.39c2.37.236 3.555.6 3.555 1.093v.273c0 .492-.456 1.404-1.367 2.735 0 .765-.73 1.221-2.188 1.367 0 .291-.911.565-2.734.82l-.547 1.64.274.274h.273l4.922-2.187.273.273.547-.547.82 1.094c-1.057 1.477-1.877 2.297-2.46 2.46h-.274v-.273l.547-.82V9.97c-1.896 1.094-3.354 1.64-4.375 1.64-1.458-.182-2.187-.82-2.187-1.914l.273-1.093v-.274c-1.094 0-1.64-.182-1.64-.547v-.547l.273-.273v-.274l1.367.274h.273c.256-.365 1.714-.638 4.375-.82l2.188-2.461v-.274h-.274L189.631 4.5h-.273l-.547-.547V3.68l4.648-1.64zm7.93 9.843l.82 1.094-.546.546-2.461-.273-17.227 2.734c-2.188-.237-3.281-.601-3.281-1.093v-.547l.273-.274v-.273l3.008.547.273-.274h.274l.273.274c6.763-.766 10.956-1.404 12.578-1.914l.274.273c2.224-.547 4.138-.82 5.742-.82zm-6.836 4.375h1.094l1.367 1.094c-.583 1.039-1.221 1.768-1.914 2.187l.273.273v.547c0 .547-1.093 1.003-3.28 1.368l-.548 1.093c.456 1.459 1.003 2.188 1.64 2.188l4.65-2.461.546.82v.274c0 .492-1.64 1.403-4.922 2.734h-1.093c-1.641-1.276-2.461-2.643-2.461-4.102-.912 0-1.367-.182-1.367-.546v-.547c0-.31 1.458-.857 4.375-1.64l1.914-1.915h-.274l-6.562 1.094h-.547l-.82-.82.82-.82.273.273h.274l6.562-1.094zM17.02 38.039h.546c2.188 0 3.282 2.096 3.282 6.29l-.274 8.75-.547 1.64v7.11h-.547l-.546-7.93v-.82l.273-7.93c0-3.154-.73-5.342-2.187-6.563v-.547zm-2.188 2.734h.547c.911.401 1.367 1.404 1.367 3.008h-.273l.273.274-.273 1.367v.82l.273 1.914h-.273l.273.274v2.734l-.273 1.914h-.547v-.547l.273-.273c-.31-1.823-.583-2.735-.82-2.735-1.13.73-3.409 1.368-6.836 1.914-.802 1.277-1.714 1.915-2.734 1.915h-.82C3.528 52.604 2.8 51.237 2.8 49.25v-1.094c.364-2.005 1.276-3.008 2.734-3.008h.547c.948 0 1.768.274 2.461.82.93-.728 3.208-1.366 6.836-1.913l-.547-3.282zM9.91 47.336v2.187l5.742-1.093-.547-3.008c-1.385.219-3.117.857-5.195 1.914zm-5.469 1.367v1.367c0 .985.456 1.714 1.368 2.188 2.005-1.203 3.007-2.48 3.007-3.828v-.274c-.51-1.094-1.421-1.64-2.734-1.64-1.094.382-1.64 1.112-1.64 2.187zM37.54 36.125c.729.273 1.094.547 1.094.82v.274l-.547 3.008c2.643 1.057 4.192 1.877 4.648 2.46l-.547.547c-1.13 0-2.77-.638-4.922-1.914l-3.554 5.196h.273c4.084-1.094 7.365-1.641 9.844-1.641h.547c.984 0 1.622.365 1.914 1.094v.273l-.82.82h-.547c-.365 0-.547-.273-.547-.82l-.274-.273h-.273c-3.281.237-4.922.601-4.922 1.093v2.461l.273.274v.273l.274-.273h2.734c.365 0 .547.273.547.82 0 .584-.364 1.404-1.094 2.461l.547.82v.274c0 .82-2.096 1.55-6.289 2.187v.274c1.258 2.734 2.534 4.101 3.828 4.101h.274c.601 0 1.786-.729 3.554-2.187h.547v.273c-1.185 2.37-2.734 3.555-4.648 3.555-1.458-.11-3.555-2.388-6.29-6.836l.821-.82 1.64.273c2.9-.729 4.722-1.914 5.47-3.554v-.274h-.274l-7.93 2.461-.546-.82v-.274c0-.364 1.367-.911 4.101-1.64l1.094-.547v-.547c-.11-1.64-.292-2.461-.547-2.461-3.865.838-7.055 1.75-9.57 2.734l-.547-.82v-.273c.328-.474 1.877-1.112 4.648-1.914 3.573-4.521 5.487-7.711 5.742-9.57l-.273-1.095.273-.273h.274zm27.657 3.281c1.64 0 2.46 2.37 2.46 7.11v1.914l.274 1.093-.273.274.273 1.367-.547 8.75h-.547c-.546-11.503-1.276-18.247-2.187-20.234l.273-.274h.274zm-8.477 5.196c1.677 0 3.045.911 4.102 2.734 0 1.932-1.185 4.029-3.555 6.289l-1.094.273c-2.005-.255-3.007-1.44-3.007-3.554V48.43c.2-2.552 1.385-3.828 3.554-3.828zm-1.914 3.828v2.187c.11 1.094.383 1.64.82 1.64h.82c2.006-1.53 3.009-2.898 3.009-4.1v-.548c-.474-.911-1.203-1.367-2.188-1.367-1.64 0-2.46.73-2.46 2.188zM83.42 37.766h.547c1.823 0 2.735 1.55 2.735 4.648v4.102l-.274 4.101h1.094c2.917.128 4.375.492 4.375 1.094l-.547.82-3.281-.273h-1.094l-.547.547v9.57h-.547v-.273c-.547-3.373-.82-6.654-.82-9.844l-.547-.547v-.273l.547-.82v-4.102l.273-.274-.273-.273.273-1.914c0-3.026-.638-4.94-1.914-5.742v-.547zm-8.476 3.28c3.646 1.368 5.469 2.553 5.469 3.556-.183.729-.547 1.093-1.094 1.093l.82 1.094c-3.044 1.185-4.867 2.461-5.469 3.828v.547l.547.547c4.193-1.823 7.018-2.734 8.477-2.734h.82v.546c0 .51-1.823 1.24-5.469 2.188 0 .547-1.276 1.003-3.828 1.367-1.64-.273-2.46-.82-2.46-1.64l2.187-3.829c-1.276 0-1.914-.273-1.914-.82 0-.42 1.185-.693 3.554-.82l2.461-1.094v-.273l-4.648-3.008v-.274l.273-.273h.274zm30.72-1.093c.546.182.82.73.82 1.64v3.009l.273 1.367 4.375-2.188c1.094.11 1.64.383 1.64.82 0 .547-.364.82-1.093.82l-.274-.273h-.273c-2.516 1.641-4.065 2.461-4.648 2.461-.912 0-1.368-1.276-1.368-3.828V40.5l.547-.547zm9.57 8.477l.546.82v.273l-.546.547-1.368-.273c-5.104.42-7.656 1.695-7.656 3.828l-.273 1.914c0 1.422 1.185 2.425 3.554 3.008l.274-.274h3.281l1.64-.82.274.274c-.492 1.203-1.039 1.932-1.64 2.187h-3.555c-3.464-.602-5.195-1.969-5.195-4.102v-1.367l.273-2.734-7.383 1.914h-.547l-.547-.547v-.273c0-.966 6.29-2.425 18.868-4.375zm32.7-12.852c2.006 1.677 3.008 3.409 3.008 5.195v3.829l-.273.273.273.273-.547 6.563.82.82v3.008l-.273.273.274.274v1.094l-.274.273.274.274v.82l-.274.273.274.274-.547 3.554h-.547l-.547-9.023-.273-.273h-1.094c-1.13 0-3.318.546-6.563 1.64-.911-.237-1.367-.51-1.367-.82v-.274c0-.455 2.37-1.093 7.11-1.914h1.64l.547-.547v-6.015c-.492.456-1.586.729-3.281.82v.274l-.274 3.554h-.547c-.364-1.622-.546-3.81-.546-6.562v-1.914l-1.368-1.367c0-.365.274-.547.82-.547 1.277.528 1.915 1.349 1.915 2.46v2.462l3.281.273V41.32c0-.692-.73-2.515-2.188-5.468l.274-.274h.273zm-8.203 7.11l.82.82v.547l-1.64 2.187c2.917 1.732 4.375 3.1 4.375 4.102l-.274.273h-.273c-2.224-1.823-3.865-2.734-4.922-2.734h-.273c-1.987 2.351-3.172 3.536-3.555 3.554h-.273v-.546c3.463-4.23 5.195-6.964 5.195-8.203h.82zm29.872-4.922c1.823.2 2.734 1.932 2.734 5.195v.82c0 3.373-.455 7.93-1.367 13.672h-.547v-.273l.274-8.477c-2.26.912-4.813 1.367-7.656 1.367l-.547-.547h-.547c-.656 2.37-1.75 3.555-3.281 3.555-1.641-.729-2.461-2.552-2.461-5.469h-.274c0 .547-.182.82-.547.82l-.547-1.367c0-2.388 1.094-3.755 3.282-4.101h.547c2.132 0 3.408 1.64 3.828 4.922v.82l4.922-.547 3.007.274.547-1.914-.273-1.368-6.016 1.094-1.094-.82v-.547l.547-.547 6.563-.547v-1.093c0-1.477-.638-2.935-1.914-4.376 0-.364.273-.546.82-.546zm-11.758 7.109v3.281l-.273.274c.328 2.187.784 3.28 1.367 3.28 1.64-1.33 2.461-2.606 2.461-3.827-.474-2.37-1.477-3.555-3.008-3.555l-.547.547zm4.649 8.75c.911 0 1.367 1.185 1.367 3.555.838 1.494 1.659 2.497 2.46 3.008h1.368l4.102-1.368h1.093l.274.82c-3.172 1.459-5.177 2.188-6.016 2.188-3.646-1.039-5.469-3.682-5.469-7.93l.82-.273zm31.239-17.5h.547c1.093.583 1.64 1.586 1.64 3.008v4.648l-.273 2.188.273 2.187v1.094l-.273 1.094.273.82-1.914 3.008.82.82c0 .73-1.458 1.185-4.374 1.367v.274c0 1.64 1.184 2.46 3.554 2.46l4.649-3.554h.273v1.64c-1.823 2.553-3.646 3.829-5.469 3.829-3.463-1.021-5.195-2.48-5.195-4.375h-1.64l-1.094-1.094c0-.547 1.823-.911 5.468-1.094 1.641-1.33 2.553-2.333 2.735-3.008h-1.64l-5.743 1.368c-.747-.256-1.294-.711-1.64-1.367v-.547l7.93-1.094h1.093l.273.273h.274v-1.914l-1.094-.82c-2.88 0-4.977.547-6.29 1.64l-1.366.274c-3.464-.656-5.196-1.294-5.196-1.914v-.273l.547-.547 2.735.273 1.093-.82c0-2.005-.638-3.008-1.914-3.008 0-.365-.273-.547-.82-.547l-.273-.273v-.274l.546-.547 1.368.274 9.023-1.367.547.82c0 .437-.82.71-2.461.82-.365.62-.638 1.987-.82 4.102h4.101l.274-6.563c0-.966-.365-1.786-1.094-2.46v-.274l.547-.547zm-7.383 7.11v2.734h1.094c.4 0 .765-.73 1.094-2.188l-.274-1.093-1.914.546zm24.376-4.102h3.008c1.458.547 2.187 1.458 2.187 2.734l-.547 1.367.274 1.368c-1.331.875-3.063 1.604-5.196 2.187l-.273 1.367v.274h1.094c1.203 0 3.117-.456 5.742-1.367l.547.82c0 .437-1.003.984-3.008 1.64 0 1.678-.638 3.865-1.914 6.563l.82-.273 6.563-.274c.838.346 1.294.711 1.367 1.094v.273l-.547.547c-1.276-.127-1.914-.31-1.914-.547l-12.578.82-.547-.82c0-.437 1.732-.802 5.195-1.093.584 0 1.222-1.915 1.914-5.743l-.273-.273-.274.273h-.82c-1.404 0-2.315-.455-2.734-1.367v-1.64l.273-.274v-.273c-1.276-.329-1.914-.693-1.914-1.094l.547-.547h3.555c1.586 0 2.77-1.185 3.554-3.555-.109-.547-.838-.82-2.187-.82H211l-.821-.82.547-.547zm41.396-2.188h.273c1.64.602 2.461 1.942 2.461 4.02-.182 3.81-.455 6.334-.82 7.574l.273.246c0 2.279-.638 3.965-1.914 5.059v.492c.547 0 .82.164.82.492v.274c0 .492-1.002.738-3.007.738-2.005.784-3.008 1.294-3.008 1.531.693 2.352 1.786 3.527 3.281 3.527h1.094c.693 0 1.695-.419 3.008-1.257l.82.738v.52c-1.64 1.002-2.917 1.503-3.828 1.503h-1.094c-2.187 0-3.919-1.85-5.195-5.55l-.274-.247v-.246c0-.31 2.006-1.066 6.016-2.27l1.094-2.515h-.274c-.82 0-2.916.666-6.289 1.996h-.273c-.948 0-1.495-.246-1.64-.738.109-.401 1.75-.993 4.921-1.777 0-.365 1.185-.702 3.555-1.012l1.094.52V40.227c0-.657-.547-1.495-1.641-2.516v-.273l.547-.493zm-9.57 3.035l5.468.247v.738l-4.375.52c-1.093-.165-1.64-.42-1.64-.766v-.246l.547-.493zm4.101 3.008l.82 1.012v.52l-.546 1.503c.601 0 2.15 1.003 4.648 3.008l-.273.274h-.547l-4.649-1.778-4.648 4.54-.547-.493c2.516-2.898 4.338-5.34 5.469-7.328h-.274c-1.75 0-3.208.757-4.375 2.27-1.276-.292-1.914-.63-1.914-1.012 2.37-1.677 4.649-2.516 6.836-2.516zm30.2-6.316c2.188.492 3.281 2.68 3.281 6.562.183 1.823.456 2.735.82 2.735h.274l4.649-.274.273.274v.273c-1.531 1.076-3.354 1.714-5.469 1.914l.274 1.914v9.024l-.82 2.734h-.548c0-13.562-1.002-21.4-3.007-23.516l-.547-.546v-.274l.82-.82zm-5.469 4.648h1.914l.547.547v.274l-6.015 1.64h-2.461l-1.094-1.093v-.274l.547-.547h.82l1.094.274 4.648-.82zm1.914 3.008l1.094 1.094c-3.099 1.276-5.013 1.914-5.742 1.914h-1.094c-1.075 0-1.987-.547-2.734-1.64v-.274l.547-.547h.547l.82.547h1.094l5.468-1.094zm-1.64 3.828h.82c2.005.474 3.008 1.203 3.008 2.188 0 1.276-1.914 2.46-5.742 3.554-2.552 0-3.828-1.276-3.828-3.828v-.273c.364-.73.911-1.094 1.64-1.094l1.367.274c.93-.547 1.842-.82 2.735-.82zm-3.008 3.555l1.367.547c2.224-.802 3.409-1.531 3.555-2.188l-1.914-.547c-1.222.31-2.224 1.04-3.008 2.188zm26.345-11.758c.546.182.82.73.82 1.64v3.009l.273 1.367 4.375-2.188c1.094.11 1.64.383 1.64.82 0 .547-.364.82-1.093.82l-.273-.273h-.274c-2.515 1.641-4.065 2.461-4.648 2.461-.912 0-1.367-1.276-1.367-3.828V40.5l.547-.547zm9.57 8.477l.547.82v.273l-.547.547-1.367-.273c-5.105.42-7.657 1.695-7.657 3.828l-.273 1.914c0 1.422 1.185 2.425 3.555 3.008l.273-.274h3.281l1.641-.82.273.274c-.492 1.203-1.039 1.932-1.64 2.187h-3.555c-3.463-.602-5.195-1.969-5.195-4.102v-1.367l.273-2.734-7.383 1.914h-.546l-.547-.547v-.273c0-.966 6.289-2.425 18.867-4.375zm8.653 6.562h.82l1.094 1.094v.273c-.73 1.094-1.458 1.641-2.187 1.641-.73-.273-1.094-.547-1.094-.82v-.82l1.367-1.368z"/>
</svg>
