<svg xmlns="http://www.w3.org/2000/svg" width="509" height="274" viewBox="0 0 509 274">
    <g fill="none">
        <path fill="#3F3D56" d="M110 274h-1.146c0-29.743-24.111-53.854-53.854-53.854S1.146 244.257 1.146 274H0c0-30.376 24.624-55 55-55s55 24.624 55 55zM509 274h-1.146c0-29.743-24.111-53.854-53.854-53.854S400.146 244.257 400.146 274H399c0-30.376 24.624-55 55-55s55 24.624 55 55zM375 142h-1.15c0-54.506-44.344-98.85-98.85-98.85-54.506 0-98.85 44.344-98.85 98.85H175c0-55.14 44.86-100 100-100s100 44.86 100 100z"/>
        <circle cx="83.5" cy="22.5" r="22.5" fill="#FF6584"/>
        <path fill="#3F3D56" d="M88 178.386L126.872 132 203.296 132 250 177.582 249.057 178.19 249.393 178.19 249.393 273 88.053 273 88.053 178.19z"/>
        <path fill="#3F3D56" d="M112 128H121V159H112z" transform="rotate(-180 116.5 143.5)"/>
        <path fill="#3581D7" d="M126.155 132L174 188.446 174 274 88 274 88 177.708z"/>
        <path fill="#3F3D56" d="M146 199H164V217H146zM146 224H164V242H146z"/>
        <path fill="#FFF" d="M146 199H164V217H146zM146 224H164V242H146z"/>
        <path fill="#3F3D56" d="M121 199H139V217H121zM121 224H139V242H121z"/>
        <path fill="#FFF" d="M121 199H139V217H121zM121 224H139V242H121z"/>
        <path fill="#3F3D56" d="M97 199H115V217H97zM97 224H115V242H97z"/>
        <path fill="#FFF" d="M97 199H115V217H97zM97 224H115V242H97z"/>
        <path fill="#3581D7" d="M278 23H286V43H278z"/>
        <path fill="#3581D7" d="M218 41H286V274H218z"/>
        <path fill="#3F3D56" d="M285 41H313V274H285z"/>
        <path fill="#FFF" d="M230 62H240V72H230zM247 62H257V72H247zM263 62H273V72H263zM230 85H240V95H230zM247 85H257V95H247zM263 85H273V95H263zM230 109H240V119H230zM247 109H257V119H247zM264 109H274V119H264zM231 132H241V142H231zM247 132H257V142H247zM264 132H274V142H264zM231 156H241V166H231zM248 156H258V166H248zM264 156H274V166H264zM231 179H241V189H231zM248 179H258V189H248zM265 179H275V189H265zM232 203H242V213H232zM248 203H258V213H248zM265 203H275V213H265zM232 226H242V236H232zM249 226H259V236H249zM249 254H259V274H249zM265 226H275V236H265z"/>
        <path fill="#3F3D56" d="M285 23H290V43H285z"/>
        <path fill="#3581D7" d="M364 125H372V137H364z"/>
        <path fill="#3581D7" d="M304 136H372V274H304z"/>
        <path fill="#3F3D56" d="M372 136H400V274H372z"/>
        <path fill="#FFF" d="M317 156H327V166H317zM334 156H344V166H334zM350 156H360V166H350zM317 179H327V189H317zM334 179H344V189H334zM351 179H361V189H351zM318 203H328V213H318zM334 203H344V213H334zM351 203H361V213H351zM318 226H328V236H318zM335 226H345V236H335zM335 254H345V274H335zM351 226H361V236H351z"/>
        <path fill="#3F3D56" d="M372 125H377V137H372zM0 273H509V274H0z"/>
        <circle cx="420" cy="232" r="15" fill="#3581D7"/>
        <path fill="#222" d="M431.172 222c2.91 6.765.458 14.63-5.792 18.574-6.25 3.944-14.455 2.807-19.38-2.686 2.352 5.468 7.73 9.041 13.715 9.111 5.984.07 11.446-3.378 13.926-8.79 2.48-5.412 1.512-11.769-2.47-16.209z" opacity=".2"/>
        <path fill="#3F3D56" d="M420 232L420.053 232 421 274 419 274z"/>
        <path fill="#3F3D56" d="M421.295 253.98L422.034 253.98 422.035 256.772 421.296 256.771z" transform="rotate(62.234 421.665 255.376)"/>
        <circle cx="464.5" cy="209.5" r="22.5" fill="#3581D7"/>
        <path fill="#222" d="M481.192 195c4.416 10.283.695 22.236-8.787 28.232-9.483 5.996-21.933 4.268-29.405-4.083 3.569 8.312 11.73 13.744 20.81 13.85 9.079.105 17.365-5.134 21.128-13.36 3.763-8.227 2.294-17.89-3.746-24.639z" opacity=".2"/>
        <path fill="#3F3D56" d="M464 210L464.053 210 465 274 463 274z"/>
        <path fill="#3F3D56" d="M465.728 243.373L466.852 243.374 466.853 247.618 465.729 247.618z" transform="rotate(62.234 466.29 245.496)"/>
        <circle cx="15" cy="231" r="15" fill="#3581D7"/>
        <path fill="#222" d="M26.172 221c2.91 6.765.458 14.63-5.792 18.574-6.25 3.944-14.455 2.807-19.38-2.686 2.352 5.468 7.73 9.041 13.715 9.111 5.984.07 11.446-3.378 13.926-8.79 2.48-5.412 1.512-11.769-2.47-16.209z" opacity=".2"/>
        <path fill="#3F3D56" d="M15 232L15.053 232 16 274 14 274z"/>
        <path fill="#3F3D56" d="M16.278 253.406L17.018 253.406 17.018 256.198 16.279 256.197z" transform="rotate(62.234 16.648 254.802)"/>
        <path fill="#3F3D56" d="M347.788 21.357L353 17.06c-4.049-.46-5.713 1.816-6.393 3.617-3.164-1.354-6.607.42-6.607.42L350.428 25c-.526-1.448-1.442-2.712-2.64-3.643zM82.788 42.357L88 38.06c-4.049-.46-5.713 1.816-6.393 3.617-3.164-1.354-6.607.42-6.607.42L85.428 46c-.526-1.448-1.442-2.712-2.64-3.643zM427.788 64.357L433 60.06c-4.049-.46-5.713 1.816-6.393 3.617-3.164-1.354-6.607.42-6.607.42L430.428 68c-.526-1.448-1.442-2.712-2.64-3.643zM126.788 31.357L132 27.06c-4.049-.46-5.713 1.816-6.393 3.617-3.164-1.354-6.607.42-6.607.42L129.428 35c-.526-1.448-1.442-2.712-2.64-3.643zM135.788 77.357L141 73.06c-4.049-.46-5.713 1.816-6.393 3.617-3.164-1.354-6.607.42-6.607.42L138.428 81c-.526-1.448-1.442-2.712-2.64-3.643zM341.788 101.357L347 97.06c-4.049-.46-5.713 1.816-6.393 3.617-3.164-1.354-6.607.42-6.607.42L344.428 105c-.526-1.448-1.442-2.712-2.64-3.643zM61 262L25 262 25 263.143 30.614 263.143 30.614 274 31.776 274 31.776 263.143 53.644 263.143 53.644 274 54.805 274 54.805 263.143 61 263.143zM97.107 266.2c-1.385 0-2.745.387-3.944 1.122-2.487-2.385-6.066-2.991-9.13-1.546-3.064 1.444-5.037 4.668-5.033 8.224h26c-.294-4.393-3.74-7.798-7.893-7.8zM233.107 266.2c-1.385 0-2.745.387-3.944 1.122-2.487-2.385-6.066-2.991-9.13-1.546-3.064 1.444-5.037 4.668-5.033 8.224h26c-.294-4.393-3.74-7.798-7.893-7.8zM322.107 266.2c-1.385 0-2.745.387-3.944 1.122-2.487-2.385-6.066-2.991-9.13-1.546-3.064 1.444-5.037 4.668-5.033 8.224h26c-.294-4.393-3.74-7.798-7.893-7.8zM439.107 266.2c-1.385 0-2.745.387-3.944 1.122-2.487-2.385-6.066-2.991-9.13-1.546-3.064 1.444-5.037 4.668-5.033 8.224h26c-.294-4.393-3.74-7.798-7.893-7.8zM495.107 266.2c-1.385 0-2.745.387-3.944 1.122-2.487-2.385-6.066-2.991-9.13-1.546-3.064 1.444-5.037 4.668-5.033 8.224h26c-.294-4.393-3.74-7.798-7.893-7.8zM74 234L65 234 65 243.154 69.172 243.154 69.172 274 70.297 274 70.297 243.154 74 243.154zM25 258H61V259H25zM25 256H61V257H25zM25 253H61V254H25z"/>
    </g>
</svg>
