<svg xmlns="http://www.w3.org/2000/svg" width="80" height="82" viewBox="0 0 80 82">
    <defs>
        <linearGradient id="prefix__a" x1="0%" x2="100%" y1="50%" y2="50%">
            <stop offset="20%" stop-color="#6799C4"/>
            <stop offset="100%" stop-color="#6799C4"/>
        </linearGradient>
        <linearGradient id="prefix__b" x1="0%" x2="100%" y1="50%" y2="50%">
            <stop offset="20%" stop-color="#6799C4"/>
            <stop offset="100%" stop-color="#6799C4"/>
        </linearGradient>
        <linearGradient id="prefix__c" x1="10.893%" x2="96.132%" y1="61.328%" y2="27.995%">
            <stop offset="0%" stop-color="#6395C2"/>
            <stop offset="54%" stop-color="#8BBDD1"/>
            <stop offset="61%" stop-color="#83B5CE"/>
            <stop offset="85%" stop-color="#6C9EC5"/>
            <stop offset="100%" stop-color="#6395C2"/>
        </linearGradient>
        <linearGradient id="prefix__d" x1="77.388%" x2="31.057%" y1="78.946%" y2="20.641%">
            <stop offset="0%" stop-color="#6395C2"/>
            <stop offset="54%" stop-color="#8BBDD1"/>
        </linearGradient>
        <linearGradient id="prefix__e" x1="50%" x2="50%" y1="100%" y2="0%">
            <stop offset="20%" stop-color="#6799C4"/>
            <stop offset="100%" stop-color="#6799C4"/>
        </linearGradient>
        <linearGradient id="prefix__f" x1="0%" x2="100%" y1="49.977%" y2="49.977%">
            <stop offset="41%" stop-color="#6395C2"/>
            <stop offset="69%" stop-color="#8BBDD1"/>
        </linearGradient>
        <linearGradient id="prefix__g" x1="0%" x2="100%" y1="50%" y2="50%">
            <stop offset="41%" stop-color="#6395C2"/>
            <stop offset="69%" stop-color="#8BBDD1"/>
        </linearGradient>
        <linearGradient id="prefix__h" x1="0%" x2="100.014%" y1="50.021%" y2="50.021%">
            <stop offset="0%" stop-color="#8BBDD1"/>
            <stop offset="100%" stop-color="#6395C2"/>
        </linearGradient>
        <linearGradient id="prefix__i" x1="49.978%" x2="49.978%" y1="100%" y2="0%">
            <stop offset="11%" stop-color="#6395C2"/>
            <stop offset="12%" stop-color="#6597C3"/>
            <stop offset="35%" stop-color="#81B3CD"/>
            <stop offset="48%" stop-color="#8BBDD1"/>
            <stop offset="60%" stop-color="#84B6CE"/>
            <stop offset="77%" stop-color="#72A4C7"/>
            <stop offset="87%" stop-color="#6395C2"/>
        </linearGradient>
        <linearGradient id="prefix__j" x1="-5.711%" x2="28.184%" y1="175.64%" y2="99.2%">
            <stop offset="20%" stop-color="#6799C4"/>
            <stop offset="100%" stop-color="#6799C4"/>
        </linearGradient>
        <linearGradient id="prefix__k" x1="50.02%" x2="50.02%" y1="0%" y2="100%">
            <stop offset="11%" stop-color="#8BBDD1"/>
            <stop offset="33%" stop-color="#84B6CF"/>
            <stop offset="64%" stop-color="#72A4C8"/>
            <stop offset="78%" stop-color="#6799C4"/>
        </linearGradient>
        <linearGradient id="prefix__l" x1="0%" x2="100%" y1="50%" y2="50%">
            <stop offset="26%" stop-color="#8BBDD1"/>
            <stop offset="42%" stop-color="#84B6CF"/>
            <stop offset="65%" stop-color="#72A4C8"/>
            <stop offset="75%" stop-color="#6799C4"/>
        </linearGradient>
        <linearGradient id="prefix__m" x1="100%" x2="0%" y1="50%" y2="50%">
            <stop offset="26%" stop-color="#8BBDD1"/>
            <stop offset="42%" stop-color="#84B6CF"/>
            <stop offset="65%" stop-color="#72A4C8"/>
            <stop offset="75%" stop-color="#6799C4"/>
        </linearGradient>
        <linearGradient id="prefix__n" x1="50%" x2="50%" y1="0%" y2="99.984%">
            <stop offset="36%" stop-color="#8BBDD1"/>
            <stop offset="52%" stop-color="#84B6CF"/>
            <stop offset="75%" stop-color="#72A4C8"/>
            <stop offset="85%" stop-color="#6799C4"/>
        </linearGradient>
        <linearGradient id="prefix__o" x1="100%" x2="0%" y1="50%" y2="50%">
            <stop offset="26%" stop-color="#8BBDD1"/>
            <stop offset="42%" stop-color="#84B6CF"/>
            <stop offset="65%" stop-color="#72A4C8"/>
            <stop offset="75%" stop-color="#6799C4"/>
        </linearGradient>
        <linearGradient id="prefix__p" x1="50%" x2="50%" y1="100%" y2="0%">
            <stop offset="11%" stop-color="#6395C2"/>
            <stop offset="12%" stop-color="#6597C3"/>
            <stop offset="35%" stop-color="#81B3CD"/>
            <stop offset="48%" stop-color="#8BBDD1"/>
            <stop offset="60%" stop-color="#84B6CE"/>
            <stop offset="77%" stop-color="#72A4C7"/>
            <stop offset="87%" stop-color="#6395C2"/>
        </linearGradient>
        <linearGradient id="prefix__q" x1="45.206%" x2="50.324%" y1="90.736%" y2="46.321%">
            <stop offset="20%" stop-color="#6799C4"/>
            <stop offset="48%" stop-color="#8BBDD1"/>
        </linearGradient>
        <linearGradient id="prefix__r" x1="45.002%" x2="51.623%" y1="95.168%" y2="34.992%">
            <stop offset="20%" stop-color="#6799C4"/>
            <stop offset="48%" stop-color="#8BBDD1"/>
        </linearGradient>
    </defs>
    <g fill="none">
        <path fill="#8BBDD1" d="M72.34 81.943V42.44c0-.69.634-1.343.634-1.343h6.867c-.369.336-.58.81-.584 1.308V76.32l-6.917 5.623z"/>
        <path fill="url(#prefix__a)" d="M39.389 58.51L20.129 63.819 21.534 68.841 39.48 65.061z"/>
        <path fill="#8BBDD1" d="M22.635 80.001L15.501 80.001 15.501 68.994 22.496 63.421z"/>
        <path fill="url(#prefix__b)" d="M34.208 49.475L0.433 58.31 0.364 64.96 34.277 56.359z"/>
        <path fill="url(#prefix__c)" d="M0.189 28.661L3.723 34.536 24.292 21.491 16.346 19.093z"/>
        <path fill="url(#prefix__d)" d="M15.365 18.561L29.11 37.121 35.45 34.724 23.868 19.982z"/>
        <path fill="url(#prefix__e)" d="M43.522 18.806L43.612 16.047 36.695 15.993 36.704 18.974z"/>
        <path fill="url(#prefix__f)" d="M29.735 25.178L39.732 24.881 43.516 18.806 36.25 18.842z"/>
        <path fill="url(#prefix__g)" d="M29.555 10.639L39.732 10.471 43.612 16.038 36.141 16.086z"/>
        <path fill="url(#prefix__h)" d="M0.605 4.088L22.782 3.959 22.707 10.612 1.353 10.923z"/>
        <path fill="#8BBDD1" d="M29.356 37.118l6.758-2.483.133-15.793-6.96 4.268s.229 6.018.07 14.008zM36.156 16.211l-6.866-4.384s-.252-9.502 0-10.474c.253-.973.713-1.272.713-1.272l6.695-.075c-.246.661-.425 1.345-.536 2.041-.093.832-.006 14.164-.006 14.164zM22.782 3.959L0 28.284 3.723 34.569 24.869 11.145z"/>
        <path fill="url(#prefix__i)" d="M63.922 24.298L63.922 1.176 70.839 7.877 70.878 17.531z"/>
        <path fill="#8BBDD1" d="M79.257 33.363V2.038c-.021-.537.24-1.047.689-1.347h-6.917s-.701.186-.701 1.347v36.511l6.93-5.186z"/>
        <path fill="url(#prefix__j)" d="M79.257 32.414L72.34 25.531 72.34 33.012 79.257 33.012zM79.257 74.611L72.34 67.728 72.34 75.21 79.257 75.21z" opacity=".5"/>
        <path fill="#8BBDD1" d="M72.436 25.534L44.448 25.534 45.212 32.417 79.239 32.417z"/>
        <path fill="url(#prefix__k)" d="M12.49 56.25l-6.917-6.727v-8.697c0-.466.812-1.23.812-1.23h6.866s-.76.74-.76 1.18V56.25z"/>
        <path fill="#8BBDD1" d="M.364 65.037L.433 58.31 39.389 58.418 39.48 65.037zM12.364 56.359L5.669 49.475 34.208 49.475 34.277 56.359z"/>
        <path fill="url(#prefix__l)" d="M69.185 50.074L45.275 50.074 45.275 43.191 62.677 43.191z"/>
        <path fill="url(#prefix__m)" d="M43.744 67.731L72.629 67.731 79.26 74.614 50.162 74.614z"/>
        <path fill="url(#prefix__n)" d="M62.719 61.958L62.719 43.191 69.335 49.948 69.335 55.123z"/>
        <path fill="url(#prefix__o)" d="M69.335 55.161L50.087 55.161 43.952 62.045 62.677 62.045z"/>
        <path fill="#8BBDD1" d="M50.087 74.5L50.087 55.161 43.471 61.659 43.471 67.617z"/>
        <path fill="url(#prefix__p)" d="M46.177 17.507L46.177 7.901 53.245 1.176 53.233 24.657z"/>
        <path fill="#8BBDD1" d="M70.839 7.877L46.177 7.877 52.905.994 64.205.994zM64.102 24.636L53.137 24.636 46.177 17.507 70.875 17.534z"/>
        <path fill="url(#prefix__q)" d="M79.257 2.038c-.021-.537.24-1.047.689-1.347h-6.917s-.701.186-.701 1.347v23.493l6.917 6.883.012-30.376z"/>
        <path fill="url(#prefix__r)" d="M79.257 42.4c.004-.497.215-.97.584-1.307h-6.867s-.634.652-.634 1.343V67.53l6.917 6.884V42.4z"/>
    </g>
</svg>
