<svg xmlns="http://www.w3.org/2000/svg" width="82" height="84" viewBox="0 0 82 84">
    <g fill="#FFF" stroke="#888" stroke-width=".5">
        <path d="M72.34 81.943V42.44c0-.69.634-1.343.634-1.343h6.867c-.369.336-.58.81-.584 1.308V76.32l-6.917 5.623zM39.389 58.51L20.129 63.819 21.534 68.841 39.48 65.061z" transform="translate(1 1)"/>
        <path d="M22.635 80.001L15.501 80.001 15.501 68.994 22.496 63.421zM.433 58.31L.364 64.96 34.277 56.359 34.208 49.475zM.189 28.661L3.723 34.536 24.292 21.491 16.346 19.093z" transform="translate(1 1)"/>
        <path d="M15.365 18.561L29.11 37.121 35.45 34.724 23.868 19.982zM43.522 18.806L43.612 16.047 36.695 15.993 36.704 18.974z" transform="translate(1 1)"/>
        <path d="M29.735 25.178L39.732 24.881 43.516 18.806 36.25 18.842zM29.555 10.639L39.732 10.471 43.612 16.038 36.141 16.086zM.605 4.088L22.782 3.959 22.707 10.612 1.353 10.923z" transform="translate(1 1)"/>
        <path d="M29.356 37.118l6.758-2.483.133-15.793-6.96 4.268s.229 6.018.07 14.008zM36.156 16.211l-6.866-4.384s-.252-9.502 0-10.474c.253-.973.713-1.272.713-1.272l6.695-.075c-.246.661-.425 1.345-.536 2.041-.093.832-.006 14.164-.006 14.164zM22.782 3.959L0 28.284 3.723 34.569 24.869 11.145zM63.922 24.298L63.922 1.176 70.839 7.877 70.878 17.531zM79.257 33.363V2.038c-.021-.537.24-1.047.689-1.347h-6.917s-.701.186-.701 1.347v36.511l6.93-5.186z" transform="translate(1 1)"/>
        <path d="M79.257 32.414L72.34 25.531 72.34 33.012 79.257 33.012zM79.257 74.611L72.34 67.728 72.34 75.21 79.257 75.21z" opacity=".5" transform="translate(1 1)"/>
        <path d="M72.436 25.534L44.448 25.534 45.212 32.417 79.239 32.417zM12.49 56.25l-6.917-6.727v-8.697c0-.466.812-1.23.812-1.23h6.866s-.76.74-.76 1.18V56.25zM.364 65.037L.433 58.31 39.389 58.418 39.48 65.037z" transform="translate(1 1)"/>
        <path d="M12.364 56.359L5.669 49.475 34.208 49.475 34.277 56.359zM69.185 50.074L45.275 50.074 45.275 43.191 62.677 43.191zM43.744 67.731L72.629 67.731 79.26 74.614 50.162 74.614z" transform="translate(1 1)"/>
        <path d="M62.719 61.958L62.719 43.191 69.335 49.948 69.335 55.123z" transform="translate(1 1)"/>
        <path d="M69.335 55.161L50.087 55.161 43.952 62.045 62.677 62.045z" transform="translate(1 1)"/>
        <path d="M50.087 74.5L50.087 55.161 43.471 61.659 43.471 67.617zM46.177 17.507L46.177 7.901 53.245 1.176 53.233 24.657z" transform="translate(1 1)"/>
        <path d="M70.839 7.877L46.177 7.877 52.905.994 64.205.994zM64.102 24.636L53.137 24.636 46.177 17.507 70.875 17.534zM79.257 2.038c-.021-.537.24-1.047.689-1.347h-6.917s-.701.186-.701 1.347v23.493l6.917 6.883.012-30.376zM79.257 42.4c.004-.497.215-.97.584-1.307h-6.867s-.634.652-.634 1.343V67.53l6.917 6.884V42.4z" transform="translate(1 1)"/>
    </g>
</svg>
