<svg xmlns="http://www.w3.org/2000/svg" width="80" height="88" viewBox="0 0 80 88">
    <g fill="none">
        <path fill="#BF85ED" d="M33.123 47.773L31.742 42.264 14.438 42.264 12.597 44.271 28.261 44.271 28.261 51.17 30.438 51.17 30.438 45.818 31.794 51.17 34.53 51.17 36.096 45.311 36.096 51.17 38.197 51.17 38.197 42.264 34.53 42.264zM40.155 42.264H42.692V51.17H40.155zM51.482 49.194l-.735-1.54s1.373-.685 1.232-3.082c-.058-1.01-.988-2.294-2.259-2.294h-5.068v8.902h2.321v-3.482h1.439l1.524 3.472h16.536v-2.003l-14.99.027zm-2.023-4.085c-.061.482-.478.838-.965.826h-1.52V44.17h1.575c.474-.01.874.35.91.822.004.039.004.078 0 .116zM22.51 53.136L22.51 56.44 21.792 56.44 21.792 53.136zM23.279 56.44L23.279 52.94 23.966 52.94 23.966 56.44zM24.721 56.44L24.721 52.94 25.408 52.94 25.408 56.44zM28.326 55.72v.72h-.687c0-.065 0-.199-.02-.284-.142.239-.41.373-.687.342-.508 0-.83-.305-.83-.921v-1.62h.686v1.48c0 .277.086.503.385.503.298 0 .442-.168.442-.66v-1.323h.687l.024 1.764zM29.528 55.693c.06.207.26.339.474.312.254 0 .343-.092.343-.243 0-.15-.106-.223-.463-.308-.81-.199-.945-.449-.945-.802 0-.352.258-.75 1.01-.75s1.01.411 1.03.747h-.642c-.024-.092-.086-.267-.409-.267-.226 0-.302.103-.302.212 0 .11.079.185.48.278.832.195.948.479.948.842s-.312.784-1.07.784c-.76 0-1.069-.363-1.124-.805h.67zM31.358 53.957h.384v-.684h.687v.684h.488v.517h-.488V55.7c0 .189.059.264.265.264.052.003.105.003.158 0v.472c-.152.04-.308.056-.464.048-.488 0-.646-.256-.646-.684v-1.308h-.384v-.535zM33.442 54.632v-.685h.687c0 .058.017.305.017.438.13-.32.454-.52.8-.493v.654c-.501 0-.8.124-.8.802v1.082h-.687l-.017-1.798zM37.425 55.813c-.003.214.009.428.034.64H36.8c-.022-.077-.034-.158-.034-.24-.158.217-.421.33-.687.299-.22.024-.44-.047-.604-.196-.164-.149-.255-.36-.251-.582 0-.565.457-.825 1.185-.825h.343v-.154c0-.174-.065-.342-.385-.342-.319 0-.343.123-.384.301h-.656c.038-.438.31-.798 1.068-.79.666 0 1.03.263 1.03.852v1.037zm-.687-.49h-.281c-.416 0-.57.127-.57.367-.007.096.03.19.099.256.07.066.166.098.261.086.436 0 .491-.304.491-.633v-.075zM37.888 53.957h.385v-.684h.687v.684h.487v.517h-.487V55.7c0 .189.058.264.264.264.051.003.103.003.155 0v.472c-.152.04-.308.056-.464.048-.484 0-.645-.256-.645-.684v-1.308h-.385l.003-.535zM39.955 52.94h1v.613h-1v-.613zm0 1.028h1v2.482h-1v-2.482zM43.698 55.197c-.036.672-.608 1.19-1.282 1.163-.675-.028-1.201-.592-1.181-1.265.02-.673.58-1.205 1.254-1.192.735 0 1.209.513 1.209 1.294zm-1.762 0c0 .48.206.76.536.76.33 0 .525-.284.525-.757 0-.472-.188-.763-.532-.763-.343 0-.529.24-.529.763v-.003zM44.292 54.584v-.627h.67c.013.106.021.212.023.319.15-.254.431-.4.725-.373.498 0 .824.342.824.958v1.579h-.687v-1.503c0-.278-.092-.48-.398-.48-.306 0-.46.161-.46.6v1.37h-.687l-.01-1.843zM50.699 55.639c-.087.536-.577.913-1.12.86-.776 0-1.174-.535-1.174-1.282 0-.746.45-1.314 1.209-1.314.261-.03.523.048.727.213.204.166.333.406.358.667h-.687c-.023-.212-.214-.365-.426-.343-.316 0-.494.274-.494.757s.189.767.49.767c.202.007.38-.13.427-.325h.69zM51.241 56.44L51.241 52.94 51.928 52.94 51.928 56.44zM54.86 55.72v.72h-.687c0-.065 0-.199-.02-.284-.142.239-.41.373-.687.342-.508 0-.83-.305-.83-.921v-1.62h.686v1.48c0 .277.086.503.384.503.3 0 .443-.168.443-.66v-1.323h.687l.024 1.764zM55.598 52.94h.687v1.281c.164-.225.436-.346.714-.318.687 0 1.013.558 1.013 1.253 0 .695-.364 1.342-1.082 1.342-.254.032-.506-.08-.652-.291-.001.078-.01.156-.027.233h-.66v-.812l.007-2.688zm1.717 2.23c0-.415-.154-.72-.529-.72-.374 0-.532.257-.532.764 0 .418.124.74.525.74.402 0 .54-.315.54-.785h-.004z"/>
        <path fill="#F4B3CE" d="M44.292 8.786c.609-2.494 2.142-4.665 4.292-6.078 0 0-8.347-1.996-16.557 3.356.294-2.012.275-4.057-.054-6.064 0 0-4.673 3.4-6.253 8.879-1.111.91-2.007 2.053-2.623 3.349-.906 1.917-1.322 4.581.343 7.8-.18.119-.355.248-.522.387-.484.402-.918.862-1.29 1.37-1.137 1.554-1.923 4.047.834 7.09 10.719-9.553 27.155-8.709 36.833 1.892 9.678 10.601 8.984 27-1.556 36.749-10.54 9.75-26.989 9.209-36.862-1.212-9.873-10.42-9.483-26.829.874-36.77-1.538-1.682-2.242-3.425-2.08-5.182 0-.16.037-.318.065-.472 0 0 .058-.308.123-.53.048-.172.107-.343.168-.497-2.487 1.765-4.554 4.055-6.053 6.707.196.198.306.465.306.744 0 .432-.261.821-.661.987-.4.165-.862.073-1.168-.232-.306-.306-.398-.765-.232-1.164.166-.4.556-.66.99-.66.05.002.1.008.15.017 2.092-3.872 5.247-6.375 7.348-7.721.418-.64.927-1.217 1.511-1.712-1.562-2.568-.91-5.729-.587-6.876C4.073 21.956-4.212 42.44 2.16 61.08c6.374 18.64 25.48 29.808 44.903 26.245 19.421-3.563 33.293-20.78 32.598-40.462-.694-19.681-15.745-35.884-35.37-38.076zM27.409 18.864c-.69 0-1.25-.559-1.25-1.247 0-.688.56-1.246 1.25-1.246s1.25.558 1.25 1.246c0 .33-.131.648-.366.881-.234.234-.552.366-.884.366z"/>
    </g>
</svg>
