<svg xmlns="http://www.w3.org/2000/svg" width="105" height="20" viewBox="0 0 105 20">
    <path fill="#F4F8FC" d="M.5 6.98c0-1.42 1.1-2.46 2.44-2.46h12.52c1.34 0 2.44 1.04 2.44 2.46s-1.1 2.46-2.44 2.46h-4.58v.94h6.24c.72 0 1.28.54 1.28 1.26 0 .68-.56 1.22-1.28 1.22H1.26c-.7 0-1.26-.54-1.26-1.22 0-.72.56-1.26 1.26-1.26h6.22v-.94H2.94C1.6 9.44.5 8.4.5 6.98zm1.42 6.7h14.56c.68 0 1.22.54 1.22 1.22V18c0 .68-.54 1.22-1.22 1.22H1.92C1.24 19.22.7 18.68.7 18v-3.1c0-.68.54-1.22 1.22-1.22zM.2 2.72c0-.68.54-1.2 1.22-1.2H7.4V1.3C7.4.32 8.2 0 9.2 0S11 .32 11 1.3v.22h6c.66 0 1.2.54 1.2 1.2 0 .66-.54 1.2-1.2 1.2H1.42C.74 3.92.2 3.4.2 2.72zm4.06 13.36v.74h9.88v-.74H4.26zm-.16-9.1c0 .2.14.32.38.32h9.44c.24 0 .38-.12.38-.32s-.14-.32-.38-.32H4.48c-.24 0-.38.12-.38.32zm16.4-.52c0-2.88 1.94-5.42 4.82-5.42h7.76c2.88 0 4.82 2.54 4.82 5.42s-1.94 5.42-4.82 5.42h-7.76c-2.88 0-4.82-2.54-4.82-5.42zm3.56 0c0 1.36.9 2.46 2.26 2.46h5.76c1.36 0 2.26-1.1 2.26-2.46 0-1.36-.9-2.46-2.26-2.46h-5.76c-1.36 0-2.26 1.1-2.26 2.46zM20 17.22c0-.82.7-1.5 1.52-1.5h15.34c.86 0 1.54.68 1.54 1.5 0 .8-.68 1.5-1.54 1.5H21.52c-.82 0-1.52-.7-1.52-1.5zm24.3-7.64h12.2c.78 0 1.4.62 1.4 1.4 0 .78-.62 1.4-1.4 1.4H42.08c-.76 0-1.38-.62-1.38-1.38V6.66c0-.76.62-1.26 1.38-1.26H54.1V3.94H42.02c-.78 0-1.42-.62-1.42-1.4 0-.78.64-1.4 1.42-1.4h14.3c.76 0 1.38.62 1.38 1.38v4.22c0 .78-.62 1.38-1.4 1.38h-12v1.46zM40 17.24c0-.82.7-1.48 1.52-1.48h5.88v-1.38c0-1.02.78-1.5 1.8-1.5s1.8.48 1.8 1.5v1.38h5.86c.86 0 1.54.66 1.54 1.48 0 .8-.68 1.48-1.54 1.48H41.52c-.82 0-1.52-.68-1.52-1.48zm26.4-3.06V5.5c0-2.76 2.48-4.56 5.44-4.56 2.96 0 5.46 1.8 5.46 4.56v8.68c0 2.76-2.5 4.54-5.46 4.54s-5.44-1.78-5.44-4.54zm3.56-8.48v8.28c0 1.1.88 1.78 1.9 1.78s1.88-.68 1.88-1.78V5.7c0-1.1-.86-1.8-1.88-1.8s-1.9.7-1.9 1.8zm10.2 11.92V2.24c0-1.02.8-1.8 1.8-1.8s1.8.78 1.8 1.8v15.38c0 1.04-.8 1.8-1.8 1.8s-1.8-.76-1.8-1.8zm23.64-15.4c0 .78-.62 1.38-1.4 1.38H90.3v1.06h12.2c.78 0 1.4.6 1.4 1.38 0 .78-.62 1.38-1.4 1.38h-5.52v1.32h6c.8 0 1.42.64 1.42 1.42 0 .74-.62 1.38-1.42 1.38H87.4c-.76 0-1.4-.64-1.4-1.38 0-.78.64-1.42 1.4-1.42h6.02V7.42h-5.34c-.76 0-1.38-.62-1.38-1.38V2.22c0-.76.62-1.38 1.38-1.38h14.32c.78 0 1.4.6 1.4 1.38zM86.4 15.88c0-1.86 1.5-3.36 3.36-3.36h10.86c1.86 0 3.38 1.5 3.38 3.36 0 1.86-1.52 3.34-3.38 3.34H89.76c-1.86 0-3.36-1.48-3.36-3.34zm3.56 0c0 .34.24.58.58.58h9.3c.34 0 .6-.24.6-.58 0-.34-.26-.6-.6-.6h-9.3c-.34 0-.58.26-.58.6z"/>
</svg>
