<svg xmlns="http://www.w3.org/2000/svg" width="342" height="185" viewBox="0 0 342 185">
    <g fill="none" fill-rule="evenodd" transform="translate(1)">
        <ellipse cx="171.153" cy="173.709" fill="#F2F2F2" fill-rule="nonzero" rx="166.993" ry="11.043"/>
        <path fill="#2F2E41" fill-rule="nonzero" d="M164.753 52.814c-27.208 0-46.742 17.437-46.742 58.122 0 46.111 19.534 58.317 46.742 58.317s47.906-13.368 47.906-58.317c0-48.048-20.698-58.122-47.906-58.122zm.179 101.133c-18.845 0-28.69-11.043-28.69-42.98 0-28.18 10.248-43.041 29.093-43.041s29.093 9.761 29.093 43.04c0 31.132-10.652 42.981-29.496 42.981z"/>
        <path fill="#3581D7" fill-rule="nonzero" d="M101.719 137.092h-11.25v-33.09c0-3.66-2.97-6.627-6.634-6.627H81.2c-1.759 0-3.446.698-4.69 1.94-1.245 1.243-1.944 2.929-1.944 4.686v33.09h-31.73c-1.327 0-2.558-.694-3.244-1.83-.685-1.136-.725-2.547-.104-3.72l33.582-63.493c.847-1.6 1.001-3.475.428-5.191-.572-1.717-1.823-3.125-3.46-3.897l-1.983-.935c-3.197-1.508-7.016-.247-8.683 2.868l-40.959 76.538c-.698 1.304-1.062 2.759-1.062 4.237 0 2.383.947 4.669 2.634 6.354 1.687 1.685 3.975 2.632 6.361 2.632h48.22v20.924c0 2.107.838 4.127 2.33 5.617 1.49 1.49 3.513 2.326 5.622 2.326 2.11 0 4.132-.837 5.623-2.326 1.492-1.49 2.33-3.51 2.33-5.617v-20.924h11.249c3.749 0 6.788-3.036 6.788-6.781 0-3.745-3.04-6.781-6.788-6.781zM310.023 137.092h-11.25v-33.09c0-3.66-2.97-6.627-6.633-6.627h-2.636c-1.76 0-3.447.698-4.691 1.94-1.244 1.243-1.943 2.929-1.943 4.686v33.09h-31.73c-1.328 0-2.559-.694-3.244-1.83-.686-1.136-.725-2.547-.105-3.72l33.583-63.493c.846-1.6 1-3.475.428-5.191-.573-1.717-1.823-3.125-3.461-3.897l-1.983-.935c-3.197-1.508-7.016-.247-8.683 2.868l-40.959 76.538c-.697 1.304-1.062 2.759-1.062 4.237 0 4.963 4.027 8.986 8.996 8.986h48.22v20.924c0 4.387 3.56 7.943 7.952 7.943 4.391 0 7.952-3.556 7.952-7.943v-20.924h11.249c3.749 0 6.788-3.036 6.788-6.781 0-3.745-3.039-6.781-6.788-6.781z"/>
        <path stroke="#3F3D56" d="M104.822 133.217h-11.25v-33.09c0-1.758-.698-3.444-1.942-4.686-1.245-1.243-2.932-1.941-4.691-1.941h-2.636c-3.664 0-6.634 2.967-6.634 6.627v33.09h-31.73c-1.328 0-2.559-.695-3.244-1.83-.686-1.137-.725-2.548-.105-3.72l33.583-63.494c.846-1.6 1-3.475.428-5.191-.573-1.717-1.823-3.124-3.461-3.897l-1.983-.935c-3.197-1.508-7.016-.247-8.683 2.868l-40.959 76.539c-.697 1.303-1.062 2.758-1.062 4.236h0c0 4.963 4.027 8.986 8.996 8.986h48.22v20.924c0 2.107.837 4.127 2.329 5.617 1.491 1.49 3.514 2.326 5.623 2.326h0c4.391 0 7.952-3.556 7.952-7.943v-20.924h11.249c1.8 0 3.527-.715 4.8-1.986 1.273-1.272 1.988-2.997 1.988-4.795h0c0-1.799-.715-3.523-1.988-4.795-1.273-1.272-3-1.986-4.8-1.986h0zM315.842 133.217h-11.25v-33.09c0-3.66-2.97-6.627-6.634-6.627h-2.636c-1.76 0-3.447.698-4.69 1.94-1.245 1.243-1.944 2.929-1.944 4.687v33.09h-31.73c-1.328 0-2.558-.695-3.244-1.83-.685-1.137-.725-2.548-.105-3.72l33.583-63.494c.846-1.6 1.001-3.475.428-5.191-.573-1.717-1.823-3.124-3.46-3.897l-1.983-.935c-3.197-1.508-7.017-.247-8.683 2.868l-40.96 76.539c-.697 1.303-1.062 2.758-1.062 4.236h0c0 4.963 4.028 8.986 8.996 8.986h48.22v20.924c0 4.387 3.56 7.943 7.952 7.943h0c4.392 0 7.952-3.556 7.952-7.943v-20.924h11.25c1.8 0 3.526-.715 4.8-1.986 1.273-1.272 1.988-2.997 1.988-4.795h0c0-3.745-3.04-6.781-6.788-6.781zM170.96 49.326c-27.208 0-46.743 17.437-46.743 58.123 0 46.11 19.535 58.317 46.742 58.317 27.208 0 47.907-13.369 47.907-58.317 0-48.048-20.699-58.123-47.907-58.123zm.178 101.134c-18.844 0-28.69-11.044-28.69-42.981 0-28.18 10.249-43.04 29.093-43.04 18.845 0 29.093 9.76 29.093 43.04 0 31.132-10.651 42.98-29.496 42.98h0z"/>
        <ellipse cx="149.151" cy="5.771" fill="#2F2E41" fill-rule="nonzero" rx="4.084" ry="4.08"/>
        <ellipse cx="159.112" cy="14.826" fill="#2F2E41" fill-rule="nonzero" rx="11.456" ry="14.826"/>
        <path fill="#000" fill-rule="nonzero" d="M159.112 25.175c-5.739 0-10.491-5.461-11.325-12.587-.087.743-.13 1.49-.13 2.238 0 8.189 5.128 14.827 11.455 14.827s11.456-6.638 11.456-14.827c0-.748-.043-1.495-.13-2.238-.834 7.126-5.587 12.587-11.326 12.587z" opacity=".1"/>
        <path fill="#3F3D56" fill-rule="nonzero" d="M182.423 58.246c-.246 1.01-1.307 1.819-2.482 2.384-2.47 1.188-5.516 1.543-8.47 1.662-.755.045-1.511.031-2.263-.042-1.456-.14-2.823-.768-3.878-1.781-.153-.1-.244-.27-.241-.453.002-.183.099-.351.255-.446 1.573-1.727 4.198-2.785 6.843-3.547 2.005-.578 5.503-2.075 7.69-1.873 2.118.196 2.857 2.821 2.546 4.096z"/>
        <path fill="#000" fill-rule="nonzero" d="M182.423 58.246c-.246 1.01-1.307 1.819-2.482 2.384-2.47 1.188-5.516 1.543-8.47 1.662-.755.045-1.511.031-2.263-.042-1.456-.14-2.823-.768-3.878-1.781-.153-.1-.244-.27-.241-.453.002-.183.099-.351.255-.446 1.573-1.727 4.198-2.785 6.843-3.547 2.005-.578 5.503-2.075 7.69-1.873 2.118.196 2.857 2.821 2.546 4.096z" opacity=".1"/>
        <path fill="#3F3D56" fill-rule="nonzero" d="M151.02 50.699c-.754 1.476-.891 3.19-.38 4.767.52 1.564 1.492 2.94 2.795 3.952 3.196 2.559 7.594 2.91 11.69 2.875 3.589-.031 7.173-.276 10.733-.735 1.193-.105 2.365-.377 3.483-.808 1.336-.577 2.511-1.637 2.987-3.012s.138-3.059-.992-3.976c-.993-.807-2.363-.917-3.64-.994l-7.309-.439c.722-.73 1.684-1.143 2.563-1.673 1.167-.704 1.942-1.887 2.79-2.952 1.307-1.56 2.73-3.021 4.254-4.37.238 1.363 1.101 2.483 2.117 3.423s2.187 1.698 3.243 2.593c2.558 2.17 4.4 5.113 7.089 7.116 1.85-.486 3.58-1.349 5.08-2.534l-1.045-1.892c-.087-.194-.223-.363-.394-.49-.296-.182-.677-.089-1.02-.14-.919-.138-1.32-1.197-1.68-2.052-.99-2.347-2.884-4.168-4.501-6.136-1.194-1.453-2.254-3.011-3.165-4.656-.543-.98-1.04-2.002-1.778-2.847-.738-.845-1.771-1.51-2.893-1.512-.992-.002-1.906.501-2.759 1.007-2.597 1.54-5.095 3.241-7.48 5.091-1.25.968-2.49 1.991-3.954 2.585-.617.25-1.267.42-1.858.725-1.037.532-1.823 1.434-2.67 2.234-3.019 2.853-7.153 4.702-11.307 4.85z"/>
        <path fill="#FBBEBE" fill-rule="nonzero" d="M166.302 30.39c-.034.871-.22 1.731-.549 2.54-.337.815-.998 1.453-1.825 1.762-.582.155-1.19.175-1.78.058-.515-.054-1.01-.223-1.451-.494-.685-.47-1.027-1.31-1.151-2.132-.125-.821-.07-1.66-.149-2.487-.078-.668-.205-1.33-.38-1.978l-.163-.646c-.053-.215-.104-.43-.152-.645-.044-.202-.085-.405-.12-.609-.029-.172-.055-.345-.073-.52-.018-.515-.104-1.027-.256-1.52-.144-.32-.323-.624-.534-.903-.091-.13-.179-.259-.26-.393-.233-.35-.341-.767-.307-1.185.01-.065.025-.129.047-.19.008-.024.017-.048.027-.071.181-.05.327-.185.389-.363.034-.189.018-.382-.047-.562-.074-.252-.176-.495-.304-.724-.083-.151-.367-.424-.37-.597-.003-.348.678-.629.954-.766.842-.421 1.782-.612 2.722-.551.602.04 1.256.225 1.588.73.3.455.26 1.044.387 1.572.013.077.046.15.095.21.065.06.146.097.234.108.147.029.298.035.448.018.04-.004.08-.01.118-.017.233-.043.453-.138.644-.278.123-.033.248-.06.373-.08l.015-.004c.5 1.574.564 3.26.973 4.862.202.797.492 1.584.533 2.404.003.036.004.073.005.11.006.263-.015.53-.004.792.003.118.017.236.04.352.044.187.1.371.166.551l.003.01c.019.057.037.116.052.174.01.043.02.085.028.128l.001.003c.074.44.085.887.033 1.33z"/>
        <ellipse cx="159.311" cy="14.229" fill="#FBBEBE" fill-rule="nonzero" rx="5.877" ry="5.871"/>
        <path fill="#FBBEBE" fill-rule="nonzero" d="M196.625 46.217c-.17-1.602-.74-3.135-1.658-4.46l.458 2.715c-.388.113-.807-.016-1.065-.327-.248-.309-.437-.66-.56-1.036-.667-1.656-1.54-3.221-2.598-4.66-3.742-.311-7.44-1.86-10.73-3.667-3.292-1.805-6.372-3.969-9.62-5.85-.562-.34-1.149-.64-1.754-.896-1.017-.407-2.157-.618-3.12-1.097-.065-.032-.13-.065-.194-.1-.217-.118-.423-.257-.615-.413-.104-.084-.202-.175-.295-.27-.48-.56-.862-1.196-1.127-1.883-.517-1.143-.701-2.52-1.217-3.663.237-.222.504-.41.792-.558l.127-.063c.205-.096.417-.174.635-.232.123-.033.248-.06.373-.08l.015-.004c.582-.094 1.179-.047 1.739.138.819.276 1.509.829 2.197 1.351 1.118.787 2.191 1.637 3.213 2.545.568.544 1.086 1.14 1.696 1.634.508.391 1.043.746 1.601 1.06l9.914 5.898c1.118.665 2.238 1.331 3.332 2.036 1.661 1.07 3.263 2.23 4.864 3.39l2.829 2.049c.31.197.58.447.802.74.195.332.316.702.355 1.086.237 1.548.103 3.13-.39 4.617z"/>
        <path fill="#3581D7" fill-rule="nonzero" d="M167.76 34.804c-.397 1.777-2.194 2.85-3.133 4.41-1.168 1.937-.692 4.188-.253 6.406l-2.404 2.068c-.442.38-.884.76-1.36 1.096-.695.465-1.42.881-2.172 1.246l-2.128 1.093c-.66.37-1.358.666-2.083.882-1.397.358-2.882.107-4.264-.307-.163-.043-.32-.107-.467-.19-.086-.052-.161-.12-.22-.2-.137-.245-.187-.528-.141-.804.14-2.324.71-4.6 1.276-6.859.303-1.355.71-2.684 1.218-3.977.498-1.107 1.071-2.18 1.715-3.21.71-1.296 1.55-2.516 2.51-3.64.467-.434.86-.94 1.163-1.5.354-.805.217-1.73.29-2.607.054-.66.23-1.304.516-1.9v-.001c.154-.321.339-.627.552-.911l.29.673.19.441c.08.19.162.377.242.565l.696 1.617c.25.679.606 1.313 1.055 1.88.418.59 1.116.918 1.838.863.721-.056 1.36-.486 1.684-1.133.335-.594.577-1.235.719-1.901.197-.812.224-1.655.08-2.478-.24-1.584-.915-3.202-1.405-4.674-.2-.49-.315-1.011-.342-1.54.001-.06.007-.119.018-.177l.01-.046c.204-.096.416-.174.634-.232.123-.033.248-.06.373-.08l1.296 6.997.031.165c.062.334.125.669.195 1.002.062.302.13.604.206.903l.003.01.08.302.001.003c.077.274.163.547.26.816.585 1.619 1.606 3.249 1.23 4.93z"/>
        <path fill="#3F3D56" fill-rule="nonzero" d="M191.612 59.765c-.019.343.047.684.193.994.368.672 1.25.825 2.014.887 4.461.367 8.95.23 13.38-.407.24-.016.474-.089.681-.21.63-.442.242-1.517-.446-1.862-.688-.344-1.504-.26-2.259-.41-.75-.188-1.464-.498-2.114-.916-1.53-.878-3.039-1.794-4.525-2.747-.884-.568-1.929-1.173-2.925-.837-2.699.912-4.017 2.6-4 5.508z"/>
        <path fill="#FBBEBE" fill-rule="nonzero" d="M158.725 26.244c-.007.043-.014.083-.023.124-.011.068-.024.137-.037.204-.124.632-.275 1.26-.45 1.886-.477 1.726-1.118 3.425-1.754 5.099l-5.117 13.464c-.43 1.13-.86 2.261-1.348 3.369-.164.37-.332.741-.5 1.117-.6 1.347-1.175 2.737-1.366 4.17-.179.943-.2 1.909-.061 2.859.191.939.762 1.856 1.656 2.204.436.17 1.06.398.94.85-.064.25-.347.37-.6.412-.68.108-1.372-.09-1.89-.543-.477-.423-.843-1.08-1.478-1.151-.439-.048-.843.215-1.246.399-1.641.75-3.554.225-5.278-.308.135-.697.836-1.157 1.533-1.296.696-.14 1.416-.041 2.126-.06.228.012.454-.046.647-.166.173-.159.295-.366.349-.595.457-1.354.797-2.745 1.017-4.158.229-1.475.324-2.974.651-4.432.254-1.137.647-2.238.983-3.355.651-2.299 1.186-4.629 1.602-6.981.21-.978.361-1.967.451-2.963.057-.825.03-1.655.11-2.478.134-1.07.357-2.128.668-3.162l.914-3.38c.451-1.667.935-3.398 2.079-4.694.803-.921 1.952-1.47 3.174-1.514.227 0 .453.024.675.073l.11.027c.242.064.473.16.689.285.352-.224.532-.145.766.2.205.366.302.782.279 1.2.02 1.104-.071 2.208-.271 3.294z"/>
        <path fill="#3581D7" fill-rule="nonzero" d="M159.112 27.563l-.015.015-.08.08-.801.8-.393-1.647-1.346-5.646c.227 0 .453.024.675.073.01-.065.025-.129.047-.19l.063.217.457 1.55.863 2.944.143.485.387 1.32z"/>
        <path fill="#2F2E41" fill-rule="nonzero" d="M164.194 9.551c0 1.056-.422 2.068-1.171 2.813-.134.135-.278.259-.43.372-.688.518-1.525.798-2.386.798h-4.78c-2.198-.003-3.979-1.785-3.979-3.981 0-2.196 1.781-3.978 3.98-3.981h4.779c2.198.005 3.98 1.783 3.987 3.98z"/>
        <ellipse cx="168.675" cy="5.771" fill="#2F2E41" fill-rule="nonzero" rx="4.084" ry="4.08"/>
        <path fill="#000" fill-rule="nonzero" d="M168.576 1.692l-.15.003c2.196.08 3.935 1.881 3.935 4.076 0 2.195-1.739 3.997-3.935 4.076.05.002.1.004.15.004 2.255 0 4.084-1.826 4.084-4.08 0-2.253-1.829-4.08-4.084-4.08zM149.15 1.692l.15.003c-2.196.08-3.935 1.881-3.935 4.076 0 2.195 1.74 3.997 3.935 4.076-.05.002-.1.004-.15.004-2.253-.002-4.08-1.828-4.08-4.08 0-2.251 1.827-4.077 4.08-4.08zM162.592 12.736c-.687.518-1.524.798-2.385.798h-4.78c-.86 0-1.697-.28-2.385-.798h9.55z" opacity=".1"/>
        <path fill="#FBBEBE" fill-rule="nonzero" d="M193.454 42.298s1.03 2.963 1.971 2.174l-.75-3.873-1.221 1.699z"/>
        <path fill="#57B894" fill-rule="nonzero" d="M318.746 132.675c2.63.955 5.577.146 7.35-2.016 1.772-2.163 1.984-5.208.528-7.595-1.457-2.387-4.263-3.594-7-3.012l.165 3.388-1.605-2.903c-1.574.739-2.79 2.072-3.382 3.707-.21.572-.337 1.172-.379 1.78-.208 2.933 1.557 5.648 4.323 6.65z"/>
        <path stroke="#3F3D56" d="M326.685 171.965c-.566-2.881 1.888-5.435 4.312-7.096 2.424-1.66 5.257-3.29 6.084-6.108 1.189-4.05-2.352-7.757-5.108-10.955-2.045-2.373-3.8-4.98-5.23-7.766-.574-1.117-1.101-2.285-1.252-3.53-.217-1.796.36-3.582.941-5.294 1.938-5.703 4.009-11.358 6.214-16.965"/>
        <path stroke="#3F3D56" d="M319.018 131.803c2.63.955 5.576.146 7.349-2.016 1.773-2.163 1.984-5.209.528-7.595-1.456-2.387-4.263-3.594-7-3.012l.165 3.388-1.604-2.903c-1.575.739-2.791 2.072-3.382 3.707-.21.572-.338 1.172-.38 1.78-.208 2.933 1.557 5.648 4.324 6.65z"/>
        <path fill="#57B894" fill-rule="nonzero" d="M325.88 113.08c.765-2.107 2.552-3.68 4.742-4.173l.543 3.22 1.005-3.382c2.866.043 5.375 1.93 6.207 4.67.832 2.74-.204 5.701-2.563 7.327-2.359 1.626-5.499 1.542-7.767-.208-2.268-1.749-3.144-4.762-2.167-7.453z"/>
        <path stroke="#3F3D56" d="M326.242 111.918c.765-2.108 2.552-3.681 4.742-4.174l.543 3.22 1.005-3.382c2.866.043 5.375 1.93 6.207 4.67.832 2.74-.204 5.702-2.563 7.327-2.359 1.626-5.5 1.542-7.767-.208-2.269-1.749-3.145-4.762-2.167-7.453h0z"/>
        <path fill="#57B894" fill-rule="nonzero" d="M330.816 147.871c3.149 1.141 6.653-.26 8.145-3.255s.496-6.632-2.314-8.452l-.772 2.599-.548-3.259-.017-.006c-2.213-.803-4.687-.366-6.49 1.148-1.802 1.513-2.66 3.872-2.247 6.188.412 2.316 2.03 4.237 4.243 5.037z"/>
        <path stroke="#3F3D56" d="M331.13 146.693c3.148 1.141 6.653-.26 8.145-3.255 1.491-2.995.496-6.632-2.314-8.452l-.773 2.599-.548-3.258-.017-.007c-2.213-.803-4.687-.366-6.49 1.148-1.802 1.513-2.659 3.873-2.247 6.188.412 2.316 2.03 4.237 4.244 5.037h0z"/>
        <path fill="#57B894" fill-rule="nonzero" d="M323.957 158.801c.54 3.063 3.152 5.331 6.264 5.436 3.112.105 5.872-1.982 6.616-5.003.744-3.02-.73-6.148-3.536-7.498-2.805-1.35-6.174-.552-8.074 1.911l2.935 4.414-4.01-2.343c-.312.998-.378 2.055-.195 3.083z"/>
        <path stroke="#3F3D56" d="M324.229 157.929c.539 3.063 3.152 5.331 6.264 5.436 3.112.104 5.872-1.983 6.616-5.003.744-3.02-.732-6.148-3.537-7.498-2.805-1.35-6.173-.552-8.074 1.911l2.936 4.414-4.011-2.343c-.311.997-.378 2.055-.194 3.083z"/>
        <path fill="#57B894" fill-rule="nonzero" d="M2.852 148.708c1.727.627 3.663.096 4.828-1.325 1.165-1.421 1.304-3.422.347-4.99-.957-1.568-2.8-2.362-4.599-1.979l.108 2.226-1.054-1.907c-1.034.485-1.834 1.361-2.222 2.435-.138.376-.222.77-.249 1.17-.137 1.927 1.023 3.71 2.84 4.37z"/>
        <path stroke="#3F3D56" d="M8.067 174.522c-.372-1.893 1.24-3.571 2.834-4.662 1.592-1.09 3.453-2.162 3.997-4.013.78-2.66-1.546-5.097-3.356-7.198-1.344-1.56-2.497-3.272-3.437-5.102-.409-.72-.687-1.505-.822-2.32-.143-1.18.236-2.353.618-3.478 1.273-3.747 2.634-7.462 4.083-11.147"/>
        <path stroke="#3F3D56" d="M3.03 148.135c1.728.627 3.664.096 4.828-1.325 1.165-1.421 1.304-3.422.347-4.99-.957-1.568-2.8-2.362-4.599-1.979l.109 2.226-1.055-1.907c-1.034.485-1.833 1.361-2.222 2.435-.138.376-.221.77-.249 1.17-.136 1.927 1.023 3.71 2.84 4.37z"/>
        <path fill="#57B894" fill-rule="nonzero" d="M7.538 135.834c.503-1.385 1.677-2.419 3.116-2.742l.357 2.116.66-2.223c1.883.028 3.532 1.269 4.078 3.068.547 1.8-.134 3.746-1.684 4.814-1.55 1.068-3.613 1.013-5.103-.136-1.49-1.15-2.066-3.13-1.424-4.897z"/>
        <path stroke="#3F3D56" d="M7.776 135.07c.503-1.385 1.677-2.419 3.116-2.742l.356 2.116.661-2.223c1.883.028 3.531 1.269 4.078 3.068.546 1.8-.134 3.746-1.684 4.814-1.55 1.068-3.613 1.013-5.103-.136-1.49-1.15-2.066-3.13-1.424-4.897h0z"/>
        <path fill="#57B894" fill-rule="nonzero" d="M10.782 158.692c2.068.75 4.37-.17 5.351-2.139.98-1.968.326-4.357-1.52-5.553l-.508 1.707-.36-2.14-.011-.005c-1.454-.528-3.08-.24-4.264.754-1.185.994-1.748 2.545-1.477 4.066.27 1.522 1.334 2.784 2.789 3.31z"/>
        <path stroke="#3F3D56" d="M10.988 157.918c2.068.75 4.37-.17 5.35-2.139.981-1.968.327-4.357-1.52-5.553l-.507 1.708-.36-2.141-.011-.004c-2.247-.815-4.73.345-5.545 2.59-.816 2.245.345 4.725 2.593 5.539h0z"/>
        <path fill="#57B894" fill-rule="nonzero" d="M6.275 165.873c.354 2.013 2.071 3.503 4.116 3.571 2.044.07 3.858-1.302 4.347-3.286.488-1.985-.48-4.04-2.324-4.927-1.843-.887-4.056-.363-5.305 1.256l1.929 2.9-2.635-1.54c-.205.656-.248 1.35-.128 2.026z"/>
        <path stroke="#3F3D56" d="M6.453 165.3c.354 2.013 2.071 3.503 4.116 3.571 2.045.07 3.858-1.302 4.347-3.286.489-1.985-.48-4.04-2.324-4.927-1.843-.887-4.056-.363-5.304 1.256l1.928 2.9-2.635-1.54c-.204.656-.248 1.35-.128 2.026h0z"/>
        <ellipse cx="152.255" cy="100.914" fill="#2F2E41" fill-rule="nonzero" rx="5.382" ry="6.957"/>
        <ellipse cx="181.538" cy="101.073" fill="#2F2E41" fill-rule="nonzero" rx="5.382" ry="6.957"/>
        <path fill="#2F2E41" fill-rule="nonzero" d="M177.422 121.628c0 3.143-4.394 5.692-9.813 5.692-5.42 0-9.814-2.55-9.814-5.692 0-2.723 3.295-5 7.699-5.557.701-.092 1.407-.137 2.115-.136 1.185-.003 2.366.124 3.523.38 3.679.819 6.29 2.89 6.29 5.313z"/>
        <ellipse cx="153.521" cy="99.333" stroke="#3F3D56" rx="5.382" ry="6.957"/>
        <ellipse cx="182.804" cy="99.491" stroke="#3F3D56" rx="5.382" ry="6.957"/>
        <ellipse cx="168.875" cy="120.046" stroke="#3F3D56" rx="9.814" ry="5.692"/>
        <path fill="#FFF" fill-rule="nonzero" d="M171.25 116.79c.002.397-.148.78-.419 1.072-.258.282-.623.443-1.006.445h-3.166c-.812-.028-1.449-.706-1.425-1.518-.001-.308.089-.61.26-.867.7-.098 1.407-.147 2.115-.145 1.186-.004 2.369.132 3.523.405.078.193.118.4.117.607z"/>
        <ellipse cx="153.521" cy="97.436" fill="#FFF" fill-rule="nonzero" rx="1.583" ry="1.581"/>
        <ellipse cx="182.962" cy="97.436" fill="#FFF" fill-rule="nonzero" rx="1.583" ry="1.581"/>
        <ellipse cx="184.545" cy="112.299" fill="#3581D7" fill-rule="nonzero" opacity=".3" rx="1.583" ry="1.581"/>
        <ellipse cx="145.923" cy="112.299" fill="#3581D7" fill-rule="nonzero" opacity=".3" rx="1.583" ry="1.581"/>
    </g>
</svg>
