<svg xmlns="http://www.w3.org/2000/svg" width="84" height="19" viewBox="0 0 84 19">
    <path fill="#2F2E41" d="M11.48 8.7h-9.1C1.62 8.7 1 8.08 1 7.32V1.88C1 1.12 1.62.5 2.38.5h8.9c.76 0 1.38.62 1.38 1.38 0 .76-.62 1.38-1.38 1.38H4.56v2.68h6.92c.76 0 1.38.62 1.38 1.38 0 .76-.62 1.38-1.38 1.38zm2.68 8.48V1.8c0-1.02.8-1.8 1.8-1.8s1.8.78 1.8 1.8v15.38c0 1.04-.8 1.8-1.8 1.8s-1.8-.76-1.8-1.8zm-10-.72c.36-1.08.58-2.16.68-3.28H1.4c-.76 0-1.4-.64-1.4-1.38 0-.78.64-1.42 1.4-1.42h10.84c.8 0 1.42.64 1.42 1.42 0 .74-.62 1.38-1.42 1.38H8.48c-.12 1.56-.38 3.22-.86 4.38-.4.94-1.06 1.22-1.82 1.22-1.24 0-2.04-1.14-1.64-2.32zM24.3 9.14h12.2c.78 0 1.4.62 1.4 1.4 0 .78-.62 1.4-1.4 1.4H22.08c-.76 0-1.38-.62-1.38-1.38V6.22c0-.76.62-1.26 1.38-1.26H34.1V3.5H22.02c-.78 0-1.42-.62-1.42-1.4 0-.78.64-1.4 1.42-1.4h14.3c.76 0 1.38.62 1.38 1.38V6.3c0 .78-.62 1.38-1.4 1.38h-12v1.46zM20 16.8c0-.82.7-1.48 1.52-1.48h5.88v-1.38c0-1.02.78-1.5 1.8-1.5s1.8.48 1.8 1.5v1.38h5.86c.86 0 1.54.66 1.54 1.48 0 .8-.68 1.48-1.54 1.48H21.52c-.82 0-1.52-.68-1.52-1.48zm26-.52c0-.66.4-1.28.96-1.56 5-2.48 6.74-6.22 6.74-10.92h-5.92c-.82 0-1.48-.66-1.48-1.48 0-.86.66-1.52 1.48-1.52h8.12c.78 0 1.4.62 1.4 1.4v1.1c0 5.1-1.5 11.14-8.76 14.5-.26.12-.62.18-.92.18-.92 0-1.62-.8-1.62-1.7zm13.6.9V1.8c0-1.02.8-1.8 1.8-1.8s1.8.78 1.8 1.8v5.52h.98c.82 0 1.5.66 1.5 1.5s-.68 1.5-1.5 1.5h-.98v6.86c0 1.04-.8 1.8-1.8 1.8s-1.8-.76-1.8-1.8zm20.56 0V1.8c0-1.02.8-1.8 1.8-1.8s1.8.78 1.8 1.8v15.38c0 1.04-.8 1.8-1.8 1.8s-1.8-.76-1.8-1.8zM66 16.32c0-.66.36-1.24.92-1.52 5-2.48 7.18-6.32 7.18-11h-6.32c-.82 0-1.48-.66-1.48-1.48 0-.86.66-1.52 1.48-1.52h8.52c.78 0 1.4.62 1.4 1.4v1.1c0 5.3-1.94 11.14-9.2 14.5-.26.12-.58.18-.88.18-.92 0-1.62-.76-1.62-1.66z"/>
</svg>
