<svg xmlns="http://www.w3.org/2000/svg" width="20" height="22" viewBox="0 0 20 22">
    <path fill="#3F3D56" d="M10.037 0C15.216 0 20 3.603 20 10.712c0 3.015-.863 5.393-2.244 7.158l.715.784c.74.834.79 1.962-.148 2.77-.888.81-1.948.785-2.811-.196l-.79-.882c-1.43.735-3.033 1.127-4.685 1.127C4.809 21.473 0 17.821 0 10.713 0 3.602 4.809 0 10.037 0zm.123 12.33c.888-.809 1.949-.784 2.812.196l1.8 2.01c.518-1.054.838-2.328.838-3.824 0-4.265-2.564-6.839-5.573-6.839-3.083 0-5.647 2.574-5.647 6.84 0 4.265 2.564 6.887 5.647 6.887.641 0 1.282-.122 1.874-.367L10.012 15.1c-.74-.833-.789-1.961.148-2.77z"/>
</svg>
