<svg xmlns="http://www.w3.org/2000/svg" width="62" height="80" viewBox="0 0 62 80">
    <g fill="#2A2B59">
        <path d="M14.135 74.346c0 2.018-.012 3.86-.035 5.502.21-.775.516-2.628.645-5.08v-.011c-.211-.13-.41-.27-.61-.411zM55.918 13.982c.082-.058.152-.129.211-.199 1.642-1.76 2.346-2.897 2.346-5.748 0-2.85-2.31-5.161-5.161-5.161-2.85 0-5.63 1.173-5.865 8.915v.117c-.07-.082-.211-2.674-.294-2.756C41.701 3.507 34.041 0 25.572 0 8.985 0 .059 16.434.059 33.02c0 .329 0 .657.011.974 0 .106 0 .2.012.305.012.235.012.458.024.692 0 .106.011.223.011.329.012.246.024.48.047.727 0 .082.012.176.012.258.023.328.047.657.082.974 0 .035.012.07.012.105.023.293.058.575.094.856l.035.282c.035.235.058.48.094.716l.035.281c.035.27.082.54.129.81.012.046.012.093.023.14l.176.974c.012.035.012.082.024.117.058.282.117.563.176.833.011.082.035.152.047.223.058.246.117.504.176.75.011.071.035.141.047.2.164.633.328 1.267.527 1.889l.036.105c.011.047.035.094.046.14 0 .013 0 .013.012.024.176-1.184.41-2.37.727-3.554.446-1.654 1.021-3.26 1.725-4.786v-.023-.024c-.352-7.155 3.753-17.009 4.223-17.712.469-.704.844-.939 1.055-.939.939 0 1.138 2.37 1.385 2.944.246.575 1.126 1.28 2.017 1.28.458 0 .892-.142 1.244-.388 1.959-1.619 4.316-2.792 6.885-3.343 1.056-.235 2.311-.375 2.428-.845.118-.469-.762-1.208-1.466-1.677-.704-.47-.586-.47-2.17-.88 1.642 0 3.05 1.056 3.941 1.97 2.663-.28 1.044-.386 8.2-.386 7.155 0 15.46 3.214 21.102 8.129 1.115.962 2.065 2.135 3.003 2.135.939 0 1.431-.95 1.865-2.065.505-1.302.775-2.733.775-4.211 0-3.355-.962-5.806-2.968-7.367zm.387 6.311c-.516 0-.938-.422-.938-.938s.422-.939.938-.939.938.423.938.939-.422.938-.938.938zM45.455 73.795l-.047.023c-.563.329-.751 1.044-.423 1.595.223.376.61.587 1.02.587.2 0 .4-.047.587-.152l.047-.024c.563-.328.751-1.044.423-1.595-.329-.575-1.044-.763-1.607-.434z"/>
        <path d="M57.677 34.968C53.666 28.023 47.191 23.05 39.45 20.985c-7.742-2.076-15.836-1.008-22.78 3.003-5.455 3.156-9.69 7.824-12.27 13.443.117 2.334.152 4.176.363 5.924 1.244-5.032 3.907-9.713 7.801-13.396.856.27 1.56.903 1.9 1.736.387.927.188 2.006-.504 2.745l-1.36 1.454c-.06.07-.118.141-.165.212l-3.132 5.442-2.78 1.983c-.516.363-.645 1.079-.282 1.607l1.044 1.525c-.598.094-1.137.164-1.501.2-.07-.071-.14-.13-.211-.2-.047-.035-.082-.082-.13-.118.247.845.576 1.713.998 2.651.305-.035.68-.093 1.126-.152.985-.14 1.97-.317 1.982-.317.669-.105 1.162-.786.927-1.572-.012-.035-.035-.082-.059-.117l-1.525-2.24 2.206-1.572c.047-.035.082-.07.105-.117l3.285-5.725L15.777 36c1.314-1.408 1.69-3.472.962-5.255-.434-1.056-1.185-1.924-2.135-2.522 1.02-.81 2.123-1.549 3.285-2.217 4.258-2.463 8.915-3.648 13.513-3.695l-2.1 2.627-7.765 2.722c-.317.105-.563.352-.692.657l-2.17 5.255c-.153.375-.106.798.129 1.126l3.167 4.434c-.458.41-.892 1.02-1.42 1.771-.234.329-.445.634-.598.81-.129.152-.258.293-.387.445-.68.763-1.384 1.56-1.889 2.616-1.102 2.335-.88 5.032.575 7.062 1.408 1.959 3.73 2.956 6.217 2.663.399-.047.786-.141 1.15-.235 1.009-.246 1.325-.27 1.642.023.152.153.176.176.164.669 0 .317 0 .716.106 1.161.176.716.633 1.22.997 1.62.176.198.363.398.422.539.364.88.211 1.36-.14 2.428-.036.094-.06.187-.094.281-.528 1.643.21 3.273.856 4.704.211.47.41.903.54 1.29 1.055 3.132 1.841 3.848 2.475 4.13.328.152.68.222 1.02.222 1.69 0 3.46-1.571 4.27-2.569.504-.621.633-1.255.727-1.712.047-.223.082-.41.153-.528.105-.176.222-.317.387-.493.316-.352.704-.797.962-1.595.187-.61.328-.75.797-1.243.082-.082.164-.176.258-.282 1.56-1.7 1.162-3.003.74-4.375-.364-1.162.27-1.9 1.782-3.308.657-.61 1.338-1.244 1.865-2.006.235-.329.927-1.349.493-2.346-.422-.985-1.501-1.15-2.37-1.279-.34-.047-.856-.129-1.02-.234-.727-.47-1.173-1.467-1.595-2.428-.082-.188-.165-.376-.258-.563-.153-.329-.305-.716-.47-1.138-.422-1.103-.915-2.358-1.736-3.226-.739-.786-2.135-1.161-3.366-1.49-.516-.14-.986-.27-1.22-.375-.082-.035-.164-.047-.258-.035-.75.152-1.197.316-1.513.574-.07.059-.294.247-.423.563-.434-.21-1.044-.621-1.407-.856.117-.493.011-.88-.106-1.126-.657-1.384-2.827-1.279-3.26-1.243-.247.023-.552.035-.88.047-.517.023-1.08.035-1.643.105l.505-1.408c.14-.387.516-.656.926-.656h1.97c.587 0 1.115-.411 1.197-.997.106-.728-.457-1.338-1.16-1.338h-.681c-1.877 0-3.601.986-4.563 2.534l-1.76-2.452 1.724-4.176 7.625-2.662c.211-.07.399-.2.528-.376l3.39-4.234c8.657.82 16.81 5.654 21.478 13.712 1.243 2.147 2.17 4.4 2.78 6.71l-.504.446c-.657.586-1.044 1.43-1.044 2.31l-.81-2.228c-.117-.329-.305-.634-.528-.903l-1.794-2.088c-.34-.4-.845-.634-1.384-.634h-2.487c-.176 0-.352.047-.505.118-1.044.54-1.278 1.7-.727 2.522l.176.27c-1.15.985-2.475 1.77-3.894 2.298l-2.44-4.645V39.25c0-.316-.13-.621-.364-.844l-2.31-2.206c-.036-.035-.083-.07-.142-.082l-2.123-.75c-.926-.329-1.994.586-1.384 1.865.047.094.13.176.235.21l2.111.74 1.642 1.56v1.02c0 .06.012.118.047.176l3.12 5.983c.27.528.892.762 1.443.563l.88-.329c2.053-.762 3.953-1.97 5.502-3.519.398-.398.457-1.02.14-1.478l-.058-.093h.739c.058 0 .117.023.152.07l1.607 1.888c.012.024.024.036.035.06l1.69 4.644c.023.047.047.094.082.141.281.305.621.434.95.434.305 0 .61-.117.833-.34l.762-.763c.481-.48.81-1.09.974-1.76 1.173 9.409-2.51 19.145-10.311 25.256-.774.61-.575 1.982.821 2.182.106.012.211-.012.305-.082 5.806-4.434 9.795-10.85 11.214-18.041 1.408-7.097.188-14.487-3.449-20.786zm-34.146 5.83c.528-.294 1.736-.34 2.627-.364.352-.012.692-.023.986-.047.152-.012.328-.012.504 0-.07.188-.094.399-.07.598.058.364.281.68.61.845.223.117.528.317.856.54.915.61 1.959 1.302 2.933 1.36.891.059 1.384-.446 1.595-.657l.047-.047c.117-.093.234-.222.316-.387.188.059.388.106.587.165.692.187 1.982.54 2.276.832.504.54.903 1.56 1.255 2.452.176.457.34.88.528 1.279.082.176.164.351.234.527.54 1.197 1.15 2.57 2.452 3.414.586.387 1.314.493 1.947.586.082.012.164.024.258.036-.375.527-.915 1.02-1.49 1.56-1.454 1.349-3.26 3.026-2.428 5.689.387 1.267.41 1.396-.223 2.088-.082.094-.164.176-.246.258-.54.575-.974 1.02-1.325 2.135-.106.317-.235.469-.481.739-.188.211-.434.48-.657.868-.27.457-.352.891-.423 1.243-.07.34-.105.516-.246.68-.305.376-.891.927-1.478 1.303-.551.352-.868.398-.985.387-.13-.13-.575-.716-1.267-2.745-.164-.505-.399-1.009-.634-1.513-.504-1.091-1.02-2.229-.762-3.003.035-.094.059-.176.082-.27.399-1.22.786-2.37.082-4.047-.21-.504-.551-.88-.856-1.208-.2-.211-.41-.458-.446-.598-.047-.165-.035-.364-.035-.587 0-.61.012-1.537-.915-2.393-1.302-1.208-2.815-.833-3.812-.586-.305.07-.599.152-.857.176-1.642.187-3.12-.423-4.035-1.701-.962-1.326-1.102-3.12-.363-4.669.351-.75.891-1.349 1.513-2.053.14-.152.27-.305.41-.469.223-.258.481-.622.751-.997.34-.422.938-1.255 1.185-1.42z"/>
        <path d="M11.977 56.704c.14.105.305.187.48.211l2.91.563c.375.07.68.293.88.622.187.328.234.704.117 1.055-.247.74-.247 1.514 0 2.253l.375 1.137c.223.68-.152 1.42-.833 1.631l-1.161.375c-.305.094-.54.305-.68.575.715 3.507.82 6.92.692 9.607 2.158 1.478 4.527 2.675 7.038 3.554 3.214 1.126 6.569 1.678 9.923 1.678 3.778 0 7.555-.716 11.109-2.135.094-.035.176-.117.223-.211.563-1.302-.528-2.17-1.443-1.818-9.15 3.519-19.062 1.923-26.463-3.637l1.055-5.49.505-.164c1.912-.621 2.968-2.686 2.346-4.598l-.47-1.431c-.035-.094-.023-.2.012-.293.423-1.056.329-2.24-.234-3.203-.528-.903-1.42-1.536-2.452-1.736l-2.65-.516-5.104-3.883c-.281-.21-.645-.281-.985-.199.657 1.267 1.502 2.686 2.57 4.328l2.24 1.725z"/>
        <path d="M13.478 67.871l-.48 2.475c-2.065-1.877-3.872-4.106-5.338-6.64-1.795-3.096-2.91-6.392-3.402-9.724l1.208-.387c-.399-.657-.786-1.325-1.138-2.017l-.27.082-.035-.669c-.27-.551-.527-1.114-.774-1.689-.258-.586-.492-1.196-.715-1.806-.012-.047-.035-.094-.047-.13-.094-.257-.188-.516-.27-.774-.023-.058-.047-.117-.059-.187-.07-.211-.14-.423-.2-.645-.95 6.627.33 13.337 3.731 19.225 2.147 3.707 5.032 6.886 8.458 9.35v-.74c-.012-1.959-.235-3.882-.669-5.724zM49.69 60.235l-.564-2.124c-.129-.457-.516-.797-.997-.856-.48-.059-.938.188-1.173.598-.129.235-.246.481-.352.728-.188.41-.387.82-.586 1.055-.118.13-.411.27-.692.41-.68.33-1.596.775-1.96 1.89-.222.692-.14 1.243-.082 1.642.047.352.06.469-.035.692l-.011.023c-.376.868-1.068 2.499-.094 3.871.692.986 1.43 1.244 1.994 1.244.105 0 .211-.012.317-.024 1.196-.2 2.1-1.43 2.827-3.894l1.384-4.634c.07-.2.07-.422.023-.621zm-3.649 4.598c-.375 1.255-.704 1.841-.903 2.1-.024-.024-.047-.06-.07-.094-.223-.317.105-1.103.328-1.62l.012-.023c.352-.832.258-1.478.187-1.947-.047-.305-.058-.434 0-.61.047-.14.317-.281.74-.48.187-.094.386-.188.586-.306l-.88 2.98zM33.185 33.877c-.61-.211-1.279.105-1.49.715-.211.61.106 1.279.716 1.49l.082.024c.129.046.258.07.387.07.48 0 .938-.305 1.102-.786.212-.61-.105-1.279-.715-1.49l-.082-.023zM14.135 74.346c0 2.018-.012 3.86-.035 5.502.21-.775.516-2.628.645-5.08v-.011c-.211-.13-.41-.27-.61-.411z"/>
    </g>
</svg>
