<svg xmlns="http://www.w3.org/2000/svg" width="150" height="33" viewBox="0 0 150 33">
    <path fill="#F4F8FC" d="M17.624 13.69c1.664 0 2.954 1.158 2.954 2.895v9.774h8.048c1.46 0 2.615 1.158 2.615 2.554 0 1.363-1.155 2.554-2.615 2.554H2.58C1.188 31.467 0 30.276 0 28.913c0-1.396 1.188-2.554 2.58-2.554H5.74v-9.774c0-1.737 1.29-2.895 3.022-2.895 1.664 0 2.954 1.158 2.954 2.895v9.774h2.887v-9.774c0-1.737 1.29-2.895 3.022-2.895zm12.258-9.467v1.43c0 4.053-.068 9.57-1.12 14.883-.306 1.566-1.494 2.588-2.989 2.588-1.731 0-3.09-1.294-3.09-3.031 0-.273.034-.545.102-.886.985-4.972.985-9.774.985-12.226H3.566c-1.427 0-2.547-1.09-2.547-2.554 0-1.43 1.12-2.554 2.547-2.554h23.973c1.29 0 2.343 1.056 2.343 2.35zm6.531 8.14v-3.85c0-5.04 4.517-7.832 9.882-7.832 5.365 0 10.017 2.793 10.017 7.833v3.848c0 5.04-4.618 7.799-9.983 7.799s-9.916-2.759-9.916-7.799zm22.718 17.231V3.406c0-1.737 1.358-3.065 3.056-3.065s3.056 1.328 3.056 3.065v26.188c0 1.771-1.358 3.065-3.056 3.065s-3.056-1.294-3.056-3.065zm-21.495 1.533c-1.426 0-2.547-1.124-2.547-2.554 0-1.43 1.12-2.554 2.547-2.554 1.901 0 3.803 0 5.705-.069v-2.554c0-1.737 1.29-2.554 3.022-2.554 1.732 0 3.022.817 3.022 2.554v2.248c2.037-.17 4.007-.409 5.875-.715.203-.034.34-.068.509-.068 1.426 0 2.547 1.124 2.547 2.554 0 1.328-.85 2.282-2.241 2.52-5.162.885-11.851 1.192-18.44 1.192zM42.39 8.582v3.712c0 1.805 1.664 2.895 3.939 2.895 2.275 0 4.007-1.09 4.007-2.895V8.582c0-1.805-1.732-2.963-4.007-2.963-2.275 0-3.94 1.158-3.94 2.963zm39.107 12.567c0-1.397 1.189-2.555 2.58-2.555h26.046c1.46 0 2.615 1.158 2.615 2.555 0 1.362-1.155 2.554-2.615 2.554h-9.983v6.232c0 1.737-1.325 3.065-3.057 3.065-1.731 0-3.056-1.328-3.056-3.065v-6.232h-9.95c-1.391 0-2.58-1.192-2.58-2.554zm3.94-5.109c-.272.034-.408.034-.544.034-1.426 0-2.547-1.124-2.547-2.554 0-1.294.883-2.384 2.14-2.52 3.938-.443 9.575-2.997 9.575-7.118V2.588C94.061 1.226 95.42 0 97.185 0c1.698 0 2.989 1.226 2.989 2.588v1.294c0 4.121 5.636 6.675 9.575 7.118 1.257.136 2.14 1.226 2.14 2.52 0 1.43-1.12 2.554-2.547 2.554-.136 0-.272 0-.543-.034-4.958-.613-9.44-2.52-11.682-6.198-2.275 3.678-6.723 5.585-11.68 6.198zm39.4 16.279c-3.565 0-6.485-2.793-6.485-6.369 0-3.61 2.92-6.402 6.486-6.402h14.771c3.6 0 6.52 2.793 6.52 6.402 0 3.576-2.92 6.369-6.52 6.369h-14.771zm-8.081-17.505c0-1.226.577-2.111 1.562-2.588 4.109-1.975 5.909-5.279 5.909-8.207v-.443c0-1.703 1.358-2.895 3.056-2.895s3.056 1.192 3.056 2.895v.443c0 2.928 1.8 5.891 5.908 7.866.985.477 1.562 1.363 1.562 2.589 0 1.532-1.188 2.758-2.784 2.758-.475 0-1.019-.136-1.392-.306-2.48-1.124-4.788-2.827-6.316-5.45-1.528 2.793-3.871 4.666-6.384 5.79-.374.17-.917.307-1.393.307-1.596 0-2.784-1.226-2.784-2.759zm22.921 1.158V3.406c0-1.737 1.358-3.065 3.056-3.065s3.056 1.328 3.056 3.065V6.98h1.834c1.324 0 2.377 1.056 2.377 2.384 0 1.328-1.053 2.384-2.377 2.384h-1.834v4.223c0 1.771-1.358 3.065-3.056 3.065s-3.056-1.294-3.056-3.065zm-15.28 9.978c0 1.022.78 1.737 1.799 1.737h12.055c1.019 0 1.834-.715 1.834-1.737 0-1.021-.815-1.77-1.834-1.77h-12.055c-1.019 0-1.8.749-1.8 1.77z"/>
</svg>
