<svg xmlns="http://www.w3.org/2000/svg" xmlns:xlink="http://www.w3.org/1999/xlink" width="16" height="20" viewBox="0 0 16 20">
    <defs>
        <path id="prefix__a" d="M0 0.185L9.723 0.185 9.723 10.815 0 10.815z"/>
        <path id="prefix__c" d="M0.239 0.109L15.903 0.109 15.903 14 0.239 14z"/>
    </defs>
    <g fill="none" fill-rule="evenodd">
        <mask id="prefix__b" fill="#fff">
            <use xlink:href="#prefix__a"/>
        </mask>
        <path fill="#3F3D56" d="M9.723.185s-6.017 1.37-6.84 6.642c-.484 3.571 5.25 2.849 5.25 2.849s-1.9 1.104-4.562 1.139C.925 10.745.002 9.042.002 7.795c0 0-.098-.957.975-2.491.92-1.366 2.714-3.026 5.734-4.27 1.306-.52 3.012-.85 3.012-.85" mask="url(#prefix__b)"/>
        <g transform="translate(0 6)">
            <mask id="prefix__d" fill="#fff">
                <use xlink:href="#prefix__c"/>
            </mask>
            <path fill="#3F3D56" d="M5.562 1.418S8.305.093 11.644.11c3.34.017 4.26 1.865 4.26 3.24 0 1.374-.71 2.863-2.26 4.483-1.548 1.62-3.892 3.463-7.243 4.826C3.658 13.788.24 14 .24 14s5.092-1.57 8.99-5.681c3.898-4.11 1.948-5.86 1.485-6.295-.463-.434-1.539-1.25-5.152-.606" mask="url(#prefix__d)"/>
        </g>
        <path fill="#3F3D56" d="M13.765 1.855c.52.905.15 2.152-.825 2.785-.975.632-2.186.41-2.705-.495-.52-.905-.15-2.152.825-2.784.975-.633 2.186-.412 2.705.494"/>
    </g>
</svg>
