<svg xmlns="http://www.w3.org/2000/svg" width="80" height="80" viewBox="0 0 80 80">
    <g fill="#222">
        <path d="M36.56.115L.135.115.135 12.248 12.275 12.248 12.275 36.538 24.42 36.538 24.42 12.248 36.56 12.248zM0 55.58H12.145V79.846H0zM24.35 55.58H36.495000000000005V79.846H24.35zM55.656 67.807L55.656 55.615 67.761 55.615 67.761 61.711 79.907 61.711 79.907 43.517 79.872 43.517 79.872 43.482 43.446 43.482 43.446 55.615 43.511 55.615 43.511 79.905 43.546 79.905 43.546 79.94 79.971 79.94 79.971 67.807zM67.711 0L79.887 36.389 79.887.099zM55.686.05L43.511 36.438 43.511.15zM61.674 18.294L67.761 36.438 55.686 36.438z"/>
    </g>
</svg>
