<svg xmlns="http://www.w3.org/2000/svg" xmlns:xlink="http://www.w3.org/1999/xlink" width="140" height="36" viewBox="0 0 140 36">
    <defs>
        <path id="prefix__a" d="M0 0.249L11.231 0.249 11.231 17.032 0 17.032z"/>
        <path id="prefix__c" d="M0 0.112L8.425 0.112 8.425 35.613 0 35.613z"/>
    </defs>
    <g fill="none" fill-rule="evenodd">
        <path fill="#F0BE43" d="M39.944 11.278c.717-1.95 3.955-.922 3.159 1.08L38.51 23.58c-1.008 2.53-3.928 2.477-4.883.027l-4.485-11.09c-.822-2.24 2.654-3.215 3.344-1.186l3.689 9.958 3.768-10.01zM44.979 21.483c1.088 0 1.99.922 1.99 2.002 0 1.08-.902 1.976-1.99 1.976-1.115 0-2.017-.896-2.017-1.976s.902-2.002 2.017-2.002M54.38 13.438v10.459c0 .948-.822 1.422-1.698 1.422-.902 0-1.751-.474-1.751-1.422V13.438H49.79c-.903 0-1.354-.711-1.354-1.501 0-.738.425-1.423 1.327-1.423h1.168V9.25c0-3.715 2.07-5.295 4.856-5.295.93 0 1.725.132 2.389.316 1.83.5 1.115 3.267-.505 2.845-.477-.132-.928-.21-1.38-.21-1.432 0-1.91.816-1.91 2.423v1.185h2.813c.929 0 1.406.711 1.406 1.476 0 .763-.477 1.448-1.38 1.448h-2.84zM64.757 11.726v.87c1.008-1.581 2.76-2.345 4.087-2.345.902 0 1.778.184 2.256.606.291.237.504.737.504 1.212.026 1.317-.85 2.054-1.884 1.685-.372-.131-1.009-.21-1.54-.21-1.565 0-2.813.685-3.423 2.107v8.245c0 .95-.823 1.423-1.699 1.423-.928 0-1.751-.474-1.751-1.423v-12.17c0-.922.823-1.423 1.751-1.423.876 0 1.699.501 1.699 1.423M73.195 11.7c0-.922.823-1.423 1.726-1.423.875 0 1.698.5 1.698 1.423v12.196c0 .949-.849 1.423-1.725 1.423-.902 0-1.699-.474-1.699-1.423V11.7zm1.699-7.561c1.115 0 2.017.87 2.017 1.976 0 1.08-.902 1.923-2.017 1.923-1.141 0-1.99-.843-1.99-1.923 0-1.107.849-1.976 1.99-1.976zM83.067 16.152h6.555c-.106-1.976-1.485-3.03-3.237-3.03-1.486 0-2.999 1.028-3.318 3.03m9.926.342c0 1.502-.451 2.345-2.654 2.345h-7.325c.16 2.37 1.752 3.635 3.875 3.635 1.725 0 2.92-.5 3.715-1 1.46-.897 2.893 1.237 1.487 2.396-.85.685-2.787 1.528-5.281 1.528-4.459 0-7.431-2.897-7.431-7.745 0-4.979 3.53-7.455 7.085-7.455 3.902 0 6.529 2.845 6.529 6.296M105.492 15.941c0-1.58-1.062-2.635-2.946-2.635-1.46 0-2.654.765-3.317 2.609v7.982c0 .948-.823 1.422-1.699 1.422-.902 0-1.725-.474-1.725-1.422V11.7c0-.922.823-1.423 1.725-1.423.85 0 1.699.5 1.699 1.423v.658c1.114-1.396 2.813-2.081 4.485-2.081 2.76 0 5.201 1.686 5.201 5.032v8.588c0 .948-.849 1.422-1.725 1.422-.875 0-1.698-.474-1.698-1.422V15.94zM122.264 19.313V16.23c-.425-2.081-2.096-2.898-3.397-2.898-2.043 0-3.61 1.449-3.61 4.426 0 2.976 1.275 4.715 3.61 4.715 1.407 0 2.946-.764 3.397-3.161zm3.424 4.583c0 .95-.823 1.423-1.726 1.423-.875 0-1.698-.474-1.698-1.423v-.552c-.955 1.317-2.548 1.975-4.14 1.975-2.813 0-6.45-1.896-6.45-7.534 0-5.084 3.292-7.403 6.45-7.403 1.592 0 3.185.686 4.14 1.897V5.404c0-.922.823-1.397 1.725-1.397.876 0 1.699.475 1.699 1.397v18.492zM138.744 11.147c1.645.869.451 3.293-1.247 2.45-.61-.343-1.964-.712-2.92-.712-1.592 0-2.494.58-2.494 1.58 0 1.002.876 1.502 2.256 1.766l1.353.263c2.468.5 4.087 1.923 4.087 4.189 0 2.713-2.495 4.715-5.971 4.715-1.964 0-3.556-.369-4.75-1.159-1.62-1.001-.399-3.662 1.432-2.687.77.5 2.283.975 3.265.975 1.619 0 2.627-.659 2.627-1.686 0-1.001-.929-1.502-2.282-1.792l-1.407-.29c-2.229-.447-4.034-1.843-4.034-4.24 0-2.424 2.203-4.32 5.653-4.32 2.123 0 3.556.473 4.432.948"/>
        <path fill="#EBA847" d="M27.396 25.177L13.077 25.177 10.046 18.755z"/>
        <path fill="#D69748" d="M10.046 18.755L13.077 25.178 13.462 32.467 11.231 26.559 8.425 19.105 1.378 0.387z"/>
        <path fill="#F0BE43" d="M11.231 26.559L13.462 32.467 10.045 27.57 10.033 27.555z"/>
        <g transform="translate(0 18.856)">
            <mask id="prefix__b" fill="#fff">
                <use xlink:href="#prefix__a"/>
            </mask>
            <path fill="#EBA847" d="M8.424 0.249L11.231 7.703 10.033 8.699 0 17.032z" mask="url(#prefix__b)"/>
        </g>
        <path fill="#F0BE43" d="M27.396 25.177L10.046 18.755 1.378 0.387z"/>
        <g transform="translate(0 .275)">
            <mask id="prefix__d" fill="#fff">
                <use xlink:href="#prefix__c"/>
            </mask>
            <path fill="#F0BE43" d="M1.378 0.112L8.425 18.829 0 35.613z" mask="url(#prefix__d)"/>
        </g>
    </g>
</svg>
