<svg xmlns="http://www.w3.org/2000/svg" width="22" height="16" viewBox="0 0 22 16">
    <path fill="#3F3D56" d="M21.142 1.322C20.348.383 18.882 0 16.082 0H5.918C3.054 0 1.562.408.77 1.407 0 2.382 0 3.818 0 5.806v3.788c0 3.85.915 5.806 5.918 5.806h10.164c2.428 0 3.774-.338 4.644-1.167.893-.85 1.274-2.237 1.274-4.639V5.806c0-2.096-.06-3.54-.858-4.484zm-7.018 6.901l-4.616 2.4c-.103.053-.216.08-.328.08-.128 0-.255-.034-.368-.102-.212-.128-.342-.357-.342-.604V5.213c0-.246.13-.475.341-.603.212-.128.476-.137.696-.023l4.615 2.384c.235.121.383.362.383.625 0 .264-.146.505-.38.627z"/>
</svg>
