<svg xmlns="http://www.w3.org/2000/svg" xmlns:xlink="http://www.w3.org/1999/xlink" width="71" height="77" viewBox="0 0 71 77">
    <defs>
        <path id="prefix__a" d="M0 0.007L5.909 0.007 5.909 4.215 0 4.215z"/>
        <path id="prefix__c" d="M0.016 0.019L1.386 0.019 1.386 1.857 0.016 1.857z"/>
    </defs>
    <g fill="none" fill-rule="evenodd">
        <path fill="#F9ED5C" d="M36.07 20.136L36.813 20.796 54.798 36.783 36.07 50.31 54.798 68.257 28.527 50.57 48.035 36.003z"/>
        <path fill="#222" d="M28.752 50.564l24.864 16.74-17.749-17.008 18.724-13.523-17.629-15.67L48.218 36.03l-.105.078-19.361 14.457zm25.974 17.801l-26.424-17.79.147-.11 19.404-14.488-11.887-15.763.19-.175 18.85 16.755-18.733 13.53 18.615 17.84-.162.201z"/>
        <path fill="#FFF" d="M36.07 6.975L54.798 23.622 36.07 37.148 54.798 55.096 28.527 37.408 48.035 22.842z"/>
        <path fill="#222" d="M28.752 37.403l24.864 16.74-17.749-17.01 18.724-13.521-17.629-15.67 11.256 14.926-.105.078-19.361 14.457zm25.974 17.8l-26.424-17.79 19.55-14.597L35.967 7.053l.19-.175 18.85 16.755-18.733 13.53 18.615 17.839-.162.202z"/>
        <path fill="#FAE979" d="M6.382 47.815L6.965 47.626 8.148 51.304 7.565 51.491 2.344 50.047 3.213 52.749 2.655 52.929 1.54 49.465 1.999 49.318 7.33 50.76z"/>
        <path fill="#222" d="M1.59 49.491l1.09 3.387.483-.155-.88-2.735 5.281 1.46.533-.17-1.158-3.6-.506.163.958 2.977L2 49.361l-.41.13zM2.63 52.98l-1.14-3.541.51-.163.01.004 5.26 1.422-.938-2.914.66-.212 1.208 3.754-.633.203-.012-.003-5.148-1.424.858 2.669-.635.205z"/>
        <path fill="#FAE979" d="M5.389 42.789L6.014 42.679 6.629 46.167 0.951 47.169 0.35 43.756 0.973 43.647 1.456 46.383 3.261 46.065 2.878 43.892 3.456 43.791 3.839 45.963 5.886 45.602z"/>
        <path fill="#222" d="M.397 43.789l.587 3.334 5.598-.988-.601-3.409-.545.096.496 2.812-2.126.376-.383-2.172-.499.087.384 2.172-1.885.333-.483-2.737-.543.096zm.521 3.427l-.615-3.493.703-.123.482 2.736 1.726-.304-.383-2.172.658-.116.383 2.172 1.967-.347-.496-2.813.703-.123.63 3.567-5.758 1.016z"/>
        <g>
            <path fill="#FAE979" d="M.72 37.843l-.046 1.515c-.008.3.07.55.232.752.163.2.397.306.7.315.304.01.564-.076.78-.256.215-.18.328-.458.338-.835l.043-1.431-2.048-.06zm2.395 2.293c-.131.36-.34.615-.626.765-.287.149-.583.219-.89.21-.4-.012-.763-.163-1.091-.455-.328-.292-.484-.73-.466-1.316l.062-2.157 5.763.168-.02.642-2.494-.073-.046 1.568 2.466 1.081-.021.72-2.637-1.153z" transform="translate(0 .013)"/>
            <g transform="translate(0 .013) translate(0 37.134)">
                <mask id="prefix__b" fill="#fff">
                    <use xlink:href="#prefix__a"/>
                </mask>
                <path fill="#222" d="M.758.75L.715 2.225c-.008.288.067.532.223.725.154.19.38.292.67.3.292.01.545-.074.752-.246.205-.172.314-.443.324-.805L2.725.808.758.75zm.892 2.582h-.044c-.316-.01-.561-.121-.731-.33-.168-.21-.25-.471-.241-.779L.68.667 2.808.73 2.764 2.2c-.01.386-.129.677-.352.865-.212.176-.468.266-.762.266zm1.442-.384l2.621 1.145.018-.632L3.266 2.38 3.314.745l2.494.072.018-.56L.143.09.082 2.207c-.017.57.135 1.002.453 1.285.318.283.677.433 1.066.444.297.01.59-.06.869-.205.276-.145.48-.395.608-.743l.014-.04zM5.79 4.215L3.138 3.056c-.135.347-.348.598-.63.746-.293.152-.598.224-.91.215-.408-.012-.784-.168-1.117-.465-.336-.3-.497-.753-.48-1.347L.065.007l.04.001 5.804.17L5.887.9 3.392.828l-.044 1.5 2.466 1.081-.024.806z" mask="url(#prefix__b)"/>
            </g>
            <path fill="#FAE979" d="M5.614 33.614c.06-.474-.122-.875-.544-1.2-.423-.324-.993-.531-1.712-.62-.739-.093-1.33-.026-1.777.2-.445.227-.696.57-.753 1.029-.058.464.119.86.53 1.189.41.329.975.538 1.693.626.702.088 1.29.021 1.765-.2.475-.22.74-.562.798-1.024m.58.089c-.086.697-.439 1.206-1.06 1.524-.62.319-1.346.428-2.176.324-.866-.108-1.557-.4-2.07-.88-.515-.479-.73-1.056-.646-1.73.084-.67.429-1.175 1.034-1.512.606-.337 1.33-.453 2.174-.348.812.1 1.494.386 2.048.856.553.468.786 1.057.697 1.766" transform="translate(0 .013)"/>
            <path fill="#222" d="M2.757 31.794c-.46 0-.847.08-1.157.236-.436.222-.676.548-.732.998-.057.453.112.83.515 1.152.401.323.964.53 1.673.618.69.087 1.277.02 1.743-.196.465-.217.719-.542.775-.993.057-.458-.121-.85-.529-1.162-.416-.32-.985-.526-1.692-.613-.21-.027-.41-.04-.596-.04m.861 3.122c-.182 0-.373-.013-.572-.037-.724-.09-1.3-.304-1.714-.636-.42-.337-.604-.749-.544-1.225.059-.472.32-.828.775-1.06.452-.228 1.057-.297 1.8-.204.721.089 1.304.3 1.731.629.432.332.621.747.56 1.236-.059.474-.335.83-.821 1.056-.345.16-.752.24-1.215.24m-.746-3.83c-.594 0-1.123.127-1.577.38-.59.328-.931.827-1.012 1.48-.083.659.13 1.23.632 1.697.505.47 1.194.763 2.048.869.818.102 1.542-.005 2.153-.32.605-.31.954-.812 1.039-1.493.086-.69-.143-1.273-.683-1.73-.546-.463-1.228-.748-2.027-.846-.197-.025-.388-.037-.573-.037m.674 4.544c-.192 0-.39-.013-.593-.038-.87-.108-1.575-.408-2.093-.89-.522-.486-.743-1.08-.658-1.765.085-.68.44-1.2 1.054-1.542.61-.34 1.35-.458 2.2-.353.814.101 1.51.392 2.068.865.562.476.801 1.083.71 1.802-.087.709-.451 1.232-1.081 1.555-.474.244-1.012.366-1.607.366" transform="translate(0 .013)"/>
            <path fill="#FAE979" d="M4.08 28.407l.34-1.213c.087-.312.059-.59-.085-.836-.141-.246-.375-.413-.698-.504-.276-.077-.547-.061-.811.047-.265.11-.442.325-.532.647l-.354 1.259 2.14.6zm2.83.794l-.185.66-5.551-1.557.524-1.87c.164-.584.452-.968.866-1.153.412-.183.833-.216 1.261-.095.477.133.83.395 1.056.786.227.39.272.83.134 1.319l-.359 1.278 2.253.632z" transform="translate(0 .013)"/>
            <path fill="#222" d="M1.99 27.779l2.061.578.33-1.174c.084-.298.057-.569-.08-.804-.136-.235-.363-.398-.675-.486-.265-.075-.53-.06-.785.046-.255.105-.421.308-.509.62l-.342 1.22zm2.117.678l-2.216-.622.364-1.298c.093-.332.28-.559.555-.673.273-.112.555-.128.838-.049.333.094.576.27.722.523.149.255.179.547.089.867l-.352 1.252zm-2.883-.18l5.473 1.535.163-.583-2.253-.632.37-1.317c.133-.476.09-.91-.13-1.288-.221-.38-.569-.637-1.033-.768-.416-.116-.832-.085-1.234.094-.4.179-.683.558-.843 1.127l-.513 1.831zm5.529 1.634l-5.629-1.579.535-1.908c.167-.594.465-.99.888-1.18.42-.186.854-.22 1.29-.097.484.136.847.407 1.08.804.23.399.277.853.137 1.35l-.348 1.24 2.253.632-.206.738z" transform="translate(0 .013)"/>
            <path fill="#FAE979" d="M9.119 21.398L9.698 21.654 8.268 24.894 2.994 22.565 4.394 19.395 4.974 19.651 3.851 22.194 5.528 22.935 6.419 20.916 6.956 21.154 6.065 23.171 7.966 24.011z" transform="translate(0 .013)"/>
            <path fill="#222" d="M3.047 22.545l5.2 2.295 1.398-3.166-.506-.222-1.153 2.612-1.975-.872.891-2.018-.463-.205-.89 2.019-1.752-.774 1.124-2.542-.506-.224-1.368 3.097zm5.242 2.402l-5.348-2.36 1.433-3.246.653.29-1.123 2.542 1.603.709.891-2.02.61.271-.89 2.018 1.827.806 1.153-2.612.653.288-1.462 3.314z" transform="translate(0 .013)"/>
            <path fill="#FAE979" d="M12.644 16.832l-.36.56-5.759-.333.324.198c.125.07.229.133.312.186l3.602 2.315-.298.465-4.85-3.116.463-.721 5.384.311-.342-.21c-.135-.08-.254-.153-.355-.22l-3.263-2.095.292-.456 4.85 3.116z" transform="translate(0 .013)"/>
            <path fill="#222" d="M5.67 17.095l4.782 3.073.256-.398-3.569-2.293c-.087-.056-.191-.118-.31-.185l-.462-.283 5.895.341.326-.506-4.782-3.072-.249.388 3.23 2.074c.091.06.2.127.354.219l.478.294-5.52-.32-.429.668zm4.807 3.184l-4.918-3.16.498-.775 5.247.304-.205-.126c-.154-.093-.264-.16-.356-.22l-3.297-2.118.335-.524 4.919 3.16-.395.614-5.622-.326.187.115c.119.066.224.13.313.186l3.636 2.337-.342.533zM10.229 10.687L10.633 10.225 16.058 14.967 15.655 15.429zM17.094 10.496l.683.724-.102.096-.211-.133c.034.2-.03.377-.192.53-.175.164-.376.223-.605.176-.228-.048-.435-.17-.622-.368-.2-.213-.314-.438-.344-.677-.03-.239.044-.442.22-.608.245-.231.533-.245.862-.045l-.12.19c-.12-.084-.233-.12-.34-.108-.107.011-.198.052-.272.121-.13.123-.175.27-.133.44.043.17.143.34.302.509.17.181.339.29.505.326.165.037.308 0 .428-.114.094-.088.141-.194.142-.318.001-.125-.052-.245-.16-.36-.02-.021-.044-.046-.074-.074l-.329.31-.137-.147.5-.47zM18.39 9.676l-.81-.523.379.888.432-.365zm.835.267l-.178.15-.503-.31-.517.437.238.534-.146.124-.788-1.85.197-.168 1.697 1.083zM20.922 8.642L20.745 8.776 19.734 7.436 20.272 9.132 20.149 9.226 18.66 8.247 19.671 9.586 19.516 9.704 18.358 8.17 18.628 7.965 19.994 8.86 19.498 7.309 19.764 7.108zM22.322 7.44L22.44 7.617 21.459 8.272 20.391 6.675 21.351 6.033 21.468 6.209 20.698 6.723 21.037 7.231 21.649 6.823 21.758 6.985 21.146 7.394 21.531 7.97zM23.786 6.564l.323-.181c.17-.096.265-.23.285-.405.018-.175-.029-.363-.143-.567-.094-.165-.218-.29-.378-.375-.158-.084-.326-.076-.506.024l-.322.181.74 1.323zm-.1.29l-.94-1.676.534-.299c.225-.127.446-.144.66-.053.216.091.39.254.52.487.134.237.184.47.153.7-.03.231-.14.4-.328.505l-.599.336zM26.38 5.195L26.474 5.385 25.417 5.907 24.565 4.185 25.6 3.673 25.694 3.862 24.863 4.273 25.134 4.821 25.793 4.495 25.879 4.67 25.22 4.997 25.527 5.617zM27.31 2.912L27.515 4.919 27.313 5.008 25.98 3.493 26.2 3.397 27.3 4.646 27.127 2.992zM29.513 3.894L29.588 4.092 28.485 4.512 27.8 2.717 28.879 2.305 28.954 2.502 28.089 2.833 28.307 3.404 28.994 3.142 29.064 3.324 28.376 3.586 28.623 4.234zM31.048 3.382L31.114 3.583 30.09 3.92 29.489 2.095 29.712 2.021 30.246 3.646zM32.111 3.134c.154-.043.254-.15.3-.321.045-.172.036-.374-.027-.607-.067-.24-.163-.412-.29-.52-.127-.11-.264-.143-.413-.101-.15.041-.25.146-.298.315-.049.168-.04.368.023.601.063.228.16.4.287.518.13.118.27.156.418.115m.047.19c-.226.062-.428.019-.604-.131-.178-.15-.304-.36-.379-.63-.077-.28-.075-.53.006-.75.082-.22.232-.359.45-.419.217-.06.417-.018.598.125s.31.35.385.624c.073.264.072.51 0 .74-.075.23-.226.378-.456.441M33.39 1.958l.41-.092c.105-.023.182-.075.232-.155.05-.081.062-.176.038-.286-.02-.093-.068-.17-.142-.23-.074-.06-.165-.079-.274-.055l-.425.095.161.723zm.214.956l-.224.05-.418-1.876.631-.14c.198-.044.357-.02.476.072s.195.21.227.355c.036.161.014.307-.065.435-.078.128-.2.21-.365.247l-.432.096.17.761zM36.807 2.314L36.589 2.35 36.318.694 36.003 2.445 35.85 2.47 34.99.91 35.259 2.566 35.068 2.597 34.759.701 35.094.646 35.884 2.074 36.168.471 36.498.418zM38.619 1.904L38.64 2.115 37.466 2.237 37.267.325 38.417.205 38.439.416 37.516.511 37.58 1.12 38.312 1.043 38.331 1.238 37.6 1.314 37.671 2.003zM40.447 2.007l-.221.012L39.195.396l.01.126.01.12.074 1.426-.183.01-.102-1.919.285-.015.964 1.517-.01-.133-.01-.14-.067-1.29.18-.01.101 1.92zM41.684 1.991L41.456 1.992 41.451.282 40.928.283 40.928.072 42.204.068 42.204.279 41.68.28zM44.747 1.473l.204.063c-.13.417-.37.612-.72.588-.23-.016-.403-.127-.52-.332-.119-.205-.167-.45-.146-.736.02-.295.106-.527.255-.697.15-.17.34-.246.57-.23.34.024.546.245.614.663l-.218.03c-.057-.31-.194-.473-.412-.488-.16-.012-.291.05-.39.185-.097.137-.156.332-.173.589-.018.234.015.426.095.575.081.148.197.227.345.238.232.016.398-.133.496-.448M46.441 2.095L46.417 2.305 45.347 2.18 45.568.271 45.8.299 45.603 1.998zM48.226.645l.187.03-.205 1.239c-.041.248-.128.418-.262.506-.132.09-.293.118-.481.087-.208-.035-.353-.115-.435-.244-.082-.128-.103-.312-.063-.554l.205-1.238.225.037-.205 1.238c-.024.148-.025.254-.002.32.022.066.065.118.126.158.061.04.127.065.2.078.138.021.25 0 .336-.064.084-.065.14-.183.17-.354l.204-1.239zM49.118 1.654l.388.085c.16.035.276.026.344-.027.068-.052.11-.123.13-.21.019-.086.005-.162-.042-.228-.046-.066-.126-.11-.242-.136l-.444-.097-.134.613zm-.19.867l.478.104c.118.025.214.016.291-.03.076-.046.125-.117.146-.213.015-.067.014-.131-.003-.195-.016-.063-.047-.116-.092-.159-.046-.043-.12-.075-.224-.098l-.445-.097-.15.688zm-.26.16l.41-1.879.705.155c.177.038.299.113.364.223.066.11.087.226.06.347-.046.212-.182.33-.408.354.118.062.198.142.24.243.041.1.05.205.026.316-.032.148-.106.26-.222.34-.116.079-.273.096-.469.054l-.705-.154zM41.662 66.343c-3.826 0-7.54-.75-11.036-2.23-3.377-1.427-6.409-3.471-9.012-6.074-2.603-2.604-4.647-5.636-6.075-9.012-1.479-3.497-2.229-7.21-2.229-11.037 0-3.3.562-6.533 1.671-9.61 1.072-2.975 2.627-5.734 4.623-8.203 3.998-4.945 9.598-8.439 15.766-9.837l.863 3.805c-5.317 1.206-10.145 4.219-13.595 8.485-1.721 2.13-3.063 4.509-3.986 7.072-.956 2.652-1.44 5.44-1.44 8.288 0 6.531 2.543 12.671 7.161 17.29 4.618 4.618 10.758 7.161 17.29 7.161.596 0 1.206-.023 1.814-.067l.285 3.891c-.702.052-1.409.078-2.1.078M54.246 63.402l-1.734-3.496c4.021-1.995 7.419-5.057 9.825-8.856 2.47-3.902 3.776-8.418 3.776-13.06 0-2.811-.473-5.567-1.405-8.19-.9-2.534-2.21-4.893-3.893-7.009-3.364-4.232-8.091-7.268-13.31-8.547l.93-3.79c6.053 1.484 11.535 5.003 15.435 9.91 1.95 2.453 3.47 5.189 4.515 8.13 1.081 3.043 1.63 6.238 1.63 9.496 0 5.382-1.515 10.62-4.382 15.147-2.788 4.403-6.726 7.952-11.387 10.265" transform="translate(0 .013)"/>
            <path fill="#222" d="M41.653 73.186c-2.044 0-4.085-.18-6.11-.538-3.852-.683-7.53-1.999-10.933-3.91-.188-.105-.254-.343-.149-.53.106-.189.344-.255.531-.15 3.326 1.868 6.922 3.154 10.688 3.821 3.7.656 7.462.7 11.18.128 3.753-.576 7.352-1.762 10.696-3.524 3.46-1.822 6.567-4.222 9.235-7.132 2.667-2.91 4.789-6.214 6.304-9.82 1.465-3.484 2.333-7.172 2.582-10.96.246-3.756-.124-7.5-1.099-11.128-.992-3.694-2.585-7.165-4.734-10.316-.122-.178-.076-.42.102-.542.178-.121.42-.076.542.102 2.2 3.224 3.829 6.774 4.844 10.553.997 3.712 1.375 7.541 1.123 11.381-.254 3.876-1.142 7.648-2.64 11.212-1.551 3.689-3.72 7.068-6.449 10.045-2.728 2.976-5.907 5.431-9.446 7.296-3.421 1.802-7.102 3.015-10.941 3.604-1.77.272-3.549.408-5.326.408M12.485 57.09c-.129 0-.256-.065-.33-.183-2.02-3.202-3.496-6.699-4.386-10.393-.876-3.636-1.164-7.372-.855-11.103.313-3.77 1.226-7.435 2.716-10.894 1.542-3.578 3.67-6.862 6.328-9.761 2.657-2.899 5.744-5.305 9.175-7.152C28.45 5.82 32.022 4.591 35.75 3.953c3.69-.632 7.436-.67 11.135-.113 3.758.566 7.37 1.733 10.735 3.467.191.099.267.334.168.526-.099.191-.334.266-.526.168-3.29-1.696-6.82-2.836-10.493-3.39-3.616-.544-7.28-.507-10.887.11-3.645.625-7.137 1.826-10.38 3.57-3.353 1.806-6.37 4.158-8.969 6.992-2.598 2.834-4.68 6.045-6.186 9.543-1.456 3.381-2.35 6.964-2.655 10.65-.302 3.647-.021 7.3.836 10.855.87 3.611 2.312 7.03 4.287 10.16.115.182.06.423-.122.538-.064.04-.136.06-.208.06M72.283 61.342L72.141 61.525 70.855 60.534 70.387 61.142 70.231 61.022 70.841 60.23zM71.308 62.583L71.159 62.76 69.914 61.717 69.422 62.305 69.27 62.178 69.912 61.413zM68.905 63.717l.508.219c.115.05.213.102.31.152l.003-.004c-.062-.092-.125-.187-.185-.287l-.275-.483-.36.403zm.256-.561l-.302-.521.16-.179.95 1.67-.187.208-1.766-.76.166-.184.554.24.425-.474zM68.23 64.837l-.15.148c-.174.172-.185.365-.061.49.15.152.322.1.489-.065.076-.075.114-.124.134-.156l-.412-.417zm-.613-.62c-.038.025-.088.07-.146.128-.17.169-.265.388-.08.576.176.177.397.102.577-.076l.137-.135-.488-.494zm1.302.987c-.057.087-.159.21-.274.325-.165.163-.3.239-.444.252-.116.016-.231-.022-.332-.124-.124-.125-.15-.315-.065-.497l-.004-.004c-.152.089-.394.127-.584-.065-.11-.111-.15-.239-.149-.366.008-.17.114-.351.322-.557.114-.113.208-.191.27-.238l1.26 1.274zM66.94 65.87c-.258-.29-.645-.411-.918-.168-.274.244-.2.639.075.947.24.27.631.429.92.172.286-.256.19-.652-.076-.95m-1.02.95c-.417-.468-.358-.966-.016-1.271.354-.316.85-.26 1.217.152.385.431.372.95.014 1.269-.365.326-.856.253-1.215-.15M65.31 67.37l-.185.149c-.194.155-.23.36-.1.523.148.183.343.158.536.007.087-.07.143-.129.165-.16l-.417-.519zm.7.501c-.076.093-.199.208-.323.309-.193.155-.346.22-.498.21-.121-.007-.239-.072-.327-.182-.15-.187-.134-.405-.028-.574l-.005-.006c-.138.049-.284 0-.435-.121-.205-.161-.349-.271-.422-.303l.187-.15c.055.022.184.119.366.264.2.162.333.176.502.05l.17-.137-.494-.614.18-.145 1.127 1.4zM63.29 68.65l.45.32c.103.073.188.145.271.214l.004-.003c-.042-.103-.083-.21-.12-.32l-.167-.53-.438.318zm.368-.495l-.185-.574.194-.14.576 1.832-.226.164-1.566-1.113.2-.146.492.35.515-.373zM62.81 70.032L63.265 69.73 63.375 69.896 62.268 70.632 62.158 70.466 62.615 70.162 61.718 68.812 61.913 68.682zM61.633 71.023L60.677 69.473 60.874 69.351 61.83 70.901zM60.438 70.668c-.19-.339-.542-.541-.86-.362-.32.18-.334.58-.131.94.177.316.525.555.862.366.334-.188.325-.595.13-.944m-1.2.708c-.307-.546-.143-1.02.257-1.244.413-.232.886-.07 1.156.41.283.504.16 1.007-.259 1.242-.427.24-.89.063-1.154-.408M58.302 70.815l.802 1.634-.228.112-.922-.574c-.214-.133-.391-.26-.55-.39l-.004.006c.127.208.229.405.354.66l.335.684-.196.096-.802-1.635.21-.103.92.578c.201.127.4.261.569.398l.006-.006c-.113-.2-.215-.394-.348-.666l-.342-.698.196-.096zM56.328 73.951L55.291 71.456 55.456 71.387 56.493 73.883zM54.277 72.886c-.12-.027-.28-.027-.432.026-.223.078-.312.244-.25.417.056.16.179.22.439.23.311.002.533.087.618.33.094.267-.054.543-.384.658-.173.061-.313.065-.404.048l-.003-.202c.066.01.197.022.35-.032.232-.081.27-.252.229-.37-.057-.16-.187-.203-.453-.212-.326-.012-.521-.1-.61-.353-.093-.265.02-.563.419-.703.163-.057.359-.072.47-.042l.011.205zM52.977 74.945l-.308-1.033c-.117-.391-.337-.506-.567-.437-.255.076-.368.296-.253.681l.309 1.034-.225.067-.304-1.018c-.16-.536.053-.839.426-.95.352-.106.678.02.84.56l.306 1.029-.224.067zM50.79 73.68l.425 1.77-.246.06-.775-.762c-.18-.176-.325-.339-.452-.5l-.004.004c.077.231.134.446.2.721l.179.741-.213.052-.425-1.771.227-.055.771.765c.17.168.334.342.469.513l.007-.005c-.067-.22-.123-.432-.194-.726l-.182-.757.212-.05zM48.794 75.121l-.233.044c-.244.046-.373.21-.334.415.044.231.228.3.469.258.11-.02.187-.046.221-.064l-.123-.653zm.381.772c-.11.046-.273.09-.43.12-.243.046-.409.03-.538-.05-.104-.063-.177-.175-.203-.313-.044-.237.073-.421.247-.52l-.002-.008c-.145-.022-.25-.134-.327-.312-.105-.239-.18-.404-.23-.466l.236-.044c.039.045.107.191.199.405.099.237.21.312.419.281l.215-.04-.147-.776.228-.043.333 1.766zM47.23 76.256L46.955 74.457 47.185 74.421 47.459 76.221zM46.309 74.553l.205 1.81-.251.029-.676-.851c-.156-.198-.281-.376-.387-.552l-.005.003c.049.24.079.459.11.74l.087.758-.217.025-.205-1.81.232-.026.671.854c.147.187.29.38.402.566l.008-.003c-.04-.227-.07-.444-.103-.745l-.088-.773.217-.025zM43.361 76.64L43.268 74.821 43.499 74.809 43.593 76.628z" transform="translate(0 .013)"/>
            <g transform="translate(0 .013) translate(41.251 74.834)">
                <mask id="prefix__d" fill="#fff">
                    <use xlink:href="#prefix__c"/>
                </mask>
                <path fill="#222" d="M1.363.02l.023 1.82-.253.003L.546.929C.41.717.304.527.216.341L.212.344c.025.243.033.465.036.748l.01.762-.218.003L.016.036.25.033.832.95c.127.2.25.407.343.603l.008-.002c-.016-.23-.024-.449-.028-.751l-.01-.778.218-.003z" mask="url(#prefix__d)"/>
            </g>
            <path fill="#222" d="M40.219 76.465L40.764 76.484 40.757 76.684 39.429 76.637 39.436 76.437 39.984 76.457 40.042 74.837 40.276 74.845zM38.054 75.567L38.75 75.621 38.801 74.966 38.026 74.906 38.041 74.709 39.047 74.787 38.906 76.603 37.94 76.528 37.955 76.331 38.69 76.389 38.735 75.815 38.039 75.76zM37.148 75.585l-.236-.028c-.245-.03-.418.087-.444.294-.028.233.126.355.37.388.11.013.19.012.23.006l.08-.66zm.13.852c-.12.01-.288.003-.447-.017-.246-.03-.399-.095-.498-.21-.08-.091-.115-.22-.098-.36.03-.24.197-.38.392-.42l.001-.009c-.131-.065-.198-.203-.217-.396-.027-.26-.048-.439-.077-.513l.238.029c.023.054.044.215.066.446.023.256.107.361.315.395l.216.026.096-.783.23.029-.218 1.783zM35.832 74.438l-.31 1.794-.25-.043-.41-1.006c-.095-.233-.165-.44-.217-.638l-.006.002c-.02.243-.053.462-.1.742l-.13.75-.216-.037.31-1.794.231.04.405 1.008c.088.22.171.446.227.656l.008-.001c.026-.229.058-.445.11-.744l.132-.766.216.037zM32.774 74.708L33.456 74.86 33.599 74.219 32.839 74.05 32.882 73.857 33.868 74.077 33.471 75.854 32.525 75.643 32.567 75.451 33.288 75.611 33.413 75.05 32.732 74.898zM31.559 75.191L32.086 75.333 32.034 75.526 30.751 75.18 30.803 74.987 31.332 75.13 31.754 73.564 31.981 73.625z" transform="translate(0 .013)"/>
        </g>
    </g>
</svg>
