<svg xmlns="http://www.w3.org/2000/svg" width="57" height="37" viewBox="0 0 57 37">
    <path fill="#5055FC" d="M16.136 29.732h3.36c1.806 0 2.856 1.638 2.856 3.36 0 1.68-1.05 3.36-2.856 3.36H3.536c-1.806 0-2.856-1.638-2.856-3.36 0-1.68 1.05-3.36 2.856-3.36h5.04V11.294l-2.478 1.68c-1.428.966-3.528.504-4.62-.966s-1.134-3.612.546-4.746l8.274-5.544c1.134-.756 2.604-1.134 4.032-.504 1.176.504 1.806 1.638 1.806 3.024v25.494zm22.962 3.696c0-9.534 5.334-20.37 8.946-25.536h-12.39v4.998c0 2.184-1.386 3.402-3.486 3.402-2.1 0-3.486-1.218-3.486-3.402V5.54c0-2.52 1.68-4.2 4.2-4.2h18.942c1.848 0 3.402.882 4.074 2.394.63 1.344.462 3.696-.42 4.998-4.41 6.594-8.82 16.002-8.82 24.696 0 2.184-1.68 3.57-3.78 3.57-2.1 0-3.78-1.386-3.78-3.57z"/>
</svg>
