<svg xmlns="http://www.w3.org/2000/svg" width="66" height="37" viewBox="0 0 66 37">
    <path fill="#5055FC" d="M24.796 36.452H4.846C1.696 36.452.1 34.856.1 31.748c0-9.072 7.14-11.76 13.482-14.7 4.452-2.058 5.838-2.94 5.838-5.502 0-1.89-1.722-3.864-5.712-3.864-2.814 0-4.914 1.302-6.006 3.948-.756 1.848-2.394 2.646-4.284 2.352C1.444 13.688.142 11.84.73 9.824 2.326 4.28 7.576.92 13.624.92c7.308 0 13.272 4.41 13.272 10.542 0 6.468-3.654 8.19-10.08 11.13-3.948 1.806-8.526 4.326-8.736 7.14h16.716c1.806 0 3.024 1.638 3.024 3.36 0 1.68-1.218 3.36-3.024 3.36zm27.372-12.768V12.386l-8.442 11.298h8.442zm7.308-.084h2.898c1.806 0 2.856 1.554 2.856 3.276 0 1.68-1.05 3.276-2.856 3.276h-2.898v3.486c0 2.184-1.596 3.36-3.696 3.36s-3.696-1.176-3.696-3.36v-3.486h-13.23c-2.016 0-3.318-.966-3.822-2.268-.504-1.302-.252-3.108.714-4.368l15.456-20.79C52.336 1.172 54.604.5 56.494 1.088c1.68.546 2.982 1.89 2.982 3.78V23.6z"/>
</svg>
