<svg xmlns="http://www.w3.org/2000/svg" width="165" height="30" viewBox="0 0 165 30">
    <path fill="#F4F8FC" d="M18.14 27.18H3.89C1.64 27.18.5 26.04.5 23.82c0-6.48 5.1-8.4 9.63-10.5 3.18-1.47 4.17-2.1 4.17-3.93 0-1.35-1.23-2.76-4.08-2.76-2.01 0-3.51.93-4.29 2.82-.54 1.32-1.71 1.89-3.06 1.68C1.46 10.92.53 9.6.95 8.16 2.09 4.2 5.84 1.8 10.16 1.8c5.22 0 9.48 3.15 9.48 7.53 0 4.62-2.61 5.85-7.2 7.95-2.82 1.29-6.09 3.09-6.24 5.1h11.94c1.29 0 2.16 1.17 2.16 2.4 0 1.2-.87 2.4-2.16 2.4zm8.181-13.95c0-2.67 2.07-4.89 4.62-4.89h7.56c2.58 0 4.62 2.22 4.62 4.89 0 2.64-2.04 4.89-4.62 4.89h-7.56c-2.55 0-4.62-2.25-4.62-4.89zm25.05 9.36v3.99c0 1.5-1.2 2.7-2.7 2.7-1.5 0-2.7-1.2-2.7-2.7v-2.34h-16.71c-1.17 0-2.1-.93-2.1-2.1s.93-2.1 2.1-2.1h19.56c1.32 0 2.55.99 2.55 2.55zm-5.4-6V3.51c0-1.53 1.2-2.7 2.7-2.7 1.5 0 2.7 1.17 2.7 2.7v4.38h1.62c1.17 0 2.1.93 2.1 2.1s-.93 2.1-2.1 2.1h-1.62v4.5c0 1.56-1.2 2.7-2.7 2.7-1.5 0-2.7-1.14-2.7-2.7zM25.721 5.13c0-1.08.87-2.01 1.95-2.01h4.35v-.66c0-1.53 1.2-2.25 2.7-2.25 1.5 0 2.7.72 2.7 2.25v.66h4.35c1.08 0 1.95.93 1.95 2.01 0 1.08-.87 2.01-1.95 2.01h-14.1c-1.08 0-1.95-.93-1.95-2.01zm5.7 8.1c0 .57.42 1.05 1.05 1.05h4.5c.63 0 1.05-.48 1.05-1.05 0-.57-.42-1.05-1.05-1.05h-4.5c-.63 0-1.05.48-1.05 1.05zm48.262 6.63v-7.32h-6c-1.08 0-1.92-.9-1.92-1.98s.84-2.01 1.92-2.01h6V7.47h-6c-1.08 0-1.92-.9-1.92-1.98s.84-2.01 1.92-2.01h6v-.27c0-1.53 1.2-2.4 2.7-2.4 1.5 0 2.7.87 2.7 2.4v16.65c0 1.56-1.2 2.7-2.7 2.7-1.5 0-2.7-1.14-2.7-2.7zm-17.37-1.47h-1.5c-1.14 0-2.07-.93-2.07-2.07V4.08c0-1.47 1.2-2.67 2.67-2.67 1.53 0 2.67 1.2 2.67 2.67v10.23c4.26 0 8.04-.24 11.61-.84.18-.03.3-.06.51-.06 1.17 0 2.13.9 2.13 2.07 0 .99-.72 1.8-1.65 1.98-4.05.78-9.33.93-14.37.93zm-2.31 8.04v-4.59c0-1.5 1.2-2.4 2.7-2.4 1.5 0 2.7.9 2.7 2.4v2.94h18.18c1.17 0 2.1.93 2.1 2.1s-.93 2.1-2.1 2.1h-21.03c-1.32 0-2.55-.99-2.55-2.55zm42.283-7.29c0-1.23 1.05-2.25 2.28-2.25h23.01c1.29 0 2.31 1.02 2.31 2.25 0 1.2-1.02 2.25-2.31 2.25h-8.82v5.49c0 1.53-1.17 2.7-2.7 2.7-1.53 0-2.7-1.17-2.7-2.7v-5.49h-8.79c-1.23 0-2.28-1.05-2.28-2.25zm3.48-4.5c-.24.03-.36.03-.48.03-1.26 0-2.25-.99-2.25-2.25 0-1.14.78-2.1 1.89-2.22 3.48-.39 8.46-2.64 8.46-6.27V2.79c0-1.2 1.2-2.28 2.76-2.28 1.5 0 2.64 1.08 2.64 2.28v1.14c0 3.63 4.98 5.88 8.46 6.27 1.11.12 1.89 1.08 1.89 2.22 0 1.26-.99 2.25-2.25 2.25-.12 0-.24 0-.48-.03-4.38-.54-8.34-2.22-10.32-5.46-2.01 3.24-5.94 4.92-10.32 5.46zm36.381 14.34c-3.15 0-5.73-2.46-5.73-5.61 0-3.18 2.58-5.64 5.73-5.64h13.05c3.18 0 5.76 2.46 5.76 5.64 0 3.15-2.58 5.61-5.76 5.61h-13.05zm-7.14-15.42c0-1.08.51-1.86 1.38-2.28 3.63-1.74 5.22-4.65 5.22-7.23v-.39c0-1.5 1.2-2.55 2.7-2.55 1.5 0 2.7 1.05 2.7 2.55v.39c0 2.58 1.59 5.19 5.22 6.93.87.42 1.38 1.2 1.38 2.28 0 1.35-1.05 2.43-2.46 2.43-.42 0-.9-.12-1.23-.27-2.19-.99-4.23-2.49-5.58-4.8-1.35 2.46-3.42 4.11-5.64 5.1-.33.15-.81.27-1.23.27-1.41 0-2.46-1.08-2.46-2.43zm20.25 1.02V3.51c0-1.53 1.2-2.7 2.7-2.7 1.5 0 2.7 1.17 2.7 2.7v3.15h1.62c1.17 0 2.1.93 2.1 2.1s-.93 2.1-2.1 2.1h-1.62v3.72c0 1.56-1.2 2.7-2.7 2.7-1.5 0-2.7-1.14-2.7-2.7zm-13.5 8.79c0 .9.69 1.53 1.59 1.53h10.65c.9 0 1.62-.63 1.62-1.53s-.72-1.56-1.62-1.56h-10.65c-.9 0-1.59.66-1.59 1.56z"/>
</svg>
